<mxfile host="app.diagrams.net" agent="Mozilla/5.0 (Windows NT 10.0; Win64; x64) AppleWebKit/537.36 (KHTML, like Gecko) Chrome/130.0.0.0 Safari/537.36" version="24.8.3">
  <diagram id="WI9T0HZ2pTsCkuznbFz-" name="Page-1">
    <mxGraphModel dx="1195" dy="615" grid="1" gridSize="10" guides="1" tooltips="1" connect="1" arrows="1" fold="1" page="1" pageScale="1" pageWidth="1169" pageHeight="827" math="0" shadow="0">
      <root>
        <mxCell id="0" />
        <mxCell id="1" parent="0" />
        <mxCell id="SWwn75Fxxb8IVNRIEHbr-13" value="" style="rounded=0;whiteSpace=wrap;html=1;fillColor=none;dashed=1;strokeColor=#B3B3B3;" vertex="1" parent="1">
          <mxGeometry x="326" y="215.5" width="710" height="443" as="geometry" />
        </mxCell>
        <mxCell id="SWwn75Fxxb8IVNRIEHbr-20" value="" style="rounded=0;whiteSpace=wrap;html=1;fillColor=none;dashed=1;strokeColor=#B3B3B3;" vertex="1" parent="1">
          <mxGeometry x="540" y="527" width="160" height="90" as="geometry" />
        </mxCell>
        <mxCell id="SWwn75Fxxb8IVNRIEHbr-19" value="" style="rounded=0;whiteSpace=wrap;html=1;fillColor=none;dashed=1;strokeColor=#B3B3B3;" vertex="1" parent="1">
          <mxGeometry x="570" y="377" width="100" height="90" as="geometry" />
        </mxCell>
        <mxCell id="SWwn75Fxxb8IVNRIEHbr-1" value="App Service" style="shape=image;verticalLabelPosition=bottom;labelBackgroundColor=#ffffff;verticalAlign=top;aspect=fixed;imageAspect=0;image=data:image/svg+xml,PHN2ZyB4bWxuczpkYz0iaHR0cDovL3B1cmwub3JnL2RjL2VsZW1lbnRzLzEuMS8iIHhtbG5zOmNjPSJodHRwOi8vY3JlYXRpdmVjb21tb25zLm9yZy9ucyMiIHhtbG5zOnJkZj0iaHR0cDovL3d3dy53My5vcmcvMTk5OS8wMi8yMi1yZGYtc3ludGF4LW5zIyIgeG1sbnM6c3ZnPSJodHRwOi8vd3d3LnczLm9yZy8yMDAwL3N2ZyIgeG1sbnM9Imh0dHA6Ly93d3cudzMub3JnLzIwMDAvc3ZnIiB4bWxuczpzb2RpcG9kaT0iaHR0cDovL3NvZGlwb2RpLnNvdXJjZWZvcmdlLm5ldC9EVEQvc29kaXBvZGktMC5kdGQiIHhtbG5zOmlua3NjYXBlPSJodHRwOi8vd3d3Lmlua3NjYXBlLm9yZy9uYW1lc3BhY2VzL2lua3NjYXBlIiB2ZXJzaW9uPSIxLjEiIGlkPSJzdmc2MTMyMyIgaW5rc2NhcGU6dmVyc2lvbj0iMC45Mi4zICgyNDA1NTQ2LCAyMDE4LTAzLTExKSIgc29kaXBvZGk6ZG9jbmFtZT0iYXp1cmVfcG9ydGFsX3dlYl9hcHBzLnN2ZyIgeD0iMHB4IiB5PSIwcHgiIHZpZXdCb3g9IjAgMCA1MS4wMjkzMTcgNTEuMDIiIHhtbDpzcGFjZT0icHJlc2VydmUiIHdpZHRoPSI1MS4wMjkzMTYiIGhlaWdodD0iNTEuMDIiPjxtZXRhZGF0YSBpZD0ibWV0YWRhdGExMTY1NSI+PHJkZjpSREY+PGNjOldvcmsgcmRmOmFib3V0PSIiPjxkYzpmb3JtYXQ+aW1hZ2Uvc3ZnK3htbDwvZGM6Zm9ybWF0PjxkYzp0eXBlIHJkZjpyZXNvdXJjZT0iaHR0cDovL3B1cmwub3JnL2RjL2RjbWl0eXBlL1N0aWxsSW1hZ2UiLz48ZGM6dGl0bGUvPjwvY2M6V29yaz48L3JkZjpSREY+PC9tZXRhZGF0YT48ZGVmcyBpZD0iZGVmczExNjUzIi8+JiN4YTs8ZmlsdGVyIGlkPSJmaWx0ZXJfMiI+JiN4YTsJPGZlR2F1c3NpYW5CbHVyIGlkPSJmZUdhdXNzaWFuQmx1cjYxMjk2IiBzdGREZXZpYXRpb249IjIiLz4mI3hhOzwvZmlsdGVyPiYjeGE7PHNvZGlwb2RpOm5hbWVkdmlldyBib3JkZXJjb2xvcj0iIzY2NjY2NiIgYm9yZGVyb3BhY2l0eT0iMSIgZml0LW1hcmdpbi1ib3R0b209IjAiIGZpdC1tYXJnaW4tbGVmdD0iMCIgZml0LW1hcmdpbi1yaWdodD0iMCIgZml0LW1hcmdpbi10b3A9IjAiIGdyaWR0b2xlcmFuY2U9IjEwIiBndWlkZXRvbGVyYW5jZT0iMTAiIGlkPSJuYW1lZHZpZXc2MTMyNSIgaW5rc2NhcGU6Y3VycmVudC1sYXllcj0ic3ZnNjEzMjMiIGlua3NjYXBlOmN4PSItNDUuMDA0ODE4IiBpbmtzY2FwZTpjeT0iMzkuNDkwNjM4IiBpbmtzY2FwZTpwYWdlb3BhY2l0eT0iMCIgaW5rc2NhcGU6cGFnZXNoYWRvdz0iMiIgaW5rc2NhcGU6d2luZG93LWhlaWdodD0iMTAxNyIgaW5rc2NhcGU6d2luZG93LW1heGltaXplZD0iMSIgaW5rc2NhcGU6d2luZG93LXdpZHRoPSIxOTIwIiBpbmtzY2FwZTp3aW5kb3cteD0iLTgiIGlua3NjYXBlOndpbmRvdy15PSItOCIgaW5rc2NhcGU6em9vbT0iNC4zMDY1ODM0IiBvYmplY3R0b2xlcmFuY2U9IjEwIiBwYWdlY29sb3I9IiNmZmZmZmYiIHNob3dncmlkPSJmYWxzZSI+JiN4YTsJPC9zb2RpcG9kaTpuYW1lZHZpZXc+JiN4YTsmI3hhOzxwYXRoIGlkPSJwYXRoNjEzMDkiIGlua3NjYXBlOmNvbm5lY3Rvci1jdXJ2YXR1cmU9IjAiIHN0eWxlPSJmaWxsOiM1OWI0ZDkiIGQ9Im0gNDEuMDE0NTI2LDQ1Ljc2IGMgLTQuNjIsMy41MyAtMTAuMDcsNS4yNiAtMTUuNDcsNS4yNiAtNy42OCwwIC0xNS4yNywtMy40NSAtMjAuMjc5OTk5OSwtMTAuMDEgLTguNTcsLTExLjE5IC02LjQ2LC0yNy4xOCA0Ljc0OTk5OTksLTM1Ljc2IDQuNjIsLTMuNTUgMTAuMDgsLTUuMjUgMTUuNDgsLTUuMjUgNy42NywwIDE1LjI2LDMuNDUgMjAuMjgsMTAuMDEgOC41NywxMS4xOCA2LjQzLDI3LjE5IC00Ljc2LDM1Ljc1IHoiLz4mI3hhOyYjeGE7PHBhdGggaWQ9InBhdGg2MTMxNyIgaW5rc2NhcGU6Y29ubmVjdG9yLWN1cnZhdHVyZT0iMCIgc3R5bGU9ImZpbGw6I2ZmZmZmZiIgZD0ibSAzNi4zMzQ1MjYsMjkuOTggYyAxLjg1LDIuNDEgNS4yOSwyLjg1IDcuNywxLjAyIDAuMTIsLTAuMDkgMC4yMiwtMC4yMSAwLjMzLC0wLjMxIDIuNDYsMS43MyA0LjE3LDIuODcgNS4xMywzLjUzIDAuMjgsLTAuNzQgMC40OCwtMS40NSAwLjY4LC0yLjE5IC0xLjAxLC0wLjc2IC0yLjM5LC0xLjgxIC00LjM3LC0zLjQyIDAuNjUsLTEuNzIgMC40NCwtMy43MiAtMC43NSwtNS4yOCAtMS43LC0yLjIxIC00LjcyLC0yLjc3IC03LjA4LC0xLjQxIC0yLjYsLTIuMzMgLTUuNDUsLTUgLTguNDYsLTcuOTkgOS4zNSwtNS4wMyAxNiwtNC4yOSAxNiwtNC4yOSAtMS4xMSwtMS40MiAtMi4zNiwtMi42NiAtMy42OCwtMy43OCAtMy45NSwtMC42MSAtMTAuMDcsLTAuNTQgLTE3LjA3LDMuMTkgbCAtMC4wMSwtMC4wMSB2IDAgYyAtMi4zMywtMi40NCAtNC43MSwtNS4wNiAtNy4xMiwtNy44NyAtMS4xNiwwLjM3IC0yLjI5LDAuODMgLTMuMzgsMS4zOCAxLjc4LDIuOTIgNC4xOCw1Ljg3IDYuODksOC43NCAwLDAuMDEgMC4wMSwwLjAxIDAuMDIsMC4wMiAtMi4yNiwxLjU3IC00Ljc3LDMuNjggLTcuMDksNi4xMyAtMC4zLDAuMzIgLTAuNTgsMC42NCAtMC44NiwwLjk1IC0xLjM4LC0wLjI5IC0yLjg0LC0wLjIgLTQuMTk5OTk5OSwwLjI5IC0yLjMxLC00Ljk4IC0yLjEzLC04Ljk5IC0xLjc2LC0xMS4wNSAtMSwxLjA1IC0xLjk0LDIuMTUgLTIuNzUsMy4zMyAtMC42LDIuNDcgLTAuNzcsNi4wMiAxLjAxLDEwLjMgLTIuMDYsMi43IC0yLjE2LDYuNTIgLTAuMDEsOS4zNSAwLjE4LDAuMjMgMC4zNywwLjQ1IDAuNTcsMC42NSAtMC45NCwzLjIgLTEuMzYsNi4yOSAtMS40OSw4Ljk0IDAuMjQsMC4zMyAwLjI0LDAuNiAwLjQ4LDAuOTIgMS4yMywxLjU3IDIuNzYsMi44OSA0LjI1LDQuMDkgLTAuMTgsLTIuODEgMC4wMSwtNi45NSAxLjc0OTk5OTksLTExLjYxIDEuMiwwLjA5IDIuNDEsLTAuMDkgMy41NSwtMC41NyAwLjY2LDAuNTcgMS4zNCwxLjE1IDIuMDcsMS43NCAyLjUsMS45OCA1LDMuNTMgNy40Myw0Ljc0IC0wLjEyLDEuMjQgMC4xOSwyLjUyIDAuOTksMy41OSAxLjcyLDIuMjIgNC45MSwyLjY0IDcuMTMsMC45NCAwLjQ2LC0wLjM2IDAuODMsLTAuNzggMS4xMywtMS4yNCAzLjk3LDAuODggNy40NCwxLjA0IDEwLjAxLDEuMDQgMC4zOSwwIDIuMjIsLTIuNDkgMy4yNiwtNC4wMyAtMS41NiwwLjMzIC02LjIsMC45NyAtMTIuNTUsLTAuODYgLTAuMTUsLTAuNzEgLTAuNDQsLTEuNCAtMC45MSwtMi4wMiAtMS42MiwtMi4xMSAtNC41NiwtMi41NyAtNi43NiwtMS4xNSAtMi4yLC0xLjIgLTQuNTEsLTIuNyAtNi44OSwtNC41OSAtMC40OCwtMC4zOCAtMC45NSwtMC43NiAtMS4zOSwtMS4xNCAxLjQ1LC0yLjI5IDEuNjEsLTUuMjMgMC4zMiwtNy43IDAuMywtMC4yOSAwLjU4LC0wLjU5IDAuODksLTAuODggMi4zNiwtMi4yIDQuNTgsLTMuOTYgNi42NiwtNS4zOCAtMC4wOSwtMC4wOCAtMC4xNiwtMC4xNiAtMC4yNSwtMC4yNCAwLjA5LDAuMDggMC4xNiwwLjE2IDAuMjUsMC4yNCB2IDAgYyAzLjE4LDIuOTQgNi41Niw1LjczIDkuNzYsOC4yMyAtMC44NSwxLjc5IC0wLjcyLDMuOTggMC41Nyw1LjY2IHoiLz4mI3hhOzwvc3ZnPg==;" vertex="1" parent="1">
          <mxGeometry x="600" y="402" width="40" height="40" as="geometry" />
        </mxCell>
        <mxCell id="SWwn75Fxxb8IVNRIEHbr-2" value="Static Web App" style="image;aspect=fixed;html=1;points=[];align=center;fontSize=12;image=img/lib/azure2/preview/Static_Apps.svg;" vertex="1" parent="1">
          <mxGeometry x="415.93" y="405" width="44.07" height="35" as="geometry" />
        </mxCell>
        <mxCell id="SWwn75Fxxb8IVNRIEHbr-3" value="AI Search" style="image;aspect=fixed;html=1;points=[];align=center;fontSize=12;image=img/lib/azure2/app_services/Search_Services.svg;" vertex="1" parent="1">
          <mxGeometry x="780" y="267" width="55.37" height="40" as="geometry" />
        </mxCell>
        <mxCell id="SWwn75Fxxb8IVNRIEHbr-4" value="Storage Table" style="verticalLabelPosition=bottom;html=1;verticalAlign=top;align=center;strokeColor=none;fillColor=#00BEF2;shape=mxgraph.azure.storage;pointerEvents=1;" vertex="1" parent="1">
          <mxGeometry x="600" y="557" width="40" height="30" as="geometry" />
        </mxCell>
        <mxCell id="SWwn75Fxxb8IVNRIEHbr-6" value="Microsoft Azure" style="image;aspect=fixed;html=1;points=[];align=center;fontSize=12;image=img/lib/azure2/other/Azure_A.svg;imageBackground=default;" vertex="1" parent="1">
          <mxGeometry x="310" y="195" width="37.64" height="35.49" as="geometry" />
        </mxCell>
        <mxCell id="SWwn75Fxxb8IVNRIEHbr-8" value="Azure OpenAI" style="shape=image;verticalLabelPosition=bottom;labelBackgroundColor=default;verticalAlign=top;aspect=fixed;imageAspect=0;image=data:image/png,iVBORw0KGgoAAAANSUhEUgAAAHgAAAB7CAYAAAC/8ER8AAAAAXNSR0IArs4c6QAAAARnQU1BAACxjwv8YQUAAAAJcEhZcwAADsMAAA7DAcdvqGQAAB7jSURBVHhe7Z0J3FXDG8ePNQqpyJL2iCjZqVBR1sq+tQgfKmSNZMseEUXpk53slSVk31KKspQSqSyhVBJKyXL+853/fa55551z7jn3nnvf+771+3ye99z3nJl5Zp7f7DNnzjq+grcWFRbrpq5rUUGxluAKjrUEV3BUCILNbgS/RUysqV2NClOChdR///03TaZ5b01FuelFSzTXWWed9O+VK1d633//vffjjz96c+fO9ebPn+8tXLjQ+/XXX/XzKlWqeLVq1fLq1KnjNWjQQP9GKleurJ8LCLOiotwQ/M8//+jrzz//7M2aNcsbNmyY98ILL3irV6/WhJvEuyDPIf2ggw7yevfu7TVr1syrVq2at95661VckiG42KHI9b/77ju/U6dOviJDiyIENvVVfovY92y38v/666/vt2/fXoeNjoqIoib477//9r/55hu/efPm/gYbbOCvu+66adKSECGbsHfeeWd/5syZmuiKRHbREvzXX3/5Rx11lF+pUqV0iU2aYBEheqONNvI7dOjgqzY8FYvyj6IiWPV2dekZN26cv8022+SN0CCRTLT11lv7TzzxhM5k5b1EFxXBq1at8vv27avbRilVLiLyKeikxthwww39c8891//jjz/KNcFF0YtmnLp8+XKvZ8+e3qhRo3SPOShaioASV9ypUudVr17dq127trflllt6G2+8sX6uMoy3aNEiPXyi9y3jYZ7hL0rSO3bs6D388MPeZpttpv9HFwjzK3ErCqiIljl+++03//DDD9clhypSGUiXJpfwDFHDHf/AAw/0Bw4c6H/xxRe6Q0ZJo5qXql5+8+yrr77yBw0a5Kshkr/55ptHrv5x16ZNG19lkHRJJkxK9u+//+7/8ssvus3mf/SITqQYUKYEYzCq5SOPPDJjdSzEqxLqX3jhhWmDZgOIufzyy9PtvEhYHA455BD//vvv9zt37qx73GQw8zmZs2bNmn7Lli39Sy+9VPcj5s6d669YsUKTTVol0xUSZUowBJ144onaQFIyTaOZQm+aNlFKSS7GEv+rV6/2+/Tp46sqPSPBPAurYcz4ixuEtvzss8/2v/76a52Z1wiCJTffc8892mi2sRAxEFKnTh1dxeInH/jpp5/8HXfcUetyxSUJgfStttrKf+yxx9Lph2x66vkkvcwIpt2qXLlymkSXUZCTTz7ZX7ZsmS652VbJmUB8Fi5c6NetW9cZh6QEksnQZFjVcUvXRvlEwQkmQVRVTZo0cRpBBGNcdNFFJaq1pIxBOFKKkBtvvFG3n/kswaagh/Ttvffeup2GaIlL0igowRgWeeGFF3QCXYlHMED37t39P//8M+UzWVAtYtRnnnnGb9q0qY4LUiiCRSjNdNYGDx6s01ruCSYBDCuqVasWaEwMvc8++6RzdRIgHMlc/J4+fbpeuDBJ5RpGsP3MzKCmX/saJuIGok899VQ9XEya5IJOdCgDe6NHj/ZUzzl1pyRUgj1VVXqzZ8/WEwtEjXu5gnAQ1Zny7rrrLu+WW27RExYqE6VcBAN3xIG416hRw9t+++29+vXre40bN9Zx3WSTTTxVI3hLly71VE/ZU51BfUWAIkzrDoPoaNu2rff444/rtKved+ppjlDKCwbGrkEdGXIzOZnOR9K5ePny5f7IkSP9qlWrxqqOcVO9enX/sMMO899444303LTUBogNniN02q688kp/hx120OkirCCd3Jc4UXvRqXSFnQ0KSvD48eNLVG12ApkxCjJcNoCQGTNm+PXq1XPqtUXiASFkBsbIdPIIJxuQDpqaqVOn+jvttJOeYydsl24E/Txv3bq1HqPjN1cUhGAh7cwzz3QamnvI22+/nbUxbRDOXnvtpScaxHC2XpcQjxNOOMFfuXJluibJNsNJaUYg67XXXis1A2aKZC6uzO6J/lyQF4IxCJH79ttvNalUyyQMQ7sSxv399tsvpxwrRqQZoOSpttGpyxT0imBUhi0yr50PEMfFixf7HTt21BnPFScRNiE8+uij2k8uRCdOMCVn+PDhfrNmzXQko5QcjKs6P1mXFIDfRx55JF0dIy5dpgi5zEk/++yzOnNIRskHsA1hUztcf/31zjghkuEoFKrzVrYEi0EYx40YMUJ3KogckXRF3iVkAuZq4xCMTqkpJkyYoFeWCCeKXiGWUnTTTTdpI+aSueICXdiL1S3aZVccRVi8yGU+IBGCJ0+e7Ldo0UIbOJvFeko74cQxMu6///57//TTT9dESaaKohf3Xbp00fu9RG8hCSZzirAyFlbbkB76Jtkia4IxDD09cqHMKbsiGCbih0RmIphnuMEoDHuGDh2qV4Gi6MUNRiQDMgx56623dDhlDUkTo4egWo/7auydXnaMi6wJZk2V8aEYLhuCEfyzzpqJYJ7Thr355pvpdVypLVzhmoLbbbfdVvcNRE82xkoaEgfGvewDc6WFe8jLL7+s4x4XsQlGCRFiRQTD2RFyCe5cbok491kcz2Rw9N57772lwrBFwhR91C6sx9KxyQaSIbhSY5GxZQiV1JCO8O++++7Q5q1Vq1ZZ1TqxCWYuebPNNguMiEuC9jRLGO+9915GglleZFurHYYtEia1yq677qq32kAMhGQD4oX/Tz/9VGdqSGDzwQ033KA7P5niHQXEDWGYJvG304X9pk2blvIRHZEJJvcwGd64cWNnBEwRA0PIAw88oHupNWrUCHRLJy0TaDddmUREDINQ3WEMITUbEvCDf+JOD93u7RIXFvCZvMCtuM+F8CeffFLbzdQjQrpY1hRdURGZYKojBugockVAhOfk8DvvvNNfsmSJ9kfCwwj+4IMPUlqC8eqrrzr9i2BwNtORoWQ8my0wIGGcddZZ/qabblqKXNEHGQgjiFmzZulCkItepkUZx7tszD1m5hInmAgj7F4kUUHKEZ6zvvrZZ59pYiUySBIEm7r5jXG50gScd955/vz583Vc4xoB4B6/VMe09dttt50O29RpitwXN0xK9OrVSzcJEpaEGxW47d+/f6BOMtqPP/4YK8xIBH/44YeBU42SQMjt2rVruvRIAgERypXgV155pYR+KUH05JnMl9ITJ/EC/JEh33nnHd2ZkYxj6sskYoNatWr5w4YN0+HFLdHEnf4I4QTpGDNmTMp1NGQkmI4EsykodSVYEkYJIoKmCPidK8H0tG1/tPH0aE2dUQxqukdmz56tF9ylFyvhy1XSLmLGwxRxx5UOHmSZNVkm4IbOJON7V/gIJTxKWIKMBLPzkQi7lCE869Gjh05IEDA666ou/xgkKsG2cSE4m2k84iOdxjvuuEMPpYLSiE5qr1122SXdiw8j2RRqAmbMmIaNWpIhj4WXIB3sy06MYIzQsGHD0MQzM0TnALdBKDaC8cP8NcSRNsIVMcNHGDV8+eWX2qiTJk3yGzRooImz3bkEd4SPkJGYjQoDdkKoDV1xQdq1a5cMwSiiJyztka2I6oxnZscmCGVNMHFDqGWYv2bqz5VpCZ/7pIuwyQT4If4C/mfVStaZ7TBcIu7YRPDuu+/qjhxigzii6/bbbw8Me/fdd0+OYEovilzKMMSLL76Y7kiYRrDBs7IkmDgyf80ea1mYcBGM8JxJDNwTb/yaBpXMwoTPOeecExiOKWJDhPD32GMPf8GCBakQ/4OE/eCDDzrDQdigH2ZrG4EE8yZB0PiPiNImmXuWw1BWBEvmgzAmJUy/iBhdCOc1mnnz5kUyoJDP+PeAAw5I13RRCafdZ9RBJ5FwJCMh1BDizvZLk5EIwcccc4wzstyDeNolFBUrwcTr+eef1xkxyOgS3p577qmX5MTIUQwopOCWapu93rIWbuuxBb0iLJyw2YF0CMHMS4s72y+98yg2F5QiGM8oY1bIpUAiReKiohAES2YjXp9//rmedQuaAxchPEpe79699awbYUg4cYE/hjg333yzTqvojUI4bug5s1JG/K+++mqn7RFqC3RFhZNg2pcg43CPHmEcEKF8E0y8adcuu+yydDuL+yBDIfIMt2Ra2j5ZKYoL9OOP0sxsU7du3QI7qLagH7fUjIzH27ZtG+jvuOOOy55gIomMHTvWGTiCUWl74yAJgl966aUS/jAK7RiE0CGi3dpiiy30fdOduEWP7BGT/2133Nttt910fKT6FZtkA7bsskLE3HwQYXGEMC6++OJYBDuPMnz66adTv0pD5fTkdt3nCGV4b+bMmZ7qlXrdu3fXbxeoNKWelkTdunX1wWkDBgzQh5+5oIj3pk2b5rVo0cJTPW5v8eLFWke2UD1e7/333/fuv/9+bTdFUM5vajRp0iReGP/n+T+Qc5lo55FLmKuNk4NAPkpwmJg9Wqo9Oi1UnQJKPEc0UaJxZ4od1pAhQ3SNRRriptsGb/5L04fYusJE0kOvPU6NUqqKJjFhyi+44IKiJlgMAcmnnXaaXt0h0yIC0kmcmPSglx1ELkJYHBvBYodrciIOpH0+4ogjAvUFCe6ZlyDeZloyoVQJZjtOkHLu33fffSmX0ZFPgvGPQIT83nfffUvk9LAcj9FZimTPFmFIOLYeaoL9999fL0yQHsIMCzcMZBRW6GTbk8Tb1mkKGZbCZWfWTChFMDk+SBn3MXRcFIJgDMA8MWNfetbojAqIYuRw22236flpwnLp4T5vTLARgL1ZZrUfB8QNobakc4htINrWaQr62QzAVt+cCGY86EqgKCG3x825+SAYf1Li2CPGbJW8lRe3dJl+WPlhrzXhmyJ6pcQxM8YEBaXR9B8Fpnvkhx9+0KtE2N3WJyL36QNFnUEEpQgmJ7sUiBLVw45VOkBSBJvxwhgIhuEdKHSIwbIFfgmHkql6v9qYkonMOCNCNLNgvFoqRMe1DZBql85g0MYKEdIs/aAoukoRzBppWAlm41fcROA+aYL5zWybOcWXKyQcBINzZU9WGMEiLGQwf2+GERW4FcLozDGeN9Nq62Uugl0sUXSUGgcrz57qUKT+Kwnl3ps+fXr6OL9CAt02uKcMkcj4EphhqUyu76FDGVL/NsE9nok8+eSTnuqRewMHDvRUIdFv/UcF+rApVw4rHzNmjObBZWf0qipaj9PRmwmlQlDjNK9p06ap/0rjs88+y2nwX94hZLgAqf369dOfEJg8eXLWdmrZsqU3duzY0II0Z84cfRxGJpQKgUh16NAhnaNsMLtTDJCSU2io4ZQ3adIkr2rVqqk7/wdxkVJNCea8Dc7yUB2oSOd0AOxN7Ynt27Rp4/Xo0UPfc/EAevXq5akmKtQWzixy/PHHB3piOnDGjBmp/9Y8YBPVsdIfA3nggQcCp20hlVNuma7s2rVr+kMhcUB1HzStCulkJNV/Sf/vhIpwKbD1lYZc5SQYLiEqIH0ybBzQeQhacGcCgW2m0pNUpcDZeWD3CO5N/4xJc51dCgPxsE8KYNWJ9Eg8+d4Dmw7NFSzTPcJ9JlLYW04PPSiNLtCbD+r0IoyNpQfvgpNgDM0siyuy3CPRjMWigvDYQGCHRcJFDj74YD27I8azUWwEy3PSxv8QIa+Bmu4R4o2QmTnOOM6bF4TPPiw7TBHCJZMFwUkwCNv4xX3WhFEeBRiCl7dkOjAoXDlRljliDGAawSaY32VNsA1K50MPPeQ3atRIk2n6Q4gzwqJDVIIBQ6egUow9eV0nCIEEU0IZZ7oCRUgAB4q4SpsNEkPimZDgoxdE1kUy94gwRmU/NtOBArbEmH74XUwE45b7CPGmGTP9IcQZYdtNVIJxR0Ei05jpN8NksiWIh8B+OMOl5s2b68ZbGT119z+oAL3rr79edzr4zTUI+Kd3yPCB7r+qivWXyLjHeBMdQMJavny57kHSQZkwYYIefvBM3IEoegsJsRPXKlWqePvvv3+J+ALiitDzjQrCxEaEF4SPP/7YW7ZsWeq/kggkmIgMHz5ckxBkRI4FHD9+fOq/6FBtij7yb8SIEfrYPtsQgHt8so7hAkOOJUuWpJ6smTjppJNSv0oDflQ7nPrPgnoYCr4MpoydrhJsYduMrHBIFRUVuKXDQbuLDqpnri59PLPvoVv2ZOUDVHtx2mCAH2TAgAGBdou7txmwScGOiwi2YSrXFWZgCRYMHTpUT5sFYeXKlV67du30mEyFl7obHYwjBw8erGdmVE/aWZoB1bGNbPSVV8ABTZwNqnBsw8c5sZ1tk4wE01byIUcCCjI+5LRu3To9y4USFyE2CI/2hbDRo3rK3rhx4/T+KdEnYoN7uFG5VusTyQUSbxGBS3+hQVqxiw3iSfyYMXMhI8F4vuqqq/TGNpTYEMOyCNGqVStv6tSpWmkUY4vh5Ep7T23ARrohQ4ak22d5boNJd2aJyGAgyF1cEP+JEyfqzXeqCUks3FyhRjWpX6XBUcmgVFwVEaFQidV1O4dos7COFxWIvprCPYR2gjGyzK7EaWtwb8qiRYv0WZfyvqypV/QhPOczOfJ2vYQVFaKPuHLEPq+USNi23rJqgwmTPWau8NDDaze4sZGRYAHjWCYbZCeiSxHCM8a5nCfB7A7+cgH+p0yZoo/YZezt0omgl4kUvjnIGD6OXoxN5oAUMgvxd+lAypJgNtPbYaEDOeWUU3IjGM/05MImPxBRiJFUla4jxSumotwViTDgHmMgo0ePLrGl1zSg6EX44Aen7OBXJAhkBA4ZgzjiLGFIuLaUJcGu6V6JL6/fuNKasQ0WKI/eF198kXFVRIWpRSVAX0eOHOnVq1fPGzRokLdixQp9Pw5U5HXbj6gE6t5i//799WQCzwSiF/CFcMbaRx11lO74cV8N4/QzIG7pmPAV8COOOMJbsGBBiQ5bvmHGPQqIU9hSrcp4+loqXOUxEshxbJklt+AtiuAWoSRzZdsO50rlAuJBqWP8zAKFHR/RJzqp1q+77roSVTZv2suZzaZ/OyyXJFWC7ZKWCeikCXKFh3DGlitesQhmg5sr8KiC0TE4c7G8KCaTI3ETK8Av7/9wXL4Q6mo/ecbpN0899ZResiOjuYwvzQrCies0LcUy0cFuT1cfRNJMf8eFWASzs95WEEfEeESKlSM2qpk93zggPgiZhNIMeaw5E76tV4jDQKLfdoNwn8zHWRyEi0CwGWZZEXzrrbcGZl4kaMkwMsHsOaYHbStAUMxpMnL2hYjLrSn449hBIg9JYlQkLjAYwyo1Zk8vvrt02gIJuIU4Tr0lHmJ8iCrrEow77MFxiq40oQMbBo0aIhPMUl+QAoQhFFtu2VbLYSOu3GaLGBfhUHCWBEkQBooL/Inw3QU+B+vSaQs7V3glk6VPMwxQLASTcdm+6wqPe5dccknKdWlEJpi2zkWwKPnoo49SLn1tLAbeVMNCYFBiTcENnR+OQsRIcUoy7jEGa7F0BtlAHqSD+JABOSVP3jVyoRgIxgY9e/Z0hoPQ7ISdQhuZYCYbgiLMfUoNkAQyk4ViJjyIRJBfWzA+GYOPSpFRooIqiu8y0UxAniszCrkYmOMSiGcmssqaYHr8QacEItRA5sYIG5EJpoS6Isw9hLf5gkAHiFcwxcB2GEFCm8/ZjLSLLjIglRzOK5mHHnpooEHRidB08IJZVJQVwZJW0sY3nFzhcI+MfO2112q3+HEhMsEcbBKkCAl7/QQiEA4XiUMwQiKYvZo5c2YJo5B4EsV7OlJDiLjC4IUypjDDDGuD8MuSYJoP4o7YYWBHSq9k/iBEJpgxoYscMeqoUaPSiQsCpPAmnbkvizCDDCHCc3rGbD6QF7qpFTC2yy/3JHyaCAyFn7ggLYUkmHsIzRvppMZx+UcI+6STTgq1N4hMMG2B6xRUFCF8f0giGARJPKWZU95JaBSCEdzglk/T8la+EGj7lXtyGjs7PiA3LF5BIK6FJBh/xJU2lTNAXQVKhHY5rO0VRJ6LVuR6DRs2TP33H1QY+srhJUAlSl+DwHNFjqdKlt4sds8993iqfdZzzTwL868MoDeX8WaFMlBat/gjDNaQVTur93yxtszmQQk7KggXXVwR/CcNMz6iB6gqV79YxhsLcs8EcUH69OmjOckIFUgkkOPYO4UXU1REtfB9QkpmnJJCbkV++ukn/Tl3OdaX8Gw9QSLu6XnTzspRhNlUyQC/lHqWHeV4fTM+SZVg3Aj4TXyZvmXoFpZ+0kvpxr0ZRhBiEUw7ixI7AmKEiRMnRlIqwK0IEaYnLt9ikjBNPabwDHcIB5YzF2uGh0SFuCeNvHcrixiiw9SbJMEIIDw6qdznucufxId3hxmSmv7DEJlgAqMnLcZ3RYDFiLDEZwI6IJpjIjh0U9pZWw9CPGrXrq0/KB01N9sQI+GftymYUHDpNCVpgjlRgeMn6BGH6SW91FIjR46MZeNYBFMF169fPzAi5K447yy5gLFJAFdWfuhJmvr4TVXOAre5LSibjIVfhhl8EY0wCTvMyAirUkkQzNw+IwE6cbgLKjgizAlgD7FPVEQmWMAXSexqS4T7fHkEw2djcBcIi/Mbyb0kkhPPOb4wF0iGYPo1aOnQFtwgDNUgMAyEfcUVVwSGSzqE0Ci6Gedfc801We0Bj00wVRnVmCsiRJotPWztSYpgcizCME3CzTVsOjN8/ifuFCqlnGYqjGApwTRXQWETFuJ6ZguZgZP3sy00sQnG2BwD6IqMCAeRUZ0XC6R3z2rXGWecoVdmXPF2CZkZ4RC0sOlYE+giA7nCiyJkDDIAkzuc+5WLLbMimLlfcn9Q5DDI4MGDUz7KHsSZUsCUJ/EW0lzxtwU/fB1cTmaPAiYgIMcVXlShnWaxhsxSUIJF4dFHH52xmpEDrgsN4ohervTIeb0yCqFkTsmgLDfyGXZKfaY21wRuOU4pahWMSIlF6HSxaYEmKYlaMCuCSQQRCDr7SoSuP18ZKTQgl/lntgRJOxuVYDpzzPHS15CqPS7BbO+NSzC2YuWIZkAyJ5IrYhMsIBJ8hRvDkRgi6Yo4BmO3hxgrXyVaDMIkPbtKohpYyCcjUNL5WlkuhsUvm/Rd+tEltpLfbLdh0zpvVOSiNwhZE0xOhTRz5slOkCQKAzKGM/c7JQ3aSE6q5/UayArqI5iCG+Jes2ZNffSCOa7OFnysRAi09XGPDM9kCed5sOFeljCl1CaNrAkWMDaTr6OFEY2wvZX9RZIYucapAgX4wT+ZjNzPTo4w3bbglo4Qc+AQmyskw/fr18+pD0Hnc889l/JRGORMMAljzy4lJ5OBKTG0NRyITU8TgrIll4zBybhUh7KLMirBxINv/i5cuFCTkgSIEy/CS+/ZFRdKbjaTFbkgZ4IBieMIJHO6L8zYPINo2jyqRpnAEMJFJGy54oaMwdQiuzCjDkXM2oUzpVkUSYpY4iQSNLlBE8X9vn37aneFxDr8UZHIGQQzZcoUr3379voQFf5XpKSeuqGMrq9qaKBfAOcdpsaNG3tq7KnXdQmDkwM4MU71ij1VU3jz5s3TpwoQdtSoo4d3a1Xny+vSpYt+rwkoo+trriAuo0aN8rp16+ap6j519z+gR9Ua+r3nRo0aJaY3EpSREgOljE6G+SoJgpowCXIj/m1xuXUJbik98nVw4ieSKyiJEhbjXqrfoLgRB9bSk9IdB4kSDEgA1ShjOplUdyU6n4JO2lnWdWU2KOmqkfBoUpYuXaqXNsMyHk0XGxHKAokTDCR3s1bLmm2cUpeLoAdy6VHLyfQSl3//TYZgKYWQy5ib2gq9rjTKfaZtk85gUZEXggUYgrEvH7GQdV2XIZIQwoXcTp06pUnNByAWYeTA+rcrLiLEicyW5OpaXOSdYIxB4qi2WaRnZ2Y+SIZcEdakc914EATGzExQ0K664mEKvXwZ9+crw2VCXgm2wdAEonk9k69t0k5KqZYSKFfTUOZ9DIs/87kpuMMN22ZpfyWD5VKCCIO4szmQt/wy6SeeDAN53aesSq6goASTi0kwBkPooDC5/sgjj+gdkbyba38EA7LYA8xOwvPPP1+7xXimUW3Bv2SG5s2b+6+//rrWlw3wR3V87LHHpqdBzfjZwjPcME+fa8ZKAgUlOBPIAFSBlHL2LPE9Xlk24xnC708++URX9VIDuAxtCkTz8WaOIWL5kDAhTsIUIuQ3Ojg2iqOZmIzJlKEQqTmQbL5Mky8kNtGRNJSxS0wIyG9lOH1V4219SKlq48ik+l4QlNFLuGHDOMcCMqHCkfmqrdQn2jJBw2EsTKyoHrJ2iz90E58wqJLrVapUSR/Dz7cUAHrLHBBcHkEJZG8V3+elWoxSkvMh6EU/y368CVksJVdQbgmW6pQqnV5zlGo0H0KVTIdxzpw56Wq+mFBuCRZgUISXv2WzPIYP6wjlIlJbcGVHC+8bSx+hGFEhCAaUHoTjG+jtCtFJC+RSW7Cth2ZC9BYryj3BLjB7xmSEfANQSh0iJJn3TDHJNN3wm547h6rRyy8vKNpedLaQ5KhSpXu+fBZAka0PNucoRnnOVRGnf9vgmfS8a9as6XXv3t3r3LmzXs6kB67ILuySXw6ocAQDIc9MGr8Z+jAE4qtlnDEN+Zz/uGrVKr1eq0q8p3rDem2aYVStWrX0p+xkuCOkSvjlARWS4EygZJtkmZD75YXATFgjCTaTDJH8bxJq/1+esUYSvCYh+cMn1qKosJbgCg3P+x9h4PS4+AWNeAAAAABJRU5ErkJggg==;" vertex="1" parent="1">
          <mxGeometry x="930" y="262" width="43.9" height="45" as="geometry" />
        </mxCell>
        <mxCell id="SWwn75Fxxb8IVNRIEHbr-9" value="Storage Account" style="image;aspect=fixed;html=1;points=[];align=center;fontSize=12;image=img/lib/azure2/storage/Storage_Accounts.svg;" vertex="1" parent="1">
          <mxGeometry x="520" y="511" width="32.5" height="26" as="geometry" />
        </mxCell>
        <mxCell id="SWwn75Fxxb8IVNRIEHbr-10" value="GitHub" style="shape=image;verticalLabelPosition=bottom;labelBackgroundColor=#ffffff;verticalAlign=top;aspect=fixed;imageAspect=0;image=data:image/svg+xml,PHN2ZyB4bWxuczpjYz0iaHR0cDovL2NyZWF0aXZlY29tbW9ucy5vcmcvbnMjIiB4bWxuczpkYz0iaHR0cDovL3B1cmwub3JnL2RjL2VsZW1lbnRzLzEuMS8iIHhtbG5zOmlua3NjYXBlPSJodHRwOi8vd3d3Lmlua3NjYXBlLm9yZy9uYW1lc3BhY2VzL2lua3NjYXBlIiB4bWxuczpyZGY9Imh0dHA6Ly93d3cudzMub3JnLzE5OTkvMDIvMjItcmRmLXN5bnRheC1ucyMiIHhtbG5zOnNvZGlwb2RpPSJodHRwOi8vc29kaXBvZGkuc291cmNlZm9yZ2UubmV0L0RURC9zb2RpcG9kaS0wLmR0ZCIgeG1sbnM6c3ZnPSJodHRwOi8vd3d3LnczLm9yZy8yMDAwL3N2ZyIgeG1sbnM9Imh0dHA6Ly93d3cudzMub3JnLzIwMDAvc3ZnIiB4bWxuczp4bGluaz0iaHR0cDovL3d3dy53My5vcmcvMTk5OS94bGluayIgdmVyc2lvbj0iMS4xIiBpZD0ic3ZnMTc1NjcxIiBpbmtzY2FwZTp2ZXJzaW9uPSIwLjkyLjMgKDI0MDU1NDYsIDIwMTgtMDMtMTEpIiBzb2RpcG9kaTpkb2NuYW1lPSJnaXRodWIuc3ZnIiB4PSIwcHgiIHk9IjBweCIgdmlld0JveD0iMCAwIDQ1LjI3IDQ1LjI5IiBzdHlsZT0iZW5hYmxlLWJhY2tncm91bmQ6bmV3IDAgMCA0NS4yNyA0NS4yOTsiIHhtbDpzcGFjZT0icHJlc2VydmUiPiYjeGE7PHNvZGlwb2RpOm5hbWVkdmlldyBib3JkZXJjb2xvcj0iIzY2NjY2NiIgYm9yZGVyb3BhY2l0eT0iMSIgZml0LW1hcmdpbi1ib3R0b209IjAiIGZpdC1tYXJnaW4tbGVmdD0iMCIgZml0LW1hcmdpbi1yaWdodD0iMCIgZml0LW1hcmdpbi10b3A9IjAiIGdyaWR0b2xlcmFuY2U9IjEwIiBndWlkZXRvbGVyYW5jZT0iMTAiIGlkPSJuYW1lZHZpZXcxNzU2NzMiIGlua3NjYXBlOmN1cnJlbnQtbGF5ZXI9InN2ZzE3NTY3MSIgaW5rc2NhcGU6Y3g9IjMwLjE3ODAyNSIgaW5rc2NhcGU6Y3k9IjMwLjE5NDMxOSIgaW5rc2NhcGU6cGFnZW9wYWNpdHk9IjAiIGlua3NjYXBlOnBhZ2VzaGFkb3c9IjIiIGlua3NjYXBlOndpbmRvdy1oZWlnaHQ9IjEwMTciIGlua3NjYXBlOndpbmRvdy1tYXhpbWl6ZWQ9IjEiIGlua3NjYXBlOndpbmRvdy13aWR0aD0iMTkyMCIgaW5rc2NhcGU6d2luZG93LXg9Ii04IiBpbmtzY2FwZTp3aW5kb3cteT0iLTgiIGlua3NjYXBlOnpvb209IjEwLjA5NTE1OCIgb2JqZWN0dG9sZXJhbmNlPSIxMCIgcGFnZWNvbG9yPSIjZmZmZmZmIiBzaG93Z3JpZD0iZmFsc2UiPiYjeGE7CTwvc29kaXBvZGk6bmFtZWR2aWV3PiYjeGE7PGcgaWQ9ImcxNzU2NjkiIHRyYW5zZm9ybT0idHJhbnNsYXRlKC05LjU2MjU0MTcsLTkuNTYxMzEpIj4mI3hhOwk8dGl0bGUgaWQ9InRpdGxlMTc1NjU5Ij5QYWdlLTE8L3RpdGxlPiYjeGE7CTxnIGlkPSJncm91cDIyNTAtMSIgdHJhbnNmb3JtPSJ0cmFuc2xhdGUoOS41NjMwOCwtOS4zNzg2OSkiPiYjeGE7CQk8dGl0bGUgaWQ9InRpdGxlMTc1NjYxIj5HaXRIdWI8L3RpdGxlPiYjeGE7CQk8ZyBpZD0ic2hhcGUyMjUxLTIiPiYjeGE7CQkJPHRpdGxlIGlkPSJ0aXRsZTE3NTY2MyI+U2hlZXQuMjI1MTwvdGl0bGU+JiN4YTsJCQk8cGF0aCBpZD0icGF0aDE3NTY2NSIgaW5rc2NhcGU6Y29ubmVjdG9yLWN1cnZhdHVyZT0iMCIgZD0iTTIyLjYzLDE4Ljk0QzEwLjE0LDE4Ljk0LDAsMjkuMzMsMCw0Mi4xNSAgICAgYy0wLjA3LDkuODksNi4xNSwxOC43MywxNS40OCwyMi4wMWMxLjEzLDAuMjIsMS41NC0wLjUsMS41NC0xLjExYzAtMC42MiwwLTIuMDEsMC0zLjk1Yy02LjI5LDEuNDEtNy42Mi0zLjExLTcuNjItMy4xMSAgICAgYy0xLjAzLTIuNjgtMi41MS0zLjQtMi41MS0zLjRjLTIuMDYtMS40MSwwLjE1LTEuNDEsMC4xNS0xLjQxYzIuMjcsMC4xNiwzLjQ3LDIuMzksMy40NywyLjM5YzIuMDIsMy41NCw1LjMsMi41Miw2LjU4LDEuOTMgICAgIGMwLjEtMS4xNywwLjYtMi4yNiwxLjQyLTMuMUMxMy40OCw1MS44MSw4LjIsNDkuODIsOC4yLDQwLjkyYy0wLjA0LTIuMjksMC43OS00LjUxLDIuMzItNi4yMmMtMC42OS0yLTAuNjEtNC4xOSwwLjIyLTYuMTQgICAgIGMwLDAsMS45MS0wLjYyLDYuMjMsMi40YzMuNy0xLjA0LDcuNjItMS4wNCwxMS4zMiwwYzQuMzItMyw2LjIyLTIuMzcsNi4yMi0yLjM3YzAuODMsMS45NSwwLjkxLDQuMTQsMC4yMiw2LjE0ICAgICBjMS41MywxLjcsMi4zNywzLjkzLDIuMzMsNi4yMmMwLDguOTEtNS4yOSwxMC44OC0xMC4zMywxMS40NWMwLjgxLDAuNzEsMS41MywyLjEyLDEuNTMsNC4zYzAsMy4xMSwwLDUuNjEsMCw2LjM3ICAgICBjMCwwLjYyLDAuNDEsMS4zNCwxLjU2LDEuMTJjOS4zMy0zLjMsMTUuNTMtMTIuMTUsMTUuNDUtMjIuMDRDNDUuMjcsMjkuMzMsMzUuMTMsMTguOTQsMjIuNjMsMTguOTR6Ii8+JiN4YTsJCTwvZz4mI3hhOwk8L2c+JiN4YTs8L2c+JiN4YTs8L3N2Zz4=;imageBackground=default;" vertex="1" parent="1">
          <mxGeometry x="928.9" y="10" width="45" height="45" as="geometry" />
        </mxCell>
        <mxCell id="SWwn75Fxxb8IVNRIEHbr-12" value="Deploy Frontend" style="shape=image;verticalLabelPosition=bottom;labelBackgroundColor=default;verticalAlign=top;aspect=fixed;imageAspect=0;image=data:image/png,iVBORw0KGgoAAAANSUhEUgAAAMEAAADVCAYAAADuBZQRAAAAAXNSR0IArs4c6QAAAARnQU1BAACxjwv8YQUAAAAJcEhZcwAADsMAAA7DAcdvqGQAAEFdSURBVHhe7Z0HnB1lvf4fBNJ73xRCSE9IhRBqSCAUKYKCXFCx3ytgQ66K3mvBelWsCAJ6wXb9I0gTKQESSEiDdEhMSO/ZbHqnSPk/35k9+SzLzGl7zu7Z3Xk+mZyzM3OmvO/v+ZW3/N4j3jaUIEEjxnsqPxMkaLRISJCg0SMhQYJGj3oTE/CQb77lT395yxvf+WTjIJ8cO8J/HmFqw+4j/Md7+F7l80hv7E+QIIWSJQEP9ZYFHWFn2/+qVHFQ2nHIn/ul9XukzQekfa+H255/SYe8NT9SatMk3FodLXVvJR3bViprLXVuKXXx322aSUf7PIiRkCJByZHgTT/Nm29KB16TNljQl++Q5m6WXqiQlln4d5oMsrCncJQF+D3+zdFVBPkNb+aN3vD+wy93lNTEwj/cZBjbWTqphzSki9TbBGnXvJIQmI8EjQ4lQQIeAG3/qoV7zS5p1nrpsdXSDBNgjzX/kT7BsqujLKRs+chqyo163dsBb/DoaAv/2SbEecdK4/pIx3XwfZqGblNiHRoP6pQE3Bjh3/uKNHOD9OAyacomqdxuT2sLoRV3oKGLBUjxmu+/z9+7tjAhbB0uGmBCmBRd23injydkaPioMxIg/Dst7NPWSn9ZIj27xRrf6rmJhR4/vbYBIV71Mx1lt+n0Mun9g02KflIPyJAQoUGjTkhAkDt9nXT7PLs+5RZ6xwC4OaUgaxTGG5VkGNtVunK4dK6tQ3u7TgkaJmqVBP+ysC/bJv1hgXT/CmteB7+lIvzVQaFgHTo4Rjjb7tFVo02KXnVjpRIUF7VGgt32+x+1z//rOdKGvWFwm4+/HTys/7OyDjS2eRV8Zz9vwjW57JHegv4Bb3wPblV5LFfwrP3sFn1gmMkwSurk+CFBw0HRScDF1+6U7ppr339p2AKUqzYlfnjNFzKPdLTdlGbejmkp9bFgdrKb0uLocGtiacfavPJG2Gew0z/YQJ+CY499/vtNbz5NzSzVNK3m9Bi+f4cmtgp9pE+eIg23q5SgYaCoJHjdAjl/o/SLWdLMTRZC3ylbAiD4NGUe9PndLfAnd5JGd5NGeOvTXmprN6WFhbKJCXG0hbpqKxKdbFgJ7g/p9lb2OSyu8PNsleZsl1abHC18vLWJkwspIdAJnaWPjpUuHOgCzIlJCUoRRSMB2nj6KumHM6SXdkhNEdTKY+lAk+Uub0dZw1/aQzrfmvdk++LdWkstLfgIbGpYRCb3Jngx/8cn/j3bKybFVhNg0WbpidXSg/7cf8Ba3hdqht+UAVyL0wbZCn30JAfOI0MSJqi/KAoJDrwuPb1cunmmtMQauJWFJJPCfN2Cv8Mbwxs+YQ176SD74R2trS34QQdZFtfIFlgkrMUhPyedc0+vlG5xvLLZ3zv4Pgy9yKZQ+tpCfegEk8Eb7liC+omCk2C/BWuSff8f2QVauS8zARDIbXZLOrWSPjdUev8QC1cHuzkWKoS/2MDtwjpsNFknrZD++yX/vVvqajeL+6crHI71tMX6kK3Bf5ycEKG+oqAkIBid8rL0XVwgC1VHa9R0BNhv4d/vcz7e10JkbTq8zG5TLQl/dUDGQ44dVtl1+8PC0DI0tUvX0WRIB7+CutlaXesY4eNj/JssXKoEpYWCkeA1S8N0uxU/nC5NsyB1TUMAfPOtPn+YA9wvW3AIMNu0sG9dAgJEQL37oDR7nXT9bGmtg+kyB+DpAmAIdIyf/4unSf82wiROiFCvUBAScIE5FpofTZMe3mKhwQWKERqaOnd6u7K39PlTpNEOfpuVoBtBvLBymy3CHOluWwVInW6UKTHNoLbS1ydIFzieSVB/UBASrNgu3WYLcIuD4W4WFDqoonCIYNTC9CX7/fjQvWwJSrllBatQvle6Z5F04/N2jbyPFqS4Ajvg88/sZmv4Xmlo13hLmKC0UGMR3HZAemKJdPvqsJkxjgD7LCBH2a349mjpC6dLfSxRpd60SGzS00T9mOOVO860BXN88IrduDjhbunzn9oq/a8Js31/di1MCeoeNRJDBGKWhf+uf/oPB5F0JEUBArRz8Ph1E+DfT5K6222oL1qS52RY9eXDpT+Nl3bZdXuVaDgCnNve/92xQnpgcdhRl6D0USMSvGyt94CtwOJ9UueIYBCheMUEOMKC89lh0oetUTszOyYPoFV9qTpDx1b29e3G3eHgd6dLjabVKGAJW1gh3LJQetHxUdx5CUoHeccEzPX9ywvS9fOkTtaMzAOojn9ZALabHN+08Hz6VOkYuxa5YPdr0pod9sv3SPtfCQWqVTMTyZq5f2epS8vKE2sR2+3+3e1g+WveyizwcQ0AW0yEz/q9b5oYEijmtAQlgLxIwA+eXuYA8Dlp+i4HwxFWgKuWW2iv7WthsD9NoJgtIM+8jdIcu1oLrE2X2dLssGvxL1+znf3yARaqE3y9Mcd56+19TEGrRWwyKb/7jPS7l+3axfQj0Gxa4XK5/xzpoqFS0wz9DQnqDnmRYN1uB38zpB/YFYprDkUTXmRBvf4M6awB2WtCOtwmmWC0yNxf4R3+u4V/7JAiAG42A+tw5MZ3kC5jOuRAaUg3B7K1pG65Pa7ONY9LK7fHjzmqcBlM7Cn99mIH2O3iGw0S1C3yigkWb5Ie3eDK9/coAhywe9Tbrspl1oCn9MmeAAyDZszRd0yw+zc7ILVFQNO2s5AxnidIp+KNfd180efsKn1+rnSbLdKjDkRJxVIb4H2GmOBfG2tCmJ10/kWhi5/1SZNl+lrpdRMiQWkiZxIwxmbuOmtCC1z7iF9jV/ZZSq461praGjrb8TQI0goL9U8dZyzzPcosQOmGOKNVu5kMnU2c366S/tNE+ONsu1AmJ9ak2GDuwvh+0idtiegAjAIK4j1+vj//M4wlYk5LUMfImQQvWUNPtiVo6hqNsgIMhziro3T2IOnYHAJhNOUjS6UZW8OWpjTy/w7Q14Bl2OK44cb50s1TfZ0XQ5et2EJHvqIPj3KM4veMcyq7+NmedJnNcYyTNJmWJnIiAS1CuEKzLXBRVoBg8G0L8MUOWEf1qtyZBbACO6wp71kZDmXOuSnF5zPQjd7q+y1sV9kq3DXThHJgvYdkXUXEUMciVw6JH1IRxAEW/ofs5u1jalyCkkNOJFhtd2WRNTUN9lFBXoWtwLmdpBPtCnXMYR4uJGDeMf0NUU2tAEVLSpQYhRvs55m62/1q85r0fVuDbzwrPbhAWr4tHNtTDOAWvXdwpTWo3FcdHUzQv5icG22diHsSlBayJgEytKJcmuWKZHhEdQTBoa92vgkw0NoxF/DbnbYyaMwoF4tLQ46jHYmXW4iYfZYOrSyYZRa85yqkTznIvmW6NM2aGL+8GGD+w3v7O3CPKc1gePVB6XkTgbkLCUoLWZOg3Fp6hYVqo92LphGCutPCeUI7aaTdIBLf5grmA8O0iEsH/vaR1vDfGyN91sL2VpNwIg7uVxwgUw//ppOv+ZtlJsMUa+O5jmm2FD5wZozRRAfIPVtFW4PgnXzOQ2sTl6gUkTUJ1u6Slu60MLqWq2trKp6OrHPKHAx3DvflhRihhgSHfM9z7XtfN87B71h/72r3y8cYmRrzs8MWBBeJ0aBfmm0iPSM9ZVJs8d/pSJQrBtoNHOH3twGKBBOMnrFbtsn3DQifoGSQNQmYf/uy3QlyhFZH4G9bO4/s7uC0TbgvV0Rc9h141QKLV0Em6Q/aInzFZPjGULs9jj22+f6QMBa+eFcTgZ7t+9dJ758s3TlLWmj3ZJ/jh0Kgua9/eh+7iv6MepQg1rEVYObaa0mfQUkhKxIcsPsACVZaYOJcoTMdGPa2FaBDqxjA+sA14gfWHqCN/lOnmwinSFf2lN7wffdiFWLIwO4gcPZvCZy/O1/64lPSww6g1/vdCqGdR/s5esYMEAyKzQ8xx3HVa68HuxKUCLIiAc2XW/ZY21qDRbUKUbknMaAtTyuQL451DHL5CdIXzpRuHC6Nautn9f6sAmdr7Fn2pz42Vfqxtxfsr5MlL4ZDWYHkvX3sFjVxGUVdh2bUZ31P1l5IUDrIigRb9jsgNhGOcs1W50DQKmShGtDBrkAdpCfEzTjJwfgnTpNuONXW4Vhr+qbSHhMheLYYVA2cb18qXf2k9GcHzqu22/XK011p7oBgoN01JtdEoY33L3FZ0krFIMEEpYGsSLDblVbxqtQswgoQmKq53Qy7QyxwUVdgWPX7R0ifHS9dP8ruUkc/m9+OWCIOHAoCZ7tIWx2wfnGm9DW7SFNXOlbIs5MNEpDEN+q2WAj5ursO2X1LguOSQVYk2OtKq7AJt+J8F5hXO8Ik6GAhzDXHaDFwfFfp47YIX3Dg/Mm+YV6gvZbITC1BqR7nBx04XzdFus+xQj69zcyZIGaJul3Qq+z4atvBxBKUEjKSgMrabRLsseaKav6jLo+zG0SmuFIBQnjeQBNhgvS5Mf5u7fweu2zMckvHhVSP84Z90s9fcNC8OHdhbd9MamvipWsfoHec+CpBaSAjCcgpesABIySIC4qPaVVaJEiBxL0kzr3BZCC140A/J31VmawC2edWWFtDgnmbKndmCUbNdmwdWsXI23j/JruXiTtUOshIgiC7s4nASpDVOZCq5M7WfASFpYimfsPTHCx/0UT4vN2k88scuPpZiRXScaGTfzd/t+OD5ZX9IFmCGWSMLg1W04y5wd7XfSjdzRPUKjKSgMS1DPqKIkEKLVzxpZ51jfWLrxwtff0cxwzDpKHW1ngkcfKN1dvrE1ZX9vJmC4Z2QwQKNlLOfd39vi7lmqA0kJEEWILAf6VGY1jAohl1kT80V/CIw7vZKoyXvkqmuF5Saz97VG8zrwqvtzseYiJRLoAE6RoJWHg8MQSlg4yim1pVHryrXitrMrU6fH0BgfNFg02Es8OVZ7b7/aL6FHilQ1YAB3Ps4Q3Ko/J7FLAECQlKBxlFF7cgNWHkXRUHK7wTa5GuY6rUwLMyKnbeeunFHfbh/X6RQb8RDOHOWErvRFAeld+j0MLXS2MoEtQyMlbvkdZqrBOW7ky0ZX1p7WABkWmrpRselz72jLTcJGgZI5EIclvyHOWQMAxd8JrdnXQtUO1tiRISlA4yk8BnYN7xjyNbNFybTBQpdRKg/ZnI/6vp0hWPSf9YK5V5f1yCXc4nzundLre50riOjBKFQHGC3uZoH0tYUDLISAJy+UACmvyqC0uqHskUx/oEpQpmrf3tJelz/5B+ONfv9Ko1vN8pnSASLA9uIY061u5SDn0glANDLoLiiLl+W1uC+hRDNXRkrApWjmlpl4BVHiP9XFf0+gMOHktwZCRNuy9skL77tPTlKdLCCgug3zjO/08BVwbin2kCTOhXuTNLvGJ3a6fLI7ZvwdfuZnLVh9a0xoLMJPAZ7VxpHSwUUX4u8rTmoILV6UsJLNl6x/MWfvv+973sZ7fLRpCbQf4DN+iAT7rUBLhyTO5TRVkudo8tD0UVeS+To3dbk4A4K0FJICt91NaC0NkmPKo9nWHDSxgZaSLEKb/axEEL+2MW+m9Nsv9vEqzeG2r+TD44r0aq+TcsnCwgeP0EaWiX8FguoGNtX0yTaqBEfP2urUJLk6A0kBUJ2psEXewSRQ2qhASvW/Mxh5eWl7oEi3X/7Fnp+3Z9JpOJzkKdTQAKubeawSO7Sr88S/qKCcCc4Xzw8jYrBFuDqNsGg/Gauzy9Je5Q6SCrqmDecE+7RFay70LQM/qGtGpnaA3qAvTq/mm+fX9r/z8vdozi54h1R6qA1i6S5r5lgn/7BOk3F9sFGmHXz++aD5iMwzpn5GKNAsPOydFKkyv5ihKUBrIiAeNuerS3UNmUR7Z/W9rm7XBAWEsJcVNAs05bK/3Yge+tM8PpkgfR/pXH0wFBLfe7XNZHuue90g3jQu1Pk3A2v48CM8ZIUPa6rxt1DfZPtIvFzLcEpYOsSECTHiTo608qsjpIyfjkbmtgW4NiZXpLIdWys2qXNfcM6ad2fR5YKW2snB+cToA5Rjv+Fpu0zu2k28+0+2QCnNUvnBVX07b7heWOCfaFzxEJHzilTGrmckxQOsiKBKDMJGA8/sGIGg7y81sIl1gIipUeHQtEJjdaXx5aIt38lHTXAmmuycDE+iD4rTw3Ev49ws/CGV8aLv31IumjdoF6tA21f01Bc+ysddKOmLgoUA4m2gBbG5qdE5QOsq5+VpscYu1JHVfnAcKHFn12izWyrUE+iODWYXD9zv7vufXSrxz43jpd+ocD320mBPxLK/wGATKLhozvaQKdH641PKqH1MIauabaP4W1e2wJNpmQfpGoSzIpabjLkGVrk1XvSwtZk6CnNeaAbmHvaZTLwySUqdbKSywI+czNDdycGIGkd/UNs+9/Z0l/WBom7gXphitziBGwW/y7PQ50f3qadIddH5LndrZFK4T2r4opdsnWVz5XFBhUd5XjD6ZeJigtZC0KjKTsbxKcYTKQzqQ6gpGW1rZP2yUgbUkuQGCDYNFuQtyMK4Lg+da2jFNiCEca+T/s+mz15ycHOXi+0J8nSf06WwsXoZOK+QZPLg+HSEc9V9A02kw6vbfUMgmKSw456cMBXcIF8950TUcJK9bg/m3SIrstcR1GUUAr97abQO9suontZL9LN+SBQ6wxvMVu0gAL/P9NlG46WzrZGri9rUG639YET9oKLNnhLzHX325yTHRA3NfuUNI0WnrIiQRlraXj7VcTINPmXR1Bvk0L/2OrLBSbw33ZAOHs5mtf1kvamYYEcUD2GO6w2cLPYts3jXXge4H0PgfA+ODFFDxGpj7sQJ3h5FEIlIUf8GpbpDZ59j8kKC5yIgEYbkG9wEHlfio3whp0tcA9bGvABPXyHFqKSGh7tYX2bVuDuBXj48DyrlsthJccJz1h4b/mFGmYn7HYycDoHPvbi9ICu39xAfZuvwu5kJjszzsmKD3kTII+HaSx9m17WFijrAHBajNX/EOrpdne0rk3VYFLNKK79LuTrc39fX8WRCBAx/X5V2Wb/0/OkcYPMBHbpA+aC4UZa6V7HKjHNm15P1ktGIvU1ZauWO5YgpohZxIwv2DkMdIHrGn3uYKjYgM6z+bZCtCev2Bj5c4s0LKJ9P5h0p1nmATNw5adfSYDHVy4O2x8D5o8Lfw7fJ8v2no8d770wdFhzMKk/9rASrtBv5tja3cw3grs9XP2dWwyoa+tQNJBVrLImQSgbydXbH9pkDUu5r46EAra9e/ZIv3d7sKa3ZUHskBHW5jLRkpPW7CvswY9YD+6wsK/tdLlqTAJ9tjN+bDv/+C54WLhYx345rJGWk2x04L/53nSA6ziGUMAlMNBH/uG36WHLVVtWKYE+eGIfFa0B6z08vvZruRFDmpdwVGmnmS9nSyw11kQPjQmHEKcLZihtXWftGmnggXvWDnTlwvSHPayUPW0W1bWNrQetQkW9bh3gV2cWVIHkzLqvdm12aT9oC3AL86Tuvt5C9Upl6DwyJsEYOYa6X+mSY9Z45PDMwq7LLmDrd2vPcEafpQFJ8fOIgSffP6p1V1o6WllYtWFZmWts0fs4l3/nOMQkzIYLhIB4qDtfsbJF0lnOlgv9cRkjR15uUMp0AJzxRDpaAs2vnuUXLIu8UsHbDVsMR5dbPcpx95kHpCONPoQ2Mj+UBcEYK4Ea519y9aPLN1xBEClbPf2oxHSiT0TAtQH1IgECCetMd8cbCGxYDI0IAo0m861a/Mb+9EPmwzFWkq1WGAFm0n/lP5rpuObPeFU0ziwxOzV1v5X2AVskwyRqBeoEQkA+fgvHi59vLeDVoLkGOeqi+80z3HET+dIf7VPnWtqw7oCsc8/XpI+MV1a5tiEjNVxwBqOcKxy7diwBzwJA+oHahQTpEB7/XMrpO9bUKZti48PAKMp29qCfNrW43K7DIO6VfY0lxiwaswSe9wW4Mu2Xk0cl3RKQwBW2z/Crtrt46VLhhW3lzpBYVEQEoD99pmftMD80D7zQmtM1gOLuzCtRhiCf+slfcoB80j7zozsLBWQp4hhH//Pwv/blVI7q/SWFuq49yEQfqOJ9OOT/U6j7QaZDAnqDwpGArDHvvMjDn6//by0bn96i8Dk9u22Cn3aSJ8fKp0zyC5ER6l1HXYq0frD7LgZq6Sf+D1Yc7ib34He7LhCwgq+6nO+azJ/9KTa7a9IUBgUlASAjqQHrEF/5CB4rb93T+NCcGN6Va14dW53u0h2I0bZOrAUbG3OwyXrNH0S/0T7L5XuXetgyQ/XjWdP49gzo+0oP+eX/NwfcxzAIMAE9Q8FJwHYYeHHItw6366RA8vu+MdphImpk2R9ICfP++wafchWAReJ3mNaWIrhX+Pzky6RNZr/uUV6yDHNn9f7gH1/hD+d9mc/BGCFnmsd11xuF4g1jBPUTxSFBIDZZQSVd8510LzLgmVBzjSADNdiB2TwuSd1la7oI43pEbpJTEZp7o2xQfn0EzDuiA43XJ6DfjYWJ59vzf/IGumprT7B1qCj3ZpmaYQfcB0sF8PJPzUy7ADslLhA9RpFIwHAzXjGgeVfbBHuLZc6+E4IWSYwSC5obmWzNTjPhJhQJg3pEk7zxEI0MRlIGY/GZvolxGBoAi/DtEqElUzZbAj/Xscrm22Vlm2XZlrzP4Dg01/h33T2dWihylQQxDFMKBrXWfrgcOmi42vXbStVYMmpM8qvqjSh9NioI3+ULIpKAsBaZ/M3Sn9bIP3VWne73Y2OFEqWpcLcgl2QgafELbLbMdYkGGz/u287xw/WwowfYtVI3CbcnEDbm4A7LPhrLPgrHaQ/7+1V5jd4PzXSxufS4pPNc1BCdHSzrsCFjlkusQt0Zr9wRG1jQ8qivuoyZkHHQy5P3ErKO1jgETL4HDLskWqymeuF1jLmdqC4mroMS215r6KTIIX1u6UHXwrzhD5nwWzjwsomQW5VoG0Oejs8j4En5wKpN0j9XR3ex+owpIzMddUZ8iy97d8PN/nea8G/0AQYYkvQmECxIvS4kcR71OWSCsd7tqovW7Es8L63rdyClRBTCotytrCTZqa/Y6dBdh+HdQhTXfaze8ucj9bez0SjuiZErZEAMP7mOVuDSUukZ+2Pr7Kmbm0BC5Y7zRPpHr4Glw1MPEajp7XYOLtiZw+29u9vl64R9QGg9UlssN2CTk6pKevs2tqqb6eTB4E3sKStLMQoNGQZ94dyp14oQzwBclUdnlzFQVvvy1ym5x9rq27L2rN9GPPVVQdjrZIgBYZMPLHMRFhhbeKgucLShmudKsC6AgURxBL+7GSzPdKVM66vNHGoNMBarLGAckDzb3Y9Pbta+rPraro1PwWDNW1lYc23rpA2WtYCF9cXONoW4QYrl0sHSQMd87W2kqlty1AnJAAIG1mkIcKctf5uMpAm5UjvRyFQyLUFnoU6ecv37GrzPMzCP+YY6YwBJkL3UMs1FpBJD80/abl052LXzbbQq+noSin06F0Ej3T4QQofW4cvD5Q+MtLuU6dwJl5tiUCdkSAFBJAWG8iwYL202v7mRvue+P10WFEQmNxCFggvzFvzieATL/SwBurnQJvOunHWTMNsrmviptVHEOQ+7zr4HY0Ydn2aWkAZMZttI0ZNgHXY6fsx8PDro20ZbH1pBawNq1DnJKiKjQ6Y59nnXOjt5a3SpgMOxFwxBMOQJZ/yCF6uUuBhEp9YGQSffgESBgx0sDbamn90z3CRvrqYr1CXQAIYL/XXF6Vb5oetadn06xQDWAbrQX3UVvirp4VWgValYqKkSJACUyvXuiQWOxhbYXO8foc3+6crXDlRKSCrInWY+mOjIi3rauFKbeXCJI1kd/uhdMD1tw96vDU+rRUtilzQpQoqf+1O6VczpT/YBTrKZZ9NX04KKeGJE6KqPMqWU9ThTscfpMr/xQTpdAfQNLUWCyVJgqrg4Xa9Ii01Gb7/pPSSyRGloTiPTpn+1uykkmdNMFIuEmhhVru0DoWflDHMUWagW2PT+NVBmS1zXPbjadIjjstonMimTFICw6kkGkC5oGSauvxxX9gftK5ZmtHsByzQr/i7vwbItthJaHaE6+3us6TzbBmKlbep5EmQAiNUr7k3nK8QpaiY0NLWQv77iaGGpzLoEyDAYk5y1G8aO2jr/+5kx2ObwvgnG+FEWHAlu1q5HGNlcpytaG8rFlLcs8IP5Y2SSvXSb7X13mDFtXaXtI7GD//NoEm0fTb3g0g7XX/3mggXDSkOEeoNCcg2cd190vQYEgSBlTXS9EulsceFBEgQj9UWyJuekqZsCP/OJJBICdp+oIV+nN2TU/uE7gpWNhvrsf+10KWd63hv6hppkV3dHd6H8GX6OXX7enMT4bxwQZVCJ1VuMCTgJcpdqLeOl646IdRKCaJBr+83TQByxtKZlU4IU83HwztLVwyVzrVbgjtZE1eSwZXPm3z3vqRgzQncnkxBOG5VK1ubv10YNmAUcvXPBqMvgzL0f/8gI7bNcIJovG5hunueLYC1cSYCoIHftHvzWSuV298nfWpMYVrP2tmVOq+/9HML9PfODuM0epTTaePmFvpttiQ3zbBLtTckZ6HQoJyGjjaTT9rMLrev+4q1S4J3Y9IK6X5rYBYujJNl5GuXy6+bBf5350g3nBE2VdLwUCjQ98BStlcM9z1MMMZlscpPOr+kg+t3ki3IXfPtXjGisUBoUCSgdYJJMQ8tdyU6AEvwTtAP80cL0BZbynQEIN3lSd1tMc6Xzh8UjgAtFmjAGNxF+sm50qdHuPr8YHFE4Jk7+b/v0ZNtMqQSstUUDYoEgB7OOwm8NodDqhOEYIjzfS9KC7emdzvI+Tquh/RrC+Uo+97FWNmnOogHWNv5xnFhyk4GLsY9I0NYjrQVuM1kZnhHunfJFg2OBEFmOBfSb13hG3eF+xo70KzLtkkPL3PREOXGYI81K0ta/WyCNKhrYYPPTIAIuEfXnyZdNSS9z9/Jz/V3W4JpVnYM9agpGhwJAAmyHtkoPWizua2eZbsrBrACj5oATDCKGwdEe/whuz2/tv8/uKxuhjUHcQID6UwE3LE4IhCYH+Hn/eNSaWcB6rdBkoBCaufPm00C8oey9nFjBYLEEJTHV8YLFbt3WKh+NkYae6yCWXp1BSwCS2zdcKpU1jL+mbuYpE/b5aXfgVltNUGDJAGgV/M1u0U/nytNflk60EjjA1yhmeukl2OGmwBags5wHPCBoeFUyGLCXAvq4mCa+uA5T+ktXUYPsesxigdBM62v8fjqcMZbTdBgSQDaWlss3Sf9cnaYEZu1BRoTEB7S2j9lQYlrcWH/a5aCLzogZcpjHFFqCqbGzt0k/WSy9K1HpO8/Lt09J+xFjgIB+eXDpf62CjGPrjY+527HBpt8DVy+fNGgSUB9khp+ngvp189L/2ersDnNgtsNDWTdWL1TmlMRjg2KAisNTewZat5iLXVFB93TK6QfPC3dukj6vUl5l/++3XXy2+ekVTENGP07Suf0l1rHWANmuemgtLC8Zi5RgyYBSBHhRQv/HfNdCdOkWXYPGK7d0IGWZ5DcpkPRGh7BwpP4twEOSO1/F2PyDOU8xQJ/83Tp71utsf13c9/4SBN0rZ/rQROCRG1RmpxnZlmwY1qF71IdwfP6dy9s8X0SEmRGW7/pJtf4XcvtHk21GbWL9KIrJdP8hPoMBHCBtWSTmHdE8Fq3lk61FShGaxD3f8YE+NkMf+5woOs6CFp2vCHgdG7usfC+sF6qiGnlGdRZGkxzrc+NsgY0407d7rjGhIo6ng0aFAmCsS5pSqI5he+KecTC/4t50i1TpN+5gqZaG220pSC5VkMCfjhrLAc96RHY5+MXdQsXaS/kkAjAGs8Q4JczbQkqCRBnaQhsyUQShZZHS8MdtLe3qxZVPSi3lQ76SafJ/Oh80GBGkYJmzRxouUBbunJJA5IOEGavP7s0kU5sKw21/3lMBweH7VzgNr9tK3PioGkKLB+1AiqVbBEff9RCZr85SshJbPCrM6X/GFvYmVsQ4NmVJsAsB+V2x8pchnEEoJFonIn4mw+4LmLS889y8PtNv8dSC3r116AJlV7u+y+Uzhvqend95ooGQwLWPP7JyRZsC/cDdnlICpUuIzbgxRm9yHrMr7uS2lkQ+jSVepoArLrJlEvMcE1HTdYVdlghTLYQvu13rA5qvdzv9ejFDj4dE8S5Q6w7wZgjRuaiGJhIg3aOAwSYagL8ygSYlIEAKCL6JL5+qvQZ111cy9Q6k/nGv0vP+XrV6546ZAj9L8ZJV48JZwzmioZDAh//k7XB6f3C9QW+94LNpCuPDNPZNPtRCrhDZJxjJHZWrhHnxF073bGqiDuv6v7q5/A3qL6v+nX8d5ARPAK4Sq9YqJ+9zO5G93AgW3Ustyv13MvSQgeeu0yoDlYMI3qaNEOk4yLyMDFyd6pdoFsdbz2eBQHe8vHrhkmfP80W2C5ZHFjs8b9sCf6xJuxnqH5JFnb/6mjpP8+wNWlTuTMHNCgS/P690hUuDAI+iMCQ2wc3WnO51NoWqfmvvoIGgeYWvKlXSsdaoKsrCtrv/2Rh/vmycBJMACTFRPjGYOkjJ0kDq6SjPEyA500Ax1zpCBAsbeXj1x5vV8wWgB7idMBa//dj0n0mJM9d/bqQ4DO+1k1nWenZtc0VUfJUb0EdERyRKXrCQFfWBBeMSfGaNR7uUmNoFs0WqL6mFkRcvihZnWWte7/dmkMWMNzKYLPr0tr+9/eXmCC2tMutkEDgApkAt2VBACbcv8fXwgL8exYEALikxCxcM05j0wMdN8QiExoUCaqWe3MX9IheLuhTHCOc7QCxv7TTlQMZmKpXP+xfcYFQBfFONYFFq6+2MC/DBaomIWTzbu+y++FS6a/zKucMmyx3mBSPlacnAGvVNbUwf9Za+9MOxln5NFtwzZjLBsBC5FunDYoE1cHLdXcghw9743hXms3lJ0yG3bYU5dYctI4EvqkLr9FxwhJFXBAkyq328pQHx6IMJ6cyLqu9D95h9+Sn0/xpC0CzcxlWJUZSyShIa9s1JsAnciQA9+R50gk5vd1x986EBk2CFLAKjI+/cLj0FZPhEVsGFtqb0C3MUMFMqnJbCKwEg8nwWdEsFDwCUZ+3OCAvzC2gfd6v+Q7QYkNTcQ+XDQ0F1cEuMk+8aSVy34aQAATg6QjQqpIAH3MsQarFXIC7xbwBSBl3D1qssmkAiUKDC4zfP8JBcIaRkIxlYVV92tE373IQ6G3pTrsA+xXkQV1pPzhITY10sNWLEqoGBMJbDwtn1OND8N1N7Mp8IEw+XL11aLEF+1dTpbvWmRC+Tr7NxPt9nza+z2dsja+2BWCifq4gO8bXHpWeMOGQ1uqPQmD8DZPrC6eGM9RyRaMkQVWg8Unsxaqb+3yN/f7OJG5WXSHIftNbVMGXOqjUcpP6tmXmsTV2dQ3KO5V7+9sF0vssoNXzfdLzPmO1dPts6d7N+REBArAk7zW+Pq1JZJXIByusoG58WHren9XrPnhPW4k77OpeMcpuWvNwfy5o9CSIAqlIEALcCUqnfpTQO8Ejk5rkApfZvn1hC0t1EBN952S7iGfYZYzoaUVBzDIR7rTP/9ccicCQDNJhfmao9OEx0f0K2eJp+n0m2UK7jqu/BnWEO/voJWGLYD4TgqLkqdGDtcgYb0OuG5oQ8Tfr24YPXtbKsVCbkNRRYJWgGVvss9udiDqFSe2n9Qt7c6/qIVX4pHRjs1JIEeCaAhAAvORnJFtdFP8gqqz9O/td8x0EmJCgAYNxTyeWSa/ECC7B7dPbwzkHxAhRYB4CRKBTKxsiHCaAXaAPFYAApIxfbBKQvzQKu3y/Ux1ndDIJonq9s0FCggaMoyzkI7u5km3NouQ2aE1xDPTMGgXLM8XhHUToGU+EIClyigCOAWpKAMCQjRU7QrcnyhLQcHFG15q5wAkJGjAQ8qEWkH64RBGaHqFq5/9+vyKMH9I1qUYR4RANB/5knFWF/XKSdOECFYoALBr41HI/m4ka1TQaENEEP8kWiqVh80VCggYMSNDTBDjTQhIXF+ASMb3xCROB2CAdAiL0la49xcJ+XJhTdJv37bEUjW0n/eeIwrhAKcxzMP4cswBN4AgOaI9JSIvTUFu7FgkJEsSBYQrnWIM3s5BE8sDS1cHbl1+UVm6LthhVERDBBPj8mdK3T5V+NFL68Wjpa+Okj4wtHAGIBf5vYbhkV1wnGGPBPnxsGBTXRJATEjRwID9jbAlOtlsU5+6Qte+N3eGCfduySESAUA7x9T5uof/cWdJ1E6SLj5e6xkyKyRXkGH1sqV0hxyox8XCYSa+lNNGWqWUNm8QTEjRw4EuTSuWSwdbiFvY4dLPFuNOC9w+yuh2s3JkFaEKOm76ZD7BE80nNMjccyBdnBWgVwiWDjIyGrQkSEjQSTLRLNNa+c1zHH8LW0ds1s+yHr5L2puYQ1CIgAAs1fmOatHVPfMdcMCS+uXT5EKlNHj3E1ZGQoBEAWWJNsSvtv3e06xDDg8Atav269IGpJsLKcDhJbYHxXKu2O7aYIs3eEq/defad/u+rg6RRtApVG+6RDxISNCKc299Bsl0I5CaKCOwjq1tLu0PvmyxNWmaBc2Ba7GEjNIXSK3zdk+EgOdLrx2G/yTKqowNiE7oQVgAkJGhEYMbdR0+URneOr3jkvZ2J0N5W4CoTgckyrDyZbzqTdAhGsh6y4L9s6/OYLYBjARLtxiGY+9BEusHvMMDvkG8PcXUkJGhkGFkmfWSM1LtltDUA7Cfg7Wqh+4ZJcM3j0uQVYYKrTJNbsgGdXMwPWFoh/cCu12WTpAO7bQHSuDbckoarzw+VLnKQX8gUMQkJGiHeZyH64HCpzJYhDggduYqYLDN9o3SBNfWNdleeXR22HuHDZ0sITqF5FmtCh9yyrdItDsAveEj62aKQbAxWTAfmJn+gj/SZkwrnBqWQDKVupGDNhl9Pl+5dYqG2Vo5piDkMhJjkvW/YHbnI1oTY4kQHpn3aSa1c3rgm76lWMUgWRMHnZ1Hvxdb8U9eFq8zwN61R2aw3zey2k3zPm8+TBnXxfTI9bI5ISNCIQZlChAcJgLMgAoAMDGNggT2GTfRtbf+8vXSsydDJLlZLkwQhZUAeqVpI3EWaRHJAlft+R5hIzFHOdl4CrtPIrnabJvrTpMt3hls6JCRo5NjtAPi3s6V7FksVtg5ZKOYACE2g6b2ZE8GW+g6QVQSW67ExR4OOu1xkGMKd0kv6zlnhQMBCW4AUsn3nBA0UTEf87OlWMCdL/azVEWT/ywjkEaHEnQkmIHlrZb+elCxsrb2h8Zt5Y3IO52Yrwwg/8cglA+0CnV9cAgDfKkFjB0lsP+WA86ZzpPF2OZhaEDfJppiAfAzL7sDifadK/+MY4Di7WsUkAEhIkCAArsvZ/aQfXSh9xYQgNyiTZLAMxQZ8C/I/WRrPc8B958XStWMdc9hKxaVYKSQSEiR4B8gJdP0Z0h0XSZ883gLi+Gr7G+F4nULzAWtzwNfdZ0E/sbv0cwe/v7wgXDSEwX61IP8BEhIkeAcQPCasjz1G+v650t8ukW4YJbVtK5VbaANCoLXzYIR/FkyMx8Js8XUONJXO7SPd7fv88VLpimGhK1Rs96c6ktahBGmBtiYD3Oa90pyN0pR10uSt4WSXIHiw9AQJcy24dOKm3BekCqF/1Z9k9AvMyFEmmIV8PAvymWSnW+Mz/IFpmfQz1IbrE4WEBAmyArEBicjo+KLHePUuaeXOcAENVspf732sGLPZG4uCdDYjunjrbr+eOc59bEkIcgd08j7/3cKCj8tDK1Adyf5hJCRIkDNwhRj7j5VgNUqy9aWGUXAMgcKlIdhGwzPc+WhvCDxboQa+FQol9jgJ6gMQcOIGsky3tsLp2CpcHKNHO6mntT1rDvC9zFtna/22doGYCA8ZSo0AICFBgoIAlwafHoKktmBfcLS0kZAgQaNHQoIEjR4JCRI0eiQkSNDoUX9IUNn0liBBoVFvSJAai56OCPl05SfID4wlYi4CPclkjX6pXFqwKVzN8oUNYQKtF71v2TZp/W4FSy6xzGopot50lu1ygX/hAWnKluimNzrLfjNRuuqEcPRhgsJj32thb3GwubwhAQv/HbJwM7QitcIPEpXqKKM/IbXQSZtmUqcWUoeWUkd/tvdWCv0G9YYEZET70sPSkyze5r/fRQJXyM3jwuVBKeAEhQFpTrbtd/nuC7X+Fn/f5bo4ZKFPpWGpKsdV6yUlWHyyBb3HJgUL+XVrJfVoI3Vv6++tw/FDdYV64w4xiZseRzphIuH9O0yEtyorJkHNwDCIjXuk2euseFZ4WyU9v1laZyIEyzuZHMwYY0O4U1tqaERqeAQbA+w47wgzAYux1ZZkUYU0ea30xHJp2uow/QqWpi7gR6sfYLBVW7s5pAaPhN9klbVVMZJENTawvO1cW9xJFv6n19iv3xkKPsKCQCPgscooDYjrcJO4BhvjjjbZssxw/MD6CM+ZDCwdFeQarUXwXvUC5MlkjdqmLsQoBw5yzLGWIqlTgvxAFmg08uSVofCvrMw8hxZH8As91BkiQQaEcJutwwwH1Y+bDBAwl8zYNUW9IQHoYhKwskoUWvtNNlqrbLU1wJQnyA00PMyz8D1hAuCq4LYEWr/Agh8FboHbBClI0fKkLQJJvtbtDgPtYqNekaCng6h2DqCiyoWMB3LARnMdrRUJsgeKY7o1/xT76NvsCgU+fZbCj1VGUBlaTRCNAmLDgvB31eHVmcAtId6/TMA5W0IX6eVt4bWKiXpFApYC6tzSXyIqKDDVLnDSeh+sg9z69RWbHfxOsdZ9wUEvCbPQyJnkPzWfACH3v6DBgtQttPiwRhpbma02zaEMoT4CwfZvUqTIRIhUUL3GlgD36J9bQ8tULNSbJlLAMj7fekK6d3mobar7qKTt3m+SzHmfNLp37Zjy+gwI8JQJsNLWEyHIFOyi8SEAbf8dmtk9rWzvZxJTS1voZkyc4Rre3rKwU0fEaATVJPPd5m273S46zd7j69Dil6mKIA7XP7+/dHy3sIm10KhXJAB3z5Vum+kKdMFWF3IqiCl+t50pXXlCOGk7QTRo+5+0Slq2PRTEdMJIuaLx6fTqaQ1PRgqmSJJ2kUk1CH+63yPIARFMgAq7Xvj9673R3wD7MikrJudjaS4eKA3qbJepwESodyRYYHfnu49LM3dZI1Xuq4otJsHYMukuMpd1r9yZ4B2g45G2/0V2M0CcDCIYaHSE7hgL/UALIC4pDRRYg3zANelp3mBXZ4UJSAvUflsLG4W0rU9YFTrVLh0sHetnKKSV5971ClTEwK5ScxcCGqo6ulkrveDKfX59WNgJ3gmEad4m6aVMBHDZ4v6ggU/uKZ03QDqtjy1Bu/wJALhfB19zpBXURF/zLF+zd9vwQFR9psA9N9t6PevgvdCr59Q7EjAG5QT7+71shqNipUBDuIBuWyKt3pa+YBsbEBxaz2ZvDMslHQFwf3pZ8044zls/WwK7QIXUvgAynHxsSLDhXUKLk66+6Ctaausx10H8wQL2B9U7EgASQx1vi0ClVNcI/Flma7DQmu7xZXaP7HsmCIFPPn2d/XMLUJzrQXlShsdZ45/jYPREW4EWVjzFAo+Bi8W9TrAbS+Abp+U5t4n/Y1knRqbSQlUI1EsS9HYFndI3tAZRXQJUMEv/fNvWYPZq+5x1NCallIDALHQ8tclKIU6jI3toYtYamGihJDFWPsMj8kFHB9lYnNE9QosQw4Og+ZQWp5m2ZnsL5O7WSxKAcS6wE2xCUQ9RmiNY/sfCf9M8af4Gk8W+cGMFxVNhf3q+3Yg4LQsIgmnfJzHvsXZ/akn+D4OFBc+0+zXMMV861wu3iMRfuHY0m9cU9ZYEZDMbP0ga1MrBXuW+qqCuu9sa4EPe+oK0yCa0NrrgSxF0UBEIs3JMnBtE2bDKzHgLYR+XbW1ZgOpoayLwDMfYGsWBd4DMC8pt5QvQMVpvSQBoXZjg+ADNECngLqzu9mcfsB/8GxPhJWvCxhYoIywMRlu8LV6zUyQcG2P/n9Y3XI66BP0PZzhgxjLEAZeJvgbSQNLiVRPUaxLQLX/u8dJpncLYIFK+K4nwh5XSzdPDEYp03jQWQHra4vccCjVoFLAUjMsaU6AV4gsBcpYO6xbvFiG4DMX+p8ld05aiek0CcKo1xsUmwkC7Ra/FaXmI4Mq9Z430zWekZ1YoaCGJO70hAZ95uV3COAvIbsbpjLUVYL5GjMzVOnDHTugeWoU4MMQbS8CC4DWx8PWeBLzABSbB++0atbNPy0CtSFQSYbL9yKufkv48Vyq3OW3I7hHvxjj9zftCoYoCrUZYgX4dQzKUElgth2ESLPoXBdy2vVZmDMOoSYBc70kAGMx16Wjp8j4usLj4ALgw6UN404Jx3Qzpq0/aKqyS9jm4aohkIB5gTjDp1ONcIfbTGkNQXIoY3CV9bMA7bkhIEKK/NdlVY02G3tZurth0Qk0gXebPB1bbKjwufXuyNMPBc4oMDYUQaHkmx8e9D02iCBgtbXUdDMeB8UJlbeLdNEIY5iwfrEFfUIMhARhpyf7YydIlx9gtykAENGAHk+FtC/7vlkgffUT64qOOG14M57kSbKUmhLChcdJcruTAs7JuAONt4gSIRhXG/hML1FWTaCYwyYbm0rgONFw4esL3VdZXPqh3o0izwbzN0v/Oku6zdm/qgsmmghH0170d6cLu5SCbYRkju4W+Mr5pMEHEaifIse9zqtYIl29ydFhhcW5HtuCyAfH83FVu8S4Ex9KcQK0yYf5PJnUwST7iuRii/N7+YXMkQpYJdDjianIthC9X4vBM/B4LhfY9ymXJZyas3e26fCk6GwVFwHJQVw6RRjiQzqd1q0GSANB09vvZ1vIrpOYupGwHf1EYgRD6kwrCdSInDmv9Mq4lqvJppehrsjDM9zS7Y03yqAhAezdpTugNZQRs1djmsCXik83PkKq54O/KfVX/JmsD0yV5n+pgF6dfOVwaYr87nTuE0LI80+Kt4fWamfCDOoW/yzbRGe+2xtdYVB5qbsYjDXCZ0QyaKecQ59+zyPGN7x0Wwjvxiq99ft+wpZB6yhUNlgSAcTL3LZRusTbcdyhcdT3WN0iDQKhS372RP6c6uCyZ1f77DAfoFiysQi5g+uACW7DnbL0Y7w/SPWrwHOHXKLkIwPE4ywQxWGnmY6Ns+exuxGl1iDhvY/hcOy2MnMb9OJ9lV8/sE477SQeCVtI0Pr7SAmu3JfVMDI8eaiKdPzB98Etg/zdbguVWDlXfOwWyZJzaKxyEl89SXTlWVf0CTX//for0y7OlUdY45S7B2JajNKDSqHQ2LArTAqtvzKOtcID28xdsvl1ZUdo3Hdb4N89b2LAAqXtx37it6vHU+dU3jsWBx8MFwsVLc1pgmRaanBAgeHdvfOKuMVKXPoh0PbbcZ7vjkmkmEXEWFif1fFiYl/37RVvCc+OAZW1mDc9vooAFxOrxTPnAj9Swgam92P7ibRdK3znRhWVNUWHNkQ8ZMgHtPx+hcaVSwdmCCtzk35FBL66iCw6/PwIZxDdp7knrEvOCq5/Cb9HQWNt0o3QhCK03bFH9EIGbZAWQbiI9pEtrWf0uxCv5Vmm6SzcYUGEDbXZZqf3hi6SP23evsHZhKmYhh1AgKG+7MgN3Jocaofuf4cFUZK2RwOBWgRUL/4wEGSjiysiPGwgvzx+HIDbhGj4n6j4UE+5MJi2ezqqBwPLmyYJGQQJAGbayVTjdPuxPzpOeuUS6bpi1nC0DZNhVaR3yLMcAQXRlcpFkNlOlVQXauKn9czRerUVovheCkykFChPpoya68CeviKVN1xDAO7XyNTgnykXkGmSrDixSGqQjCdcIAnu+5IFGQwKQKixSgp9xnPSDc+y6fFC6dYLJ4cAK61BuMmyxVt5rzUXTG1qQyksnKIBztvq3ZztYZIZULkMQEDKWPGU+L82WtQGCe0hPoqt0L0dmiR6tQ62fEmI+cGMIQvt0CPsZ4kDc0d2/7+vroPFTZOIDl5FMFUO7hkFyHDiP+6V5zOD3+VrRBt06lA0oYASBcenr7Zcv3SYtcMA3vcIEoUnOViLYEE5KKvVZFRS+Nfn4HtLNZ4WTyHMhAcC/nrtJmuoAkibBbH6eqeLQwnF5engNjl09KpxAw7lxWGWffWplbtIgCPa5HS3443tLo/zOmYZcUMZkl6B1iNSKrGNA+XTyNU49RjrZWzoSMNiRfgKaWKPemSbSM3yNs/uGViVXNHoSpEAhUFmpFdpfcbBHKpAKE4GNisD/jfKRqVAE6QQLRLc2ofbLBxCBwWD0WBNXcBu0W0o+Uy4Wn3wN/qzy/fDx8EMHfD1ab3iv1L6qQLNffrw0IoPl4rzdDmwZo0MrEdq7l12+Lq3CZtZswDMw2nODFQ2Te+hr6OWyYlhEpn4VVrn5y6JwMGAUIMFFA0wmW3My3uWKhAQxoFAoGSovNXyCnZUfIfhi6ULAcLOCJFRR0pYDuB9B5Lt6jCvvU/k1GpUH+ODZ91hg/7AwbL2JchXQ6mSTmNgvvSYGh8vCn1wKHz6d9YgC7xO8W+U1UBbZuDA0oz60JCR1dXBN3NaPmMzHm8yZ3iMK2VjdRgnqhgqiUNF2mHxSDRJcEwwGm00vn+zjnJoSAKCRg/tVXvfwxv0rN7Rd5ObfsfF7/sZXJ86IU3M8bzACM0K4qoNzEVqIztCEXAkA+AnlmbpGtj48zbBxaxagLEjDQz0EwXEeSEjQgIHAsSRSHAkQ5K129cgRWox+k0KAvKXEE1ihKPDcjOsiFsiHmCAhQQMGmraHfXcGBUbJOMfpnyAh75sxmrauQYzEeKU4jhJkd3dsQoyRLxISNGAEJLCA4CrESRECwGBDgtY4i1FXQPsv3RpagyjwuBCcNI64WPkiIUEDBn48fSIk00q18VcHPca0uiwxEUotAQHNqTTPxj0WJMEVIkN2viN3QUKCBg6C2cHM03VNR/EAN5ptfrmCZVrjyFLbYLUh+k3SrWgJaQe0D+MB3iFfJCRo4MAakMocbRkn4ASUtMXP3hBOMa1r8Jishs+8ijhOEhDTUgbBaQmrCRISNHCgIYkJ6BBD2OOEimMk6GIELJ12dQkCdQiZbmQpfRyDOobzj9N19GWDhASNAAg4GpOWorjglyCaFqKZFj5mkNFrXhdg/sK0NdJ2WyYIHAU6L9H+o7qHfSg1RUKCRgI6zUiwFTUiNAU0Kj741LXhTLB0mrgYoD/gmdXSGhMhruORR2cuOJOkGLpRUysAEhI0EiBUWAPy+KQDk1e2H5KmWBsvyBCYFgq08uACsYrmMn8i/3FWgHPLWkkn9iiMFQAJCRoRcCFO6RUOWkvXCkTiAGa5TTYRZq1TsNBJsVqNGCj4ouOQJ1eGBMAtiyMAwTBNoacfE8YCnFsIJAPoGhmobYLfSRa6uIF1KaB16UcY7ACUwJr8P2SXiHNVcgFNoKyZsLQiHLrOs+DaxF2a5ybFJgSYwJDpAlkBkJCgEYLsDzPXSzO80RKUjghYANrjiSmGdAqzRXelF9p/x81ViAMBLUPSWdN43S5pyXYHwvsQwvS+PRLK8AhyQZ0/QOpsS1YgIxAgIUEjBcI43e7OnM1hAJyOCAgIVoE4uSOzyWwRWMijc8uw+ZURobgpCHJqzjLkQehpyqSliTFKCH8wX8IBcPkBn+PjdOalE2ikEzeob4dwQW8WECw0EhI0YjC5ZeZauyN2jw5lIAJAUBBs3BJGqLY3Ibq0CFehZKolw7hTQg1pIBduDot20+TJhBzGAWFAAsJkup/v48sEUzPP6hcSoRhISNDIARHmbAjXMyOfJ/5+BtkMkNL0uCn8AIFOxQp8sDslxPyBt0OK9UzZLVLg+lxvoOORcZVLSBULCQkSBK7RIpNgvi0CCcSQiExauioQoECIqkuSr8FlcrhUcAkIQFKwIY4BTukddvIVEwkJEgTAfXl5W2gR1u4Jg+dsrUKhkNL+ne1ijegWTuInIC82EhIkeAcYSbq43ITYEXaaBc2k3p9ydQoNhA8J5PqtHFPg9gwrCxcQzDWfa75ISJDgXaBFh3H8yyrCleN3O7iFDKBQ1gGpQ/BSws/6yTS/Du4aBtq1iYQECWJBS87aXdLK7eG6Z7sdRNPig9sCDpMhDTEOC1el0AMEHy1P82o3uz59HPz2t+bvkiG7dbGQkCBBRhAflO8PrQIJenfaTSKYJgMErUMprQ5S0hSQopIZeDW0CjEcg8wQNKcydIM2fzKHt/PfdYmEBAlyQqrHl8nvTMShH4COMFIskriMji0kivQn9AXQn8CYJVLGMNWTVX86+pPhF5CjFJCQIEGNQDItxgHRK8zwiuokoPOMPEjNazAHuNhISJCg0aNULFKCBHWGhAQJGjmk/w+uuYHONGtwKgAAAABJRU5ErkJggg==;" vertex="1" parent="1">
          <mxGeometry x="417.58" y="100" width="40.77" height="45" as="geometry" />
        </mxCell>
        <mxCell id="SWwn75Fxxb8IVNRIEHbr-14" value="Usuarios" style="sketch=0;pointerEvents=1;shadow=0;dashed=0;html=1;strokeColor=none;labelPosition=center;verticalLabelPosition=bottom;verticalAlign=top;align=center;fillColor=#505050;shape=mxgraph.mscae.intune.user_group" vertex="1" parent="1">
          <mxGeometry x="222" y="405" width="50" height="37" as="geometry" />
        </mxCell>
        <mxCell id="SWwn75Fxxb8IVNRIEHbr-17" value="Administrador" style="sketch=0;pointerEvents=1;shadow=0;dashed=0;html=1;strokeColor=none;fillColor=#505050;labelPosition=center;verticalLabelPosition=bottom;verticalAlign=top;outlineConnect=0;align=center;shape=mxgraph.office.users.administrator;" vertex="1" parent="1">
          <mxGeometry x="1120" y="10" width="40" height="40" as="geometry" />
        </mxCell>
        <mxCell id="SWwn75Fxxb8IVNRIEHbr-18" value="Service Plan" style="image;aspect=fixed;html=1;points=[];align=center;fontSize=12;image=img/lib/azure2/app_services/App_Service_Plans.svg;" vertex="1" parent="1">
          <mxGeometry x="660" y="346" width="40" height="40" as="geometry" />
        </mxCell>
        <mxCell id="SWwn75Fxxb8IVNRIEHbr-22" value="" style="endArrow=classic;html=1;rounded=0;exitX=0.5;exitY=1;exitDx=0;exitDy=0;entryX=0.5;entryY=0;entryDx=0;entryDy=0;entryPerimeter=0;" edge="1" parent="1" source="SWwn75Fxxb8IVNRIEHbr-19" target="SWwn75Fxxb8IVNRIEHbr-4">
          <mxGeometry width="50" height="50" relative="1" as="geometry">
            <mxPoint x="680" y="511" as="sourcePoint" />
            <mxPoint x="730" y="461" as="targetPoint" />
          </mxGeometry>
        </mxCell>
        <mxCell id="SWwn75Fxxb8IVNRIEHbr-23" value="" style="endArrow=classic;html=1;rounded=0;entryX=0;entryY=0.5;entryDx=0;entryDy=0;" edge="1" parent="1">
          <mxGeometry width="50" height="50" relative="1" as="geometry">
            <mxPoint x="470" y="422" as="sourcePoint" />
            <mxPoint x="600" y="422" as="targetPoint" />
          </mxGeometry>
        </mxCell>
        <mxCell id="SWwn75Fxxb8IVNRIEHbr-24" value="" style="endArrow=classic;html=1;rounded=0;exitX=1;exitY=0.5;exitDx=0;exitDy=0;" edge="1" parent="1" source="SWwn75Fxxb8IVNRIEHbr-1">
          <mxGeometry width="50" height="50" relative="1" as="geometry">
            <mxPoint x="750" y="427" as="sourcePoint" />
            <mxPoint x="810" y="337" as="targetPoint" />
            <Array as="points">
              <mxPoint x="810" y="422" />
            </Array>
          </mxGeometry>
        </mxCell>
        <mxCell id="SWwn75Fxxb8IVNRIEHbr-25" value="" style="endArrow=classic;html=1;rounded=0;exitX=1;exitY=0.5;exitDx=0;exitDy=0;" edge="1" parent="1">
          <mxGeometry width="50" height="50" relative="1" as="geometry">
            <mxPoint x="780" y="422" as="sourcePoint" />
            <mxPoint x="950" y="337" as="targetPoint" />
            <Array as="points">
              <mxPoint x="950" y="422" />
            </Array>
          </mxGeometry>
        </mxCell>
        <mxCell id="SWwn75Fxxb8IVNRIEHbr-27" value="" style="endArrow=classic;html=1;rounded=0;entryX=0;entryY=0.5;entryDx=0;entryDy=0;" edge="1" parent="1">
          <mxGeometry width="50" height="50" relative="1" as="geometry">
            <mxPoint x="280" y="423" as="sourcePoint" />
            <mxPoint x="410" y="423" as="targetPoint" />
          </mxGeometry>
        </mxCell>
        <mxCell id="SWwn75Fxxb8IVNRIEHbr-28" value="Deploy Backend" style="shape=image;verticalLabelPosition=bottom;labelBackgroundColor=default;verticalAlign=top;aspect=fixed;imageAspect=0;image=data:image/png,iVBORw0KGgoAAAANSUhEUgAAAMEAAADVCAYAAADuBZQRAAAAAXNSR0IArs4c6QAAAARnQU1BAACxjwv8YQUAAAAJcEhZcwAADsMAAA7DAcdvqGQAAEFdSURBVHhe7Z0HnB1lvf4fBNJ73xRCSE9IhRBqSCAUKYKCXFCx3ytgQ66K3mvBelWsCAJ6wXb9I0gTKQESSEiDdEhMSO/ZbHqnSPk/35k9+SzLzGl7zu7Z3Xk+mZyzM3OmvO/v+ZW3/N4j3jaUIEEjxnsqPxMkaLRISJCg0SMhQYJGj3oTE/CQb77lT395yxvf+WTjIJ8cO8J/HmFqw+4j/Md7+F7l80hv7E+QIIWSJQEP9ZYFHWFn2/+qVHFQ2nHIn/ul9XukzQekfa+H255/SYe8NT9SatMk3FodLXVvJR3bViprLXVuKXXx322aSUf7PIiRkCJByZHgTT/Nm29KB16TNljQl++Q5m6WXqiQlln4d5oMsrCncJQF+D3+zdFVBPkNb+aN3vD+wy93lNTEwj/cZBjbWTqphzSki9TbBGnXvJIQmI8EjQ4lQQIeAG3/qoV7zS5p1nrpsdXSDBNgjzX/kT7BsqujLKRs+chqyo163dsBb/DoaAv/2SbEecdK4/pIx3XwfZqGblNiHRoP6pQE3Bjh3/uKNHOD9OAyacomqdxuT2sLoRV3oKGLBUjxmu+/z9+7tjAhbB0uGmBCmBRd23injydkaPioMxIg/Dst7NPWSn9ZIj27xRrf6rmJhR4/vbYBIV71Mx1lt+n0Mun9g02KflIPyJAQoUGjTkhAkDt9nXT7PLs+5RZ6xwC4OaUgaxTGG5VkGNtVunK4dK6tQ3u7TgkaJmqVBP+ysC/bJv1hgXT/CmteB7+lIvzVQaFgHTo4Rjjb7tFVo02KXnVjpRIUF7VGgt32+x+1z//rOdKGvWFwm4+/HTys/7OyDjS2eRV8Zz9vwjW57JHegv4Bb3wPblV5LFfwrP3sFn1gmMkwSurk+CFBw0HRScDF1+6U7ppr339p2AKUqzYlfnjNFzKPdLTdlGbejmkp9bFgdrKb0uLocGtiacfavPJG2Gew0z/YQJ+CY499/vtNbz5NzSzVNK3m9Bi+f4cmtgp9pE+eIg23q5SgYaCoJHjdAjl/o/SLWdLMTRZC3ylbAiD4NGUe9PndLfAnd5JGd5NGeOvTXmprN6WFhbKJCXG0hbpqKxKdbFgJ7g/p9lb2OSyu8PNsleZsl1abHC18vLWJkwspIdAJnaWPjpUuHOgCzIlJCUoRRSMB2nj6KumHM6SXdkhNEdTKY+lAk+Uub0dZw1/aQzrfmvdk++LdWkstLfgIbGpYRCb3Jngx/8cn/j3bKybFVhNg0WbpidXSg/7cf8Ba3hdqht+UAVyL0wbZCn30JAfOI0MSJqi/KAoJDrwuPb1cunmmtMQauJWFJJPCfN2Cv8Mbwxs+YQ176SD74R2trS34QQdZFtfIFlgkrMUhPyedc0+vlG5xvLLZ3zv4Pgy9yKZQ+tpCfegEk8Eb7liC+omCk2C/BWuSff8f2QVauS8zARDIbXZLOrWSPjdUev8QC1cHuzkWKoS/2MDtwjpsNFknrZD++yX/vVvqajeL+6crHI71tMX6kK3Bf5ycEKG+oqAkIBid8rL0XVwgC1VHa9R0BNhv4d/vcz7e10JkbTq8zG5TLQl/dUDGQ44dVtl1+8PC0DI0tUvX0WRIB7+CutlaXesY4eNj/JssXKoEpYWCkeA1S8N0uxU/nC5NsyB1TUMAfPOtPn+YA9wvW3AIMNu0sG9dAgJEQL37oDR7nXT9bGmtg+kyB+DpAmAIdIyf/4unSf82wiROiFCvUBAScIE5FpofTZMe3mKhwQWKERqaOnd6u7K39PlTpNEOfpuVoBtBvLBymy3CHOluWwVInW6UKTHNoLbS1ydIFzieSVB/UBASrNgu3WYLcIuD4W4WFDqoonCIYNTC9CX7/fjQvWwJSrllBatQvle6Z5F04/N2jbyPFqS4Ajvg88/sZmv4Xmlo13hLmKC0UGMR3HZAemKJdPvqsJkxjgD7LCBH2a349mjpC6dLfSxRpd60SGzS00T9mOOVO860BXN88IrduDjhbunzn9oq/a8Js31/di1MCeoeNRJDBGKWhf+uf/oPB5F0JEUBArRz8Ph1E+DfT5K6222oL1qS52RY9eXDpT+Nl3bZdXuVaDgCnNve/92xQnpgcdhRl6D0USMSvGyt94CtwOJ9UueIYBCheMUEOMKC89lh0oetUTszOyYPoFV9qTpDx1b29e3G3eHgd6dLjabVKGAJW1gh3LJQetHxUdx5CUoHeccEzPX9ywvS9fOkTtaMzAOojn9ZALabHN+08Hz6VOkYuxa5YPdr0pod9sv3SPtfCQWqVTMTyZq5f2epS8vKE2sR2+3+3e1g+WveyizwcQ0AW0yEz/q9b5oYEijmtAQlgLxIwA+eXuYA8Dlp+i4HwxFWgKuWW2iv7WthsD9NoJgtIM+8jdIcu1oLrE2X2dLssGvxL1+znf3yARaqE3y9Mcd56+19TEGrRWwyKb/7jPS7l+3axfQj0Gxa4XK5/xzpoqFS0wz9DQnqDnmRYN1uB38zpB/YFYprDkUTXmRBvf4M6awB2WtCOtwmmWC0yNxf4R3+u4V/7JAiAG42A+tw5MZ3kC5jOuRAaUg3B7K1pG65Pa7ONY9LK7fHjzmqcBlM7Cn99mIH2O3iGw0S1C3yigkWb5Ie3eDK9/coAhywe9Tbrspl1oCn9MmeAAyDZszRd0yw+zc7ILVFQNO2s5AxnidIp+KNfd180efsKn1+rnSbLdKjDkRJxVIb4H2GmOBfG2tCmJ10/kWhi5/1SZNl+lrpdRMiQWkiZxIwxmbuOmtCC1z7iF9jV/ZZSq461praGjrb8TQI0goL9U8dZyzzPcosQOmGOKNVu5kMnU2c366S/tNE+ONsu1AmJ9ak2GDuwvh+0idtiegAjAIK4j1+vj//M4wlYk5LUMfImQQvWUNPtiVo6hqNsgIMhziro3T2IOnYHAJhNOUjS6UZW8OWpjTy/w7Q14Bl2OK44cb50s1TfZ0XQ5et2EJHvqIPj3KM4veMcyq7+NmedJnNcYyTNJmWJnIiAS1CuEKzLXBRVoBg8G0L8MUOWEf1qtyZBbACO6wp71kZDmXOuSnF5zPQjd7q+y1sV9kq3DXThHJgvYdkXUXEUMciVw6JH1IRxAEW/ofs5u1jalyCkkNOJFhtd2WRNTUN9lFBXoWtwLmdpBPtCnXMYR4uJGDeMf0NUU2tAEVLSpQYhRvs55m62/1q85r0fVuDbzwrPbhAWr4tHNtTDOAWvXdwpTWo3FcdHUzQv5icG22diHsSlBayJgEytKJcmuWKZHhEdQTBoa92vgkw0NoxF/DbnbYyaMwoF4tLQ46jHYmXW4iYfZYOrSyYZRa85yqkTznIvmW6NM2aGL+8GGD+w3v7O3CPKc1gePVB6XkTgbkLCUoLWZOg3Fp6hYVqo92LphGCutPCeUI7aaTdIBLf5grmA8O0iEsH/vaR1vDfGyN91sL2VpNwIg7uVxwgUw//ppOv+ZtlJsMUa+O5jmm2FD5wZozRRAfIPVtFW4PgnXzOQ2sTl6gUkTUJ1u6Slu60MLqWq2trKp6OrHPKHAx3DvflhRihhgSHfM9z7XtfN87B71h/72r3y8cYmRrzs8MWBBeJ0aBfmm0iPSM9ZVJs8d/pSJQrBtoNHOH3twGKBBOMnrFbtsn3DQifoGSQNQmYf/uy3QlyhFZH4G9bO4/s7uC0TbgvV0Rc9h141QKLV0Em6Q/aInzFZPjGULs9jj22+f6QMBa+eFcTgZ7t+9dJ758s3TlLWmj3ZJ/jh0Kgua9/eh+7iv6MepQg1rEVYObaa0mfQUkhKxIcsPsACVZaYOJcoTMdGPa2FaBDqxjA+sA14gfWHqCN/lOnmwinSFf2lN7wffdiFWLIwO4gcPZvCZy/O1/64lPSww6g1/vdCqGdR/s5esYMEAyKzQ8xx3HVa68HuxKUCLIiAc2XW/ZY21qDRbUKUbknMaAtTyuQL451DHL5CdIXzpRuHC6Nautn9f6sAmdr7Fn2pz42Vfqxtxfsr5MlL4ZDWYHkvX3sFjVxGUVdh2bUZ31P1l5IUDrIigRb9jsgNhGOcs1W50DQKmShGtDBrkAdpCfEzTjJwfgnTpNuONXW4Vhr+qbSHhMheLYYVA2cb18qXf2k9GcHzqu22/XK011p7oBgoN01JtdEoY33L3FZ0krFIMEEpYGsSLDblVbxqtQswgoQmKq53Qy7QyxwUVdgWPX7R0ifHS9dP8ruUkc/m9+OWCIOHAoCZ7tIWx2wfnGm9DW7SFNXOlbIs5MNEpDEN+q2WAj5ursO2X1LguOSQVYk2OtKq7AJt+J8F5hXO8Ik6GAhzDXHaDFwfFfp47YIX3Dg/Mm+YV6gvZbITC1BqR7nBx04XzdFus+xQj69zcyZIGaJul3Qq+z4atvBxBKUEjKSgMrabRLsseaKav6jLo+zG0SmuFIBQnjeQBNhgvS5Mf5u7fweu2zMckvHhVSP84Z90s9fcNC8OHdhbd9MamvipWsfoHec+CpBaSAjCcgpesABIySIC4qPaVVaJEiBxL0kzr3BZCC140A/J31VmawC2edWWFtDgnmbKndmCUbNdmwdWsXI23j/JruXiTtUOshIgiC7s4nASpDVOZCq5M7WfASFpYimfsPTHCx/0UT4vN2k88scuPpZiRXScaGTfzd/t+OD5ZX9IFmCGWSMLg1W04y5wd7XfSjdzRPUKjKSgMS1DPqKIkEKLVzxpZ51jfWLrxwtff0cxwzDpKHW1ngkcfKN1dvrE1ZX9vJmC4Z2QwQKNlLOfd39vi7lmqA0kJEEWILAf6VGY1jAohl1kT80V/CIw7vZKoyXvkqmuF5Saz97VG8zrwqvtzseYiJRLoAE6RoJWHg8MQSlg4yim1pVHryrXitrMrU6fH0BgfNFg02Es8OVZ7b7/aL6FHilQ1YAB3Ps4Q3Ko/J7FLAECQlKBxlFF7cgNWHkXRUHK7wTa5GuY6rUwLMyKnbeeunFHfbh/X6RQb8RDOHOWErvRFAeld+j0MLXS2MoEtQyMlbvkdZqrBOW7ky0ZX1p7WABkWmrpRselz72jLTcJGgZI5EIclvyHOWQMAxd8JrdnXQtUO1tiRISlA4yk8BnYN7xjyNbNFybTBQpdRKg/ZnI/6vp0hWPSf9YK5V5f1yCXc4nzundLre50riOjBKFQHGC3uZoH0tYUDLISAJy+UACmvyqC0uqHskUx/oEpQpmrf3tJelz/5B+ONfv9Ko1vN8pnSASLA9uIY061u5SDn0glANDLoLiiLl+W1uC+hRDNXRkrApWjmlpl4BVHiP9XFf0+gMOHktwZCRNuy9skL77tPTlKdLCCgug3zjO/08BVwbin2kCTOhXuTNLvGJ3a6fLI7ZvwdfuZnLVh9a0xoLMJPAZ7VxpHSwUUX4u8rTmoILV6UsJLNl6x/MWfvv+973sZ7fLRpCbQf4DN+iAT7rUBLhyTO5TRVkudo8tD0UVeS+To3dbk4A4K0FJICt91NaC0NkmPKo9nWHDSxgZaSLEKb/axEEL+2MW+m9Nsv9vEqzeG2r+TD44r0aq+TcsnCwgeP0EaWiX8FguoGNtX0yTaqBEfP2urUJLk6A0kBUJ2psEXewSRQ2qhASvW/Mxh5eWl7oEi3X/7Fnp+3Z9JpOJzkKdTQAKubeawSO7Sr88S/qKCcCc4Xzw8jYrBFuDqNsGg/Gauzy9Je5Q6SCrqmDecE+7RFay70LQM/qGtGpnaA3qAvTq/mm+fX9r/z8vdozi54h1R6qA1i6S5r5lgn/7BOk3F9sFGmHXz++aD5iMwzpn5GKNAsPOydFKkyv5ihKUBrIiAeNuerS3UNmUR7Z/W9rm7XBAWEsJcVNAs05bK/3Yge+tM8PpkgfR/pXH0wFBLfe7XNZHuue90g3jQu1Pk3A2v48CM8ZIUPa6rxt1DfZPtIvFzLcEpYOsSECTHiTo608qsjpIyfjkbmtgW4NiZXpLIdWys2qXNfcM6ad2fR5YKW2snB+cToA5Rjv+Fpu0zu2k28+0+2QCnNUvnBVX07b7heWOCfaFzxEJHzilTGrmckxQOsiKBKDMJGA8/sGIGg7y81sIl1gIipUeHQtEJjdaXx5aIt38lHTXAmmuycDE+iD4rTw3Ev49ws/CGV8aLv31IumjdoF6tA21f01Bc+ysddKOmLgoUA4m2gBbG5qdE5QOsq5+VpscYu1JHVfnAcKHFn12izWyrUE+iODWYXD9zv7vufXSrxz43jpd+ocD320mBPxLK/wGATKLhozvaQKdH641PKqH1MIauabaP4W1e2wJNpmQfpGoSzIpabjLkGVrk1XvSwtZk6CnNeaAbmHvaZTLwySUqdbKSywI+czNDdycGIGkd/UNs+9/Z0l/WBom7gXphitziBGwW/y7PQ50f3qadIddH5LndrZFK4T2r4opdsnWVz5XFBhUd5XjD6ZeJigtZC0KjKTsbxKcYTKQzqQ6gpGW1rZP2yUgbUkuQGCDYNFuQtyMK4Lg+da2jFNiCEca+T/s+mz15ycHOXi+0J8nSf06WwsXoZOK+QZPLg+HSEc9V9A02kw6vbfUMgmKSw456cMBXcIF8950TUcJK9bg/m3SIrstcR1GUUAr97abQO9suontZL9LN+SBQ6wxvMVu0gAL/P9NlG46WzrZGri9rUG639YET9oKLNnhLzHX325yTHRA3NfuUNI0WnrIiQRlraXj7VcTINPmXR1Bvk0L/2OrLBSbw33ZAOHs5mtf1kvamYYEcUD2GO6w2cLPYts3jXXge4H0PgfA+ODFFDxGpj7sQJ3h5FEIlIUf8GpbpDZ59j8kKC5yIgEYbkG9wEHlfio3whp0tcA9bGvABPXyHFqKSGh7tYX2bVuDuBXj48DyrlsthJccJz1h4b/mFGmYn7HYycDoHPvbi9ICu39xAfZuvwu5kJjszzsmKD3kTII+HaSx9m17WFijrAHBajNX/EOrpdne0rk3VYFLNKK79LuTrc39fX8WRCBAx/X5V2Wb/0/OkcYPMBHbpA+aC4UZa6V7HKjHNm15P1ktGIvU1ZauWO5YgpohZxIwv2DkMdIHrGn3uYKjYgM6z+bZCtCev2Bj5c4s0LKJ9P5h0p1nmATNw5adfSYDHVy4O2x8D5o8Lfw7fJ8v2no8d770wdFhzMKk/9rASrtBv5tja3cw3grs9XP2dWwyoa+tQNJBVrLImQSgbydXbH9pkDUu5r46EAra9e/ZIv3d7sKa3ZUHskBHW5jLRkpPW7CvswY9YD+6wsK/tdLlqTAJ9tjN+bDv/+C54WLhYx345rJGWk2x04L/53nSA6ziGUMAlMNBH/uG36WHLVVtWKYE+eGIfFa0B6z08vvZruRFDmpdwVGmnmS9nSyw11kQPjQmHEKcLZihtXWftGmnggXvWDnTlwvSHPayUPW0W1bWNrQetQkW9bh3gV2cWVIHkzLqvdm12aT9oC3AL86Tuvt5C9Upl6DwyJsEYOYa6X+mSY9Z45PDMwq7LLmDrd2vPcEafpQFJ8fOIgSffP6p1V1o6WllYtWFZmWts0fs4l3/nOMQkzIYLhIB4qDtfsbJF0lnOlgv9cRkjR15uUMp0AJzxRDpaAs2vnuUXLIu8UsHbDVsMR5dbPcpx95kHpCONPoQ2Mj+UBcEYK4Ea519y9aPLN1xBEClbPf2oxHSiT0TAtQH1IgECCetMd8cbCGxYDI0IAo0m861a/Mb+9EPmwzFWkq1WGAFm0n/lP5rpuObPeFU0ziwxOzV1v5X2AVskwyRqBeoEQkA+fgvHi59vLeDVoLkGOeqi+80z3HET+dIf7VPnWtqw7oCsc8/XpI+MV1a5tiEjNVxwBqOcKxy7diwBzwJA+oHahQTpEB7/XMrpO9bUKZti48PAKMp29qCfNrW43K7DIO6VfY0lxiwaswSe9wW4Mu2Xk0cl3RKQwBW2z/Crtrt46VLhhW3lzpBYVEQEoD99pmftMD80D7zQmtM1gOLuzCtRhiCf+slfcoB80j7zozsLBWQp4hhH//Pwv/blVI7q/SWFuq49yEQfqOJ9OOT/U6j7QaZDAnqDwpGArDHvvMjDn6//by0bn96i8Dk9u22Cn3aSJ8fKp0zyC5ER6l1HXYq0frD7LgZq6Sf+D1Yc7ib34He7LhCwgq+6nO+azJ/9KTa7a9IUBgUlASAjqQHrEF/5CB4rb93T+NCcGN6Va14dW53u0h2I0bZOrAUbG3OwyXrNH0S/0T7L5XuXetgyQ/XjWdP49gzo+0oP+eX/NwfcxzAIMAE9Q8FJwHYYeHHItw6366RA8vu+MdphImpk2R9ICfP++wafchWAReJ3mNaWIrhX+Pzky6RNZr/uUV6yDHNn9f7gH1/hD+d9mc/BGCFnmsd11xuF4g1jBPUTxSFBIDZZQSVd8510LzLgmVBzjSADNdiB2TwuSd1la7oI43pEbpJTEZp7o2xQfn0EzDuiA43XJ6DfjYWJ59vzf/IGumprT7B1qCj3ZpmaYQfcB0sF8PJPzUy7ADslLhA9RpFIwHAzXjGgeVfbBHuLZc6+E4IWSYwSC5obmWzNTjPhJhQJg3pEk7zxEI0MRlIGY/GZvolxGBoAi/DtEqElUzZbAj/Xscrm22Vlm2XZlrzP4Dg01/h33T2dWihylQQxDFMKBrXWfrgcOmi42vXbStVYMmpM8qvqjSh9NioI3+ULIpKAsBaZ/M3Sn9bIP3VWne73Y2OFEqWpcLcgl2QgafELbLbMdYkGGz/u287xw/WwowfYtVI3CbcnEDbm4A7LPhrLPgrHaQ/7+1V5jd4PzXSxufS4pPNc1BCdHSzrsCFjlkusQt0Zr9wRG1jQ8qivuoyZkHHQy5P3ErKO1jgETL4HDLskWqymeuF1jLmdqC4mroMS215r6KTIIX1u6UHXwrzhD5nwWzjwsomQW5VoG0Oejs8j4En5wKpN0j9XR3ex+owpIzMddUZ8iy97d8PN/nea8G/0AQYYkvQmECxIvS4kcR71OWSCsd7tqovW7Es8L63rdyClRBTCotytrCTZqa/Y6dBdh+HdQhTXfaze8ucj9bez0SjuiZErZEAMP7mOVuDSUukZ+2Pr7Kmbm0BC5Y7zRPpHr4Glw1MPEajp7XYOLtiZw+29u9vl64R9QGg9UlssN2CTk6pKevs2tqqb6eTB4E3sKStLMQoNGQZ94dyp14oQzwBclUdnlzFQVvvy1ym5x9rq27L2rN9GPPVVQdjrZIgBYZMPLHMRFhhbeKgucLShmudKsC6AgURxBL+7GSzPdKVM66vNHGoNMBarLGAckDzb3Y9Pbta+rPraro1PwWDNW1lYc23rpA2WtYCF9cXONoW4QYrl0sHSQMd87W2kqlty1AnJAAIG1mkIcKctf5uMpAm5UjvRyFQyLUFnoU6ecv37GrzPMzCP+YY6YwBJkL3UMs1FpBJD80/abl052LXzbbQq+noSin06F0Ej3T4QQofW4cvD5Q+MtLuU6dwJl5tiUCdkSAFBJAWG8iwYL202v7mRvue+P10WFEQmNxCFggvzFvzieATL/SwBurnQJvOunHWTMNsrmviptVHEOQ+7zr4HY0Ydn2aWkAZMZttI0ZNgHXY6fsx8PDro20ZbH1pBawNq1DnJKiKjQ6Y59nnXOjt5a3SpgMOxFwxBMOQJZ/yCF6uUuBhEp9YGQSffgESBgx0sDbamn90z3CRvrqYr1CXQAIYL/XXF6Vb5oetadn06xQDWAbrQX3UVvirp4VWgValYqKkSJACUyvXuiQWOxhbYXO8foc3+6crXDlRKSCrInWY+mOjIi3rauFKbeXCJI1kd/uhdMD1tw96vDU+rRUtilzQpQoqf+1O6VczpT/YBTrKZZ9NX04KKeGJE6KqPMqWU9ThTscfpMr/xQTpdAfQNLUWCyVJgqrg4Xa9Ii01Gb7/pPSSyRGloTiPTpn+1uykkmdNMFIuEmhhVru0DoWflDHMUWagW2PT+NVBmS1zXPbjadIjjstonMimTFICw6kkGkC5oGSauvxxX9gftK5ZmtHsByzQr/i7vwbItthJaHaE6+3us6TzbBmKlbep5EmQAiNUr7k3nK8QpaiY0NLWQv77iaGGpzLoEyDAYk5y1G8aO2jr/+5kx2ObwvgnG+FEWHAlu1q5HGNlcpytaG8rFlLcs8IP5Y2SSvXSb7X13mDFtXaXtI7GD//NoEm0fTb3g0g7XX/3mggXDSkOEeoNCcg2cd190vQYEgSBlTXS9EulsceFBEgQj9UWyJuekqZsCP/OJJBICdp+oIV+nN2TU/uE7gpWNhvrsf+10KWd63hv6hppkV3dHd6H8GX6OXX7enMT4bxwQZVCJ1VuMCTgJcpdqLeOl646IdRKCaJBr+83TQByxtKZlU4IU83HwztLVwyVzrVbgjtZE1eSwZXPm3z3vqRgzQncnkxBOG5VK1ubv10YNmAUcvXPBqMvgzL0f/8gI7bNcIJovG5hunueLYC1cSYCoIHftHvzWSuV298nfWpMYVrP2tmVOq+/9HML9PfODuM0epTTaePmFvpttiQ3zbBLtTckZ6HQoJyGjjaTT9rMLrev+4q1S4J3Y9IK6X5rYBYujJNl5GuXy6+bBf5350g3nBE2VdLwUCjQ98BStlcM9z1MMMZlscpPOr+kg+t3ki3IXfPtXjGisUBoUCSgdYJJMQ8tdyU6AEvwTtAP80cL0BZbynQEIN3lSd1tMc6Xzh8UjgAtFmjAGNxF+sm50qdHuPr8YHFE4Jk7+b/v0ZNtMqQSstUUDYoEgB7OOwm8NodDqhOEYIjzfS9KC7emdzvI+Tquh/RrC+Uo+97FWNmnOogHWNv5xnFhyk4GLsY9I0NYjrQVuM1kZnhHunfJFg2OBEFmOBfSb13hG3eF+xo70KzLtkkPL3PREOXGYI81K0ta/WyCNKhrYYPPTIAIuEfXnyZdNSS9z9/Jz/V3W4JpVnYM9agpGhwJAAmyHtkoPWizua2eZbsrBrACj5oATDCKGwdEe/whuz2/tv8/uKxuhjUHcQID6UwE3LE4IhCYH+Hn/eNSaWcB6rdBkoBCaufPm00C8oey9nFjBYLEEJTHV8YLFbt3WKh+NkYae6yCWXp1BSwCS2zdcKpU1jL+mbuYpE/b5aXfgVltNUGDJAGgV/M1u0U/nytNflk60EjjA1yhmeukl2OGmwBags5wHPCBoeFUyGLCXAvq4mCa+uA5T+ktXUYPsesxigdBM62v8fjqcMZbTdBgSQDaWlss3Sf9cnaYEZu1BRoTEB7S2j9lQYlrcWH/a5aCLzogZcpjHFFqCqbGzt0k/WSy9K1HpO8/Lt09J+xFjgIB+eXDpf62CjGPrjY+527HBpt8DVy+fNGgSUB9khp+ngvp189L/2ersDnNgtsNDWTdWL1TmlMRjg2KAisNTewZat5iLXVFB93TK6QfPC3dukj6vUl5l/++3XXy2+ekVTENGP07Suf0l1rHWANmuemgtLC8Zi5RgyYBSBHhRQv/HfNdCdOkWXYPGK7d0IGWZ5DcpkPRGh7BwpP4twEOSO1/F2PyDOU8xQJ/83Tp71utsf13c9/4SBN0rZ/rQROCRG1RmpxnZlmwY1qF71IdwfP6dy9s8X0SEmRGW7/pJtf4XcvtHk21GbWL9KIrJdP8hPoMBHCBtWSTmHdE8Fq3lk61FShGaxD3f8YE+NkMf+5woOs6CFp2vCHgdG7usfC+sF6qiGnlGdRZGkxzrc+NsgY0407d7rjGhIo6ng0aFAmCsS5pSqI5he+KecTC/4t50i1TpN+5gqZaG220pSC5VkMCfjhrLAc96RHY5+MXdQsXaS/kkAjAGs8Q4JczbQkqCRBnaQhsyUQShZZHS8MdtLe3qxZVPSi3lQ76SafJ/Oh80GBGkYJmzRxouUBbunJJA5IOEGavP7s0kU5sKw21/3lMBweH7VzgNr9tK3PioGkKLB+1AiqVbBEff9RCZr85SshJbPCrM6X/GFvYmVsQ4NmVJsAsB+V2x8pchnEEoJFonIn4mw+4LmLS889y8PtNv8dSC3r116AJlV7u+y+Uzhvqend95ooGQwLWPP7JyRZsC/cDdnlICpUuIzbgxRm9yHrMr7uS2lkQ+jSVepoArLrJlEvMcE1HTdYVdlghTLYQvu13rA5qvdzv9ejFDj4dE8S5Q6w7wZgjRuaiGJhIg3aOAwSYagL8ygSYlIEAKCL6JL5+qvQZ111cy9Q6k/nGv0vP+XrV6546ZAj9L8ZJV48JZwzmioZDAh//k7XB6f3C9QW+94LNpCuPDNPZNPtRCrhDZJxjJHZWrhHnxF073bGqiDuv6v7q5/A3qL6v+nX8d5ARPAK4Sq9YqJ+9zO5G93AgW3Ustyv13MvSQgeeu0yoDlYMI3qaNEOk4yLyMDFyd6pdoFsdbz2eBQHe8vHrhkmfP80W2C5ZHFjs8b9sCf6xJuxnqH5JFnb/6mjpP8+wNWlTuTMHNCgS/P690hUuDAI+iMCQ2wc3WnO51NoWqfmvvoIGgeYWvKlXSsdaoKsrCtrv/2Rh/vmycBJMACTFRPjGYOkjJ0kDq6SjPEyA500Ax1zpCBAsbeXj1x5vV8wWgB7idMBa//dj0n0mJM9d/bqQ4DO+1k1nWenZtc0VUfJUb0EdERyRKXrCQFfWBBeMSfGaNR7uUmNoFs0WqL6mFkRcvihZnWWte7/dmkMWMNzKYLPr0tr+9/eXmCC2tMutkEDgApkAt2VBACbcv8fXwgL8exYEALikxCxcM05j0wMdN8QiExoUCaqWe3MX9IheLuhTHCOc7QCxv7TTlQMZmKpXP+xfcYFQBfFONYFFq6+2MC/DBaomIWTzbu+y++FS6a/zKucMmyx3mBSPlacnAGvVNbUwf9Za+9MOxln5NFtwzZjLBsBC5FunDYoE1cHLdXcghw9743hXms3lJ0yG3bYU5dYctI4EvqkLr9FxwhJFXBAkyq328pQHx6IMJ6cyLqu9D95h9+Sn0/xpC0CzcxlWJUZSyShIa9s1JsAnciQA9+R50gk5vd1x986EBk2CFLAKjI+/cLj0FZPhEVsGFtqb0C3MUMFMqnJbCKwEg8nwWdEsFDwCUZ+3OCAvzC2gfd6v+Q7QYkNTcQ+XDQ0F1cEuMk+8aSVy34aQAATg6QjQqpIAH3MsQarFXIC7xbwBSBl3D1qssmkAiUKDC4zfP8JBcIaRkIxlYVV92tE373IQ6G3pTrsA+xXkQV1pPzhITY10sNWLEqoGBMJbDwtn1OND8N1N7Mp8IEw+XL11aLEF+1dTpbvWmRC+Tr7NxPt9nza+z2dsja+2BWCifq4gO8bXHpWeMOGQ1uqPQmD8DZPrC6eGM9RyRaMkQVWg8Unsxaqb+3yN/f7OJG5WXSHIftNbVMGXOqjUcpP6tmXmsTV2dQ3KO5V7+9sF0vssoNXzfdLzPmO1dPts6d7N+REBArAk7zW+Pq1JZJXIByusoG58WHren9XrPnhPW4k77OpeMcpuWvNwfy5o9CSIAqlIEALcCUqnfpTQO8Ejk5rkApfZvn1hC0t1EBN952S7iGfYZYzoaUVBzDIR7rTP/9ccicCQDNJhfmao9OEx0f0K2eJp+n0m2UK7jqu/BnWEO/voJWGLYD4TgqLkqdGDtcgYb0OuG5oQ8Tfr24YPXtbKsVCbkNRRYJWgGVvss9udiDqFSe2n9Qt7c6/qIVX4pHRjs1JIEeCaAhAAvORnJFtdFP8gqqz9O/td8x0EmJCgAYNxTyeWSa/ECC7B7dPbwzkHxAhRYB4CRKBTKxsiHCaAXaAPFYAApIxfbBKQvzQKu3y/Ux1ndDIJonq9s0FCggaMoyzkI7u5km3NouQ2aE1xDPTMGgXLM8XhHUToGU+EIClyigCOAWpKAMCQjRU7QrcnyhLQcHFG15q5wAkJGjAQ8qEWkH64RBGaHqFq5/9+vyKMH9I1qUYR4RANB/5knFWF/XKSdOECFYoALBr41HI/m4ka1TQaENEEP8kWiqVh80VCggYMSNDTBDjTQhIXF+ASMb3xCROB2CAdAiL0la49xcJ+XJhTdJv37bEUjW0n/eeIwrhAKcxzMP4cswBN4AgOaI9JSIvTUFu7FgkJEsSBYQrnWIM3s5BE8sDS1cHbl1+UVm6LthhVERDBBPj8mdK3T5V+NFL68Wjpa+Okj4wtHAGIBf5vYbhkV1wnGGPBPnxsGBTXRJATEjRwID9jbAlOtlsU5+6Qte+N3eGCfduySESAUA7x9T5uof/cWdJ1E6SLj5e6xkyKyRXkGH1sqV0hxyox8XCYSa+lNNGWqWUNm8QTEjRw4EuTSuWSwdbiFvY4dLPFuNOC9w+yuh2s3JkFaEKOm76ZD7BE80nNMjccyBdnBWgVwiWDjIyGrQkSEjQSTLRLNNa+c1zHH8LW0ds1s+yHr5L2puYQ1CIgAAs1fmOatHVPfMdcMCS+uXT5EKlNHj3E1ZGQoBEAWWJNsSvtv3e06xDDg8Atav269IGpJsLKcDhJbYHxXKu2O7aYIs3eEq/defad/u+rg6RRtApVG+6RDxISNCKc299Bsl0I5CaKCOwjq1tLu0PvmyxNWmaBc2Ba7GEjNIXSK3zdk+EgOdLrx2G/yTKqowNiE7oQVgAkJGhEYMbdR0+URneOr3jkvZ2J0N5W4CoTgckyrDyZbzqTdAhGsh6y4L9s6/OYLYBjARLtxiGY+9BEusHvMMDvkG8PcXUkJGhkGFkmfWSM1LtltDUA7Cfg7Wqh+4ZJcM3j0uQVYYKrTJNbsgGdXMwPWFoh/cCu12WTpAO7bQHSuDbckoarzw+VLnKQX8gUMQkJGiHeZyH64HCpzJYhDggduYqYLDN9o3SBNfWNdleeXR22HuHDZ0sITqF5FmtCh9yyrdItDsAveEj62aKQbAxWTAfmJn+gj/SZkwrnBqWQDKVupGDNhl9Pl+5dYqG2Vo5piDkMhJjkvW/YHbnI1oTY4kQHpn3aSa1c3rgm76lWMUgWRMHnZ1Hvxdb8U9eFq8zwN61R2aw3zey2k3zPm8+TBnXxfTI9bI5ISNCIQZlChAcJgLMgAoAMDGNggT2GTfRtbf+8vXSsydDJLlZLkwQhZUAeqVpI3EWaRHJAlft+R5hIzFHOdl4CrtPIrnabJvrTpMt3hls6JCRo5NjtAPi3s6V7FksVtg5ZKOYACE2g6b2ZE8GW+g6QVQSW67ExR4OOu1xkGMKd0kv6zlnhQMBCW4AUsn3nBA0UTEf87OlWMCdL/azVEWT/ywjkEaHEnQkmIHlrZb+elCxsrb2h8Zt5Y3IO52Yrwwg/8cglA+0CnV9cAgDfKkFjB0lsP+WA86ZzpPF2OZhaEDfJppiAfAzL7sDifadK/+MY4Di7WsUkAEhIkCAArsvZ/aQfXSh9xYQgNyiTZLAMxQZ8C/I/WRrPc8B958XStWMdc9hKxaVYKSQSEiR4B8gJdP0Z0h0XSZ883gLi+Gr7G+F4nULzAWtzwNfdZ0E/sbv0cwe/v7wgXDSEwX61IP8BEhIkeAcQPCasjz1G+v650t8ukW4YJbVtK5VbaANCoLXzYIR/FkyMx8Js8XUONJXO7SPd7fv88VLpimGhK1Rs96c6ktahBGmBtiYD3Oa90pyN0pR10uSt4WSXIHiw9AQJcy24dOKm3BekCqF/1Z9k9AvMyFEmmIV8PAvymWSnW+Mz/IFpmfQz1IbrE4WEBAmyArEBicjo+KLHePUuaeXOcAENVspf732sGLPZG4uCdDYjunjrbr+eOc59bEkIcgd08j7/3cKCj8tDK1Adyf5hJCRIkDNwhRj7j5VgNUqy9aWGUXAMgcKlIdhGwzPc+WhvCDxboQa+FQol9jgJ6gMQcOIGsky3tsLp2CpcHKNHO6mntT1rDvC9zFtna/22doGYCA8ZSo0AICFBgoIAlwafHoKktmBfcLS0kZAgQaNHQoIEjR4JCRI0eiQkSNDoUX9IUNn0liBBoVFvSJAai56OCPl05SfID4wlYi4CPclkjX6pXFqwKVzN8oUNYQKtF71v2TZp/W4FSy6xzGopot50lu1ygX/hAWnKluimNzrLfjNRuuqEcPRhgsJj32thb3GwubwhAQv/HbJwM7QitcIPEpXqKKM/IbXQSZtmUqcWUoeWUkd/tvdWCv0G9YYEZET70sPSkyze5r/fRQJXyM3jwuVBKeAEhQFpTrbtd/nuC7X+Fn/f5bo4ZKFPpWGpKsdV6yUlWHyyBb3HJgUL+XVrJfVoI3Vv6++tw/FDdYV64w4xiZseRzphIuH9O0yEtyorJkHNwDCIjXuk2euseFZ4WyU9v1laZyIEyzuZHMwYY0O4U1tqaERqeAQbA+w47wgzAYux1ZZkUYU0ea30xHJp2uow/QqWpi7gR6sfYLBVW7s5pAaPhN9klbVVMZJENTawvO1cW9xJFv6n19iv3xkKPsKCQCPgscooDYjrcJO4BhvjjjbZssxw/MD6CM+ZDCwdFeQarUXwXvUC5MlkjdqmLsQoBw5yzLGWIqlTgvxAFmg08uSVofCvrMw8hxZH8As91BkiQQaEcJutwwwH1Y+bDBAwl8zYNUW9IQHoYhKwskoUWvtNNlqrbLU1wJQnyA00PMyz8D1hAuCq4LYEWr/Agh8FboHbBClI0fKkLQJJvtbtDgPtYqNekaCng6h2DqCiyoWMB3LARnMdrRUJsgeKY7o1/xT76NvsCgU+fZbCj1VGUBlaTRCNAmLDgvB31eHVmcAtId6/TMA5W0IX6eVt4bWKiXpFApYC6tzSXyIqKDDVLnDSeh+sg9z69RWbHfxOsdZ9wUEvCbPQyJnkPzWfACH3v6DBgtQttPiwRhpbma02zaEMoT4CwfZvUqTIRIhUUL3GlgD36J9bQ8tULNSbJlLAMj7fekK6d3mobar7qKTt3m+SzHmfNLp37Zjy+gwI8JQJsNLWEyHIFOyi8SEAbf8dmtk9rWzvZxJTS1voZkyc4Rre3rKwU0fEaATVJPPd5m273S46zd7j69Dil6mKIA7XP7+/dHy3sIm10KhXJAB3z5Vum+kKdMFWF3IqiCl+t50pXXlCOGk7QTRo+5+0Slq2PRTEdMJIuaLx6fTqaQ1PRgqmSJJ2kUk1CH+63yPIARFMgAq7Xvj9673R3wD7MikrJudjaS4eKA3qbJepwESodyRYYHfnu49LM3dZI1Xuq4otJsHYMukuMpd1r9yZ4B2g45G2/0V2M0CcDCIYaHSE7hgL/UALIC4pDRRYg3zANelp3mBXZ4UJSAvUflsLG4W0rU9YFTrVLh0sHetnKKSV5971ClTEwK5ScxcCGqo6ulkrveDKfX59WNgJ3gmEad4m6aVMBHDZ4v6ggU/uKZ03QDqtjy1Bu/wJALhfB19zpBXURF/zLF+zd9vwQFR9psA9N9t6PevgvdCr59Q7EjAG5QT7+71shqNipUBDuIBuWyKt3pa+YBsbEBxaz2ZvDMslHQFwf3pZ8044zls/WwK7QIXUvgAynHxsSLDhXUKLk66+6Ctaausx10H8wQL2B9U7EgASQx1vi0ClVNcI/Flma7DQmu7xZXaP7HsmCIFPPn2d/XMLUJzrQXlShsdZ45/jYPREW4EWVjzFAo+Bi8W9TrAbS+Abp+U5t4n/Y1knRqbSQlUI1EsS9HYFndI3tAZRXQJUMEv/fNvWYPZq+5x1NCallIDALHQ8tclKIU6jI3toYtYamGihJDFWPsMj8kFHB9lYnNE9QosQw4Og+ZQWp5m2ZnsL5O7WSxKAcS6wE2xCUQ9RmiNY/sfCf9M8af4Gk8W+cGMFxVNhf3q+3Yg4LQsIgmnfJzHvsXZ/akn+D4OFBc+0+zXMMV861wu3iMRfuHY0m9cU9ZYEZDMbP0ga1MrBXuW+qqCuu9sa4EPe+oK0yCa0NrrgSxF0UBEIs3JMnBtE2bDKzHgLYR+XbW1ZgOpoayLwDMfYGsWBd4DMC8pt5QvQMVpvSQBoXZjg+ADNECngLqzu9mcfsB/8GxPhJWvCxhYoIywMRlu8LV6zUyQcG2P/n9Y3XI66BP0PZzhgxjLEAZeJvgbSQNLiVRPUaxLQLX/u8dJpncLYIFK+K4nwh5XSzdPDEYp03jQWQHra4vccCjVoFLAUjMsaU6AV4gsBcpYO6xbvFiG4DMX+p8ld05aiek0CcKo1xsUmwkC7Ra/FaXmI4Mq9Z430zWekZ1YoaCGJO70hAZ95uV3COAvIbsbpjLUVYL5GjMzVOnDHTugeWoU4MMQbS8CC4DWx8PWeBLzABSbB++0atbNPy0CtSFQSYbL9yKufkv48Vyq3OW3I7hHvxjj9zftCoYoCrUZYgX4dQzKUElgth2ESLPoXBdy2vVZmDMOoSYBc70kAGMx16Wjp8j4usLj4ALgw6UN404Jx3Qzpq0/aKqyS9jm4aohkIB5gTjDp1ONcIfbTGkNQXIoY3CV9bMA7bkhIEKK/NdlVY02G3tZurth0Qk0gXebPB1bbKjwufXuyNMPBc4oMDYUQaHkmx8e9D02iCBgtbXUdDMeB8UJlbeLdNEIY5iwfrEFfUIMhARhpyf7YydIlx9gtykAENGAHk+FtC/7vlkgffUT64qOOG14M57kSbKUmhLChcdJcruTAs7JuAONt4gSIRhXG/hML1FWTaCYwyYbm0rgONFw4esL3VdZXPqh3o0izwbzN0v/Oku6zdm/qgsmmghH0170d6cLu5SCbYRkju4W+Mr5pMEHEaifIse9zqtYIl29ydFhhcW5HtuCyAfH83FVu8S4Ex9KcQK0yYf5PJnUwST7iuRii/N7+YXMkQpYJdDjianIthC9X4vBM/B4LhfY9ymXJZyas3e26fCk6GwVFwHJQVw6RRjiQzqd1q0GSANB09vvZ1vIrpOYupGwHf1EYgRD6kwrCdSInDmv9Mq4lqvJppehrsjDM9zS7Y03yqAhAezdpTugNZQRs1djmsCXik83PkKq54O/KfVX/JmsD0yV5n+pgF6dfOVwaYr87nTuE0LI80+Kt4fWamfCDOoW/yzbRGe+2xtdYVB5qbsYjDXCZ0QyaKecQ59+zyPGN7x0Wwjvxiq99ft+wpZB6yhUNlgSAcTL3LZRusTbcdyhcdT3WN0iDQKhS372RP6c6uCyZ1f77DAfoFiysQi5g+uACW7DnbL0Y7w/SPWrwHOHXKLkIwPE4ywQxWGnmY6Ns+exuxGl1iDhvY/hcOy2MnMb9OJ9lV8/sE477SQeCVtI0Pr7SAmu3JfVMDI8eaiKdPzB98Etg/zdbguVWDlXfOwWyZJzaKxyEl89SXTlWVf0CTX//for0y7OlUdY45S7B2JajNKDSqHQ2LArTAqtvzKOtcID28xdsvl1ZUdo3Hdb4N89b2LAAqXtx37it6vHU+dU3jsWBx8MFwsVLc1pgmRaanBAgeHdvfOKuMVKXPoh0PbbcZ7vjkmkmEXEWFif1fFiYl/37RVvCc+OAZW1mDc9vooAFxOrxTPnAj9Swgam92P7ibRdK3znRhWVNUWHNkQ8ZMgHtPx+hcaVSwdmCCtzk35FBL66iCw6/PwIZxDdp7knrEvOCq5/Cb9HQWNt0o3QhCK03bFH9EIGbZAWQbiI9pEtrWf0uxCv5Vmm6SzcYUGEDbXZZqf3hi6SP23evsHZhKmYhh1AgKG+7MgN3Jocaofuf4cFUZK2RwOBWgRUL/4wEGSjiysiPGwgvzx+HIDbhGj4n6j4UE+5MJi2ezqqBwPLmyYJGQQJAGbayVTjdPuxPzpOeuUS6bpi1nC0DZNhVaR3yLMcAQXRlcpFkNlOlVQXauKn9czRerUVovheCkykFChPpoya68CeviKVN1xDAO7XyNTgnykXkGmSrDixSGqQjCdcIAnu+5IFGQwKQKixSgp9xnPSDc+y6fFC6dYLJ4cAK61BuMmyxVt5rzUXTG1qQyksnKIBztvq3ZztYZIZULkMQEDKWPGU+L82WtQGCe0hPoqt0L0dmiR6tQ62fEmI+cGMIQvt0CPsZ4kDc0d2/7+vroPFTZOIDl5FMFUO7hkFyHDiP+6V5zOD3+VrRBt06lA0oYASBcenr7Zcv3SYtcMA3vcIEoUnOViLYEE5KKvVZFRS+Nfn4HtLNZ4WTyHMhAcC/nrtJmuoAkibBbH6eqeLQwnF5engNjl09KpxAw7lxWGWffWplbtIgCPa5HS3443tLo/zOmYZcUMZkl6B1iNSKrGNA+XTyNU49RjrZWzoSMNiRfgKaWKPemSbSM3yNs/uGViVXNHoSpEAhUFmpFdpfcbBHKpAKE4GNisD/jfKRqVAE6QQLRLc2ofbLBxCBwWD0WBNXcBu0W0o+Uy4Wn3wN/qzy/fDx8EMHfD1ab3iv1L6qQLNffrw0IoPl4rzdDmwZo0MrEdq7l12+Lq3CZtZswDMw2nODFQ2Te+hr6OWyYlhEpn4VVrn5y6JwMGAUIMFFA0wmW3My3uWKhAQxoFAoGSovNXyCnZUfIfhi6ULAcLOCJFRR0pYDuB9B5Lt6jCvvU/k1GpUH+ODZ91hg/7AwbL2JchXQ6mSTmNgvvSYGh8vCn1wKHz6d9YgC7xO8W+U1UBbZuDA0oz60JCR1dXBN3NaPmMzHm8yZ3iMK2VjdRgnqhgqiUNF2mHxSDRJcEwwGm00vn+zjnJoSAKCRg/tVXvfwxv0rN7Rd5ObfsfF7/sZXJ86IU3M8bzACM0K4qoNzEVqIztCEXAkA+AnlmbpGtj48zbBxaxagLEjDQz0EwXEeSEjQgIHAsSRSHAkQ5K129cgRWox+k0KAvKXEE1ihKPDcjOsiFsiHmCAhQQMGmraHfXcGBUbJOMfpnyAh75sxmrauQYzEeKU4jhJkd3dsQoyRLxISNGAEJLCA4CrESRECwGBDgtY4i1FXQPsv3RpagyjwuBCcNI64WPkiIUEDBn48fSIk00q18VcHPca0uiwxEUotAQHNqTTPxj0WJMEVIkN2viN3QUKCBg6C2cHM03VNR/EAN5ptfrmCZVrjyFLbYLUh+k3SrWgJaQe0D+MB3iFfJCRo4MAakMocbRkn4ASUtMXP3hBOMa1r8Jishs+8ijhOEhDTUgbBaQmrCRISNHCgIYkJ6BBD2OOEimMk6GIELJ12dQkCdQiZbmQpfRyDOobzj9N19GWDhASNAAg4GpOWorjglyCaFqKZFj5mkNFrXhdg/sK0NdJ2WyYIHAU6L9H+o7qHfSg1RUKCRgI6zUiwFTUiNAU0Kj741LXhTLB0mrgYoD/gmdXSGhMhruORR2cuOJOkGLpRUysAEhI0EiBUWAPy+KQDk1e2H5KmWBsvyBCYFgq08uACsYrmMn8i/3FWgHPLWkkn9iiMFQAJCRoRcCFO6RUOWkvXCkTiAGa5TTYRZq1TsNBJsVqNGCj4ouOQJ1eGBMAtiyMAwTBNoacfE8YCnFsIJAPoGhmobYLfSRa6uIF1KaB16UcY7ACUwJr8P2SXiHNVcgFNoKyZsLQiHLrOs+DaxF2a5ybFJgSYwJDpAlkBkJCgEYLsDzPXSzO80RKUjghYANrjiSmGdAqzRXelF9p/x81ViAMBLUPSWdN43S5pyXYHwvsQwvS+PRLK8AhyQZ0/QOpsS1YgIxAgIUEjBcI43e7OnM1hAJyOCAgIVoE4uSOzyWwRWMijc8uw+ZURobgpCHJqzjLkQehpyqSliTFKCH8wX8IBcPkBn+PjdOalE2ikEzeob4dwQW8WECw0EhI0YjC5ZeZauyN2jw5lIAJAUBBs3BJGqLY3Ibq0CFehZKolw7hTQg1pIBduDot20+TJhBzGAWFAAsJkup/v48sEUzPP6hcSoRhISNDIARHmbAjXMyOfJ/5+BtkMkNL0uCn8AIFOxQp8sDslxPyBt0OK9UzZLVLg+lxvoOORcZVLSBULCQkSBK7RIpNgvi0CCcSQiExauioQoECIqkuSr8FlcrhUcAkIQFKwIY4BTukddvIVEwkJEgTAfXl5W2gR1u4Jg+dsrUKhkNL+ne1ijegWTuInIC82EhIkeAcYSbq43ITYEXaaBc2k3p9ydQoNhA8J5PqtHFPg9gwrCxcQzDWfa75ISJDgXaBFh3H8yyrCleN3O7iFDKBQ1gGpQ/BSws/6yTS/Du4aBtq1iYQECWJBS87aXdLK7eG6Z7sdRNPig9sCDpMhDTEOC1el0AMEHy1P82o3uz59HPz2t+bvkiG7dbGQkCBBRhAflO8PrQIJenfaTSKYJgMErUMprQ5S0hSQopIZeDW0CjEcg8wQNKcydIM2fzKHt/PfdYmEBAlyQqrHl8nvTMShH4COMFIskriMji0kivQn9AXQn8CYJVLGMNWTVX86+pPhF5CjFJCQIEGNQDItxgHRK8zwiuokoPOMPEjNazAHuNhISJCg0aNULFKCBHWGhAQJGjmk/w+uuYHONGtwKgAAAABJRU5ErkJggg==;" vertex="1" parent="1">
          <mxGeometry x="599.23" y="100" width="40.77" height="45" as="geometry" />
        </mxCell>
        <mxCell id="SWwn75Fxxb8IVNRIEHbr-29" value="Upload Documents" style="shape=image;verticalLabelPosition=bottom;labelBackgroundColor=default;verticalAlign=top;aspect=fixed;imageAspect=0;image=data:image/png,iVBORw0KGgoAAAANSUhEUgAAAMEAAADVCAYAAADuBZQRAAAAAXNSR0IArs4c6QAAAARnQU1BAACxjwv8YQUAAAAJcEhZcwAADsMAAA7DAcdvqGQAAEFdSURBVHhe7Z0HnB1lvf4fBNJ73xRCSE9IhRBqSCAUKYKCXFCx3ytgQ66K3mvBelWsCAJ6wXb9I0gTKQESSEiDdEhMSO/ZbHqnSPk/35k9+SzLzGl7zu7Z3Xk+mZyzM3OmvO/v+ZW3/N4j3jaUIEEjxnsqPxMkaLRISJCg0SMhQYJGj3oTE/CQb77lT395yxvf+WTjIJ8cO8J/HmFqw+4j/Md7+F7l80hv7E+QIIWSJQEP9ZYFHWFn2/+qVHFQ2nHIn/ul9XukzQekfa+H255/SYe8NT9SatMk3FodLXVvJR3bViprLXVuKXXx322aSUf7PIiRkCJByZHgTT/Nm29KB16TNljQl++Q5m6WXqiQlln4d5oMsrCncJQF+D3+zdFVBPkNb+aN3vD+wy93lNTEwj/cZBjbWTqphzSki9TbBGnXvJIQmI8EjQ4lQQIeAG3/qoV7zS5p1nrpsdXSDBNgjzX/kT7BsqujLKRs+chqyo163dsBb/DoaAv/2SbEecdK4/pIx3XwfZqGblNiHRoP6pQE3Bjh3/uKNHOD9OAyacomqdxuT2sLoRV3oKGLBUjxmu+/z9+7tjAhbB0uGmBCmBRd23injydkaPioMxIg/Dst7NPWSn9ZIj27xRrf6rmJhR4/vbYBIV71Mx1lt+n0Mun9g02KflIPyJAQoUGjTkhAkDt9nXT7PLs+5RZ6xwC4OaUgaxTGG5VkGNtVunK4dK6tQ3u7TgkaJmqVBP+ysC/bJv1hgXT/CmteB7+lIvzVQaFgHTo4Rjjb7tFVo02KXnVjpRIUF7VGgt32+x+1z//rOdKGvWFwm4+/HTys/7OyDjS2eRV8Zz9vwjW57JHegv4Bb3wPblV5LFfwrP3sFn1gmMkwSurk+CFBw0HRScDF1+6U7ppr339p2AKUqzYlfnjNFzKPdLTdlGbejmkp9bFgdrKb0uLocGtiacfavPJG2Gew0z/YQJ+CY499/vtNbz5NzSzVNK3m9Bi+f4cmtgp9pE+eIg23q5SgYaCoJHjdAjl/o/SLWdLMTRZC3ylbAiD4NGUe9PndLfAnd5JGd5NGeOvTXmprN6WFhbKJCXG0hbpqKxKdbFgJ7g/p9lb2OSyu8PNsleZsl1abHC18vLWJkwspIdAJnaWPjpUuHOgCzIlJCUoRRSMB2nj6KumHM6SXdkhNEdTKY+lAk+Uub0dZw1/aQzrfmvdk++LdWkstLfgIbGpYRCb3Jngx/8cn/j3bKybFVhNg0WbpidXSg/7cf8Ba3hdqht+UAVyL0wbZCn30JAfOI0MSJqi/KAoJDrwuPb1cunmmtMQauJWFJJPCfN2Cv8Mbwxs+YQ176SD74R2trS34QQdZFtfIFlgkrMUhPyedc0+vlG5xvLLZ3zv4Pgy9yKZQ+tpCfegEk8Eb7liC+omCk2C/BWuSff8f2QVauS8zARDIbXZLOrWSPjdUev8QC1cHuzkWKoS/2MDtwjpsNFknrZD++yX/vVvqajeL+6crHI71tMX6kK3Bf5ycEKG+oqAkIBid8rL0XVwgC1VHa9R0BNhv4d/vcz7e10JkbTq8zG5TLQl/dUDGQ44dVtl1+8PC0DI0tUvX0WRIB7+CutlaXesY4eNj/JssXKoEpYWCkeA1S8N0uxU/nC5NsyB1TUMAfPOtPn+YA9wvW3AIMNu0sG9dAgJEQL37oDR7nXT9bGmtg+kyB+DpAmAIdIyf/4unSf82wiROiFCvUBAScIE5FpofTZMe3mKhwQWKERqaOnd6u7K39PlTpNEOfpuVoBtBvLBymy3CHOluWwVInW6UKTHNoLbS1ydIFzieSVB/UBASrNgu3WYLcIuD4W4WFDqoonCIYNTC9CX7/fjQvWwJSrllBatQvle6Z5F04/N2jbyPFqS4Ajvg88/sZmv4Xmlo13hLmKC0UGMR3HZAemKJdPvqsJkxjgD7LCBH2a349mjpC6dLfSxRpd60SGzS00T9mOOVO860BXN88IrduDjhbunzn9oq/a8Js31/di1MCeoeNRJDBGKWhf+uf/oPB5F0JEUBArRz8Ph1E+DfT5K6222oL1qS52RY9eXDpT+Nl3bZdXuVaDgCnNve/92xQnpgcdhRl6D0USMSvGyt94CtwOJ9UueIYBCheMUEOMKC89lh0oetUTszOyYPoFV9qTpDx1b29e3G3eHgd6dLjabVKGAJW1gh3LJQetHxUdx5CUoHeccEzPX9ywvS9fOkTtaMzAOojn9ZALabHN+08Hz6VOkYuxa5YPdr0pod9sv3SPtfCQWqVTMTyZq5f2epS8vKE2sR2+3+3e1g+WveyizwcQ0AW0yEz/q9b5oYEijmtAQlgLxIwA+eXuYA8Dlp+i4HwxFWgKuWW2iv7WthsD9NoJgtIM+8jdIcu1oLrE2X2dLssGvxL1+znf3yARaqE3y9Mcd56+19TEGrRWwyKb/7jPS7l+3axfQj0Gxa4XK5/xzpoqFS0wz9DQnqDnmRYN1uB38zpB/YFYprDkUTXmRBvf4M6awB2WtCOtwmmWC0yNxf4R3+u4V/7JAiAG42A+tw5MZ3kC5jOuRAaUg3B7K1pG65Pa7ONY9LK7fHjzmqcBlM7Cn99mIH2O3iGw0S1C3yigkWb5Ie3eDK9/coAhywe9Tbrspl1oCn9MmeAAyDZszRd0yw+zc7ILVFQNO2s5AxnidIp+KNfd180efsKn1+rnSbLdKjDkRJxVIb4H2GmOBfG2tCmJ10/kWhi5/1SZNl+lrpdRMiQWkiZxIwxmbuOmtCC1z7iF9jV/ZZSq461praGjrb8TQI0goL9U8dZyzzPcosQOmGOKNVu5kMnU2c366S/tNE+ONsu1AmJ9ak2GDuwvh+0idtiegAjAIK4j1+vj//M4wlYk5LUMfImQQvWUNPtiVo6hqNsgIMhziro3T2IOnYHAJhNOUjS6UZW8OWpjTy/w7Q14Bl2OK44cb50s1TfZ0XQ5et2EJHvqIPj3KM4veMcyq7+NmedJnNcYyTNJmWJnIiAS1CuEKzLXBRVoBg8G0L8MUOWEf1qtyZBbACO6wp71kZDmXOuSnF5zPQjd7q+y1sV9kq3DXThHJgvYdkXUXEUMciVw6JH1IRxAEW/ofs5u1jalyCkkNOJFhtd2WRNTUN9lFBXoWtwLmdpBPtCnXMYR4uJGDeMf0NUU2tAEVLSpQYhRvs55m62/1q85r0fVuDbzwrPbhAWr4tHNtTDOAWvXdwpTWo3FcdHUzQv5icG22diHsSlBayJgEytKJcmuWKZHhEdQTBoa92vgkw0NoxF/DbnbYyaMwoF4tLQ46jHYmXW4iYfZYOrSyYZRa85yqkTznIvmW6NM2aGL+8GGD+w3v7O3CPKc1gePVB6XkTgbkLCUoLWZOg3Fp6hYVqo92LphGCutPCeUI7aaTdIBLf5grmA8O0iEsH/vaR1vDfGyN91sL2VpNwIg7uVxwgUw//ppOv+ZtlJsMUa+O5jmm2FD5wZozRRAfIPVtFW4PgnXzOQ2sTl6gUkTUJ1u6Slu60MLqWq2trKp6OrHPKHAx3DvflhRihhgSHfM9z7XtfN87B71h/72r3y8cYmRrzs8MWBBeJ0aBfmm0iPSM9ZVJs8d/pSJQrBtoNHOH3twGKBBOMnrFbtsn3DQifoGSQNQmYf/uy3QlyhFZH4G9bO4/s7uC0TbgvV0Rc9h141QKLV0Em6Q/aInzFZPjGULs9jj22+f6QMBa+eFcTgZ7t+9dJ758s3TlLWmj3ZJ/jh0Kgua9/eh+7iv6MepQg1rEVYObaa0mfQUkhKxIcsPsACVZaYOJcoTMdGPa2FaBDqxjA+sA14gfWHqCN/lOnmwinSFf2lN7wffdiFWLIwO4gcPZvCZy/O1/64lPSww6g1/vdCqGdR/s5esYMEAyKzQ8xx3HVa68HuxKUCLIiAc2XW/ZY21qDRbUKUbknMaAtTyuQL451DHL5CdIXzpRuHC6Nautn9f6sAmdr7Fn2pz42Vfqxtxfsr5MlL4ZDWYHkvX3sFjVxGUVdh2bUZ31P1l5IUDrIigRb9jsgNhGOcs1W50DQKmShGtDBrkAdpCfEzTjJwfgnTpNuONXW4Vhr+qbSHhMheLYYVA2cb18qXf2k9GcHzqu22/XK011p7oBgoN01JtdEoY33L3FZ0krFIMEEpYGsSLDblVbxqtQswgoQmKq53Qy7QyxwUVdgWPX7R0ifHS9dP8ruUkc/m9+OWCIOHAoCZ7tIWx2wfnGm9DW7SFNXOlbIs5MNEpDEN+q2WAj5ursO2X1LguOSQVYk2OtKq7AJt+J8F5hXO8Ik6GAhzDXHaDFwfFfp47YIX3Dg/Mm+YV6gvZbITC1BqR7nBx04XzdFus+xQj69zcyZIGaJul3Qq+z4atvBxBKUEjKSgMrabRLsseaKav6jLo+zG0SmuFIBQnjeQBNhgvS5Mf5u7fweu2zMckvHhVSP84Z90s9fcNC8OHdhbd9MamvipWsfoHec+CpBaSAjCcgpesABIySIC4qPaVVaJEiBxL0kzr3BZCC140A/J31VmawC2edWWFtDgnmbKndmCUbNdmwdWsXI23j/JruXiTtUOshIgiC7s4nASpDVOZCq5M7WfASFpYimfsPTHCx/0UT4vN2k88scuPpZiRXScaGTfzd/t+OD5ZX9IFmCGWSMLg1W04y5wd7XfSjdzRPUKjKSgMS1DPqKIkEKLVzxpZ51jfWLrxwtff0cxwzDpKHW1ngkcfKN1dvrE1ZX9vJmC4Z2QwQKNlLOfd39vi7lmqA0kJEEWILAf6VGY1jAohl1kT80V/CIw7vZKoyXvkqmuF5Saz97VG8zrwqvtzseYiJRLoAE6RoJWHg8MQSlg4yim1pVHryrXitrMrU6fH0BgfNFg02Es8OVZ7b7/aL6FHilQ1YAB3Ps4Q3Ko/J7FLAECQlKBxlFF7cgNWHkXRUHK7wTa5GuY6rUwLMyKnbeeunFHfbh/X6RQb8RDOHOWErvRFAeld+j0MLXS2MoEtQyMlbvkdZqrBOW7ky0ZX1p7WABkWmrpRselz72jLTcJGgZI5EIclvyHOWQMAxd8JrdnXQtUO1tiRISlA4yk8BnYN7xjyNbNFybTBQpdRKg/ZnI/6vp0hWPSf9YK5V5f1yCXc4nzundLre50riOjBKFQHGC3uZoH0tYUDLISAJy+UACmvyqC0uqHskUx/oEpQpmrf3tJelz/5B+ONfv9Ko1vN8pnSASLA9uIY061u5SDn0glANDLoLiiLl+W1uC+hRDNXRkrApWjmlpl4BVHiP9XFf0+gMOHktwZCRNuy9skL77tPTlKdLCCgug3zjO/08BVwbin2kCTOhXuTNLvGJ3a6fLI7ZvwdfuZnLVh9a0xoLMJPAZ7VxpHSwUUX4u8rTmoILV6UsJLNl6x/MWfvv+973sZ7fLRpCbQf4DN+iAT7rUBLhyTO5TRVkudo8tD0UVeS+To3dbk4A4K0FJICt91NaC0NkmPKo9nWHDSxgZaSLEKb/axEEL+2MW+m9Nsv9vEqzeG2r+TD44r0aq+TcsnCwgeP0EaWiX8FguoGNtX0yTaqBEfP2urUJLk6A0kBUJ2psEXewSRQ2qhASvW/Mxh5eWl7oEi3X/7Fnp+3Z9JpOJzkKdTQAKubeawSO7Sr88S/qKCcCc4Xzw8jYrBFuDqNsGg/Gauzy9Je5Q6SCrqmDecE+7RFay70LQM/qGtGpnaA3qAvTq/mm+fX9r/z8vdozi54h1R6qA1i6S5r5lgn/7BOk3F9sFGmHXz++aD5iMwzpn5GKNAsPOydFKkyv5ihKUBrIiAeNuerS3UNmUR7Z/W9rm7XBAWEsJcVNAs05bK/3Yge+tM8PpkgfR/pXH0wFBLfe7XNZHuue90g3jQu1Pk3A2v48CM8ZIUPa6rxt1DfZPtIvFzLcEpYOsSECTHiTo608qsjpIyfjkbmtgW4NiZXpLIdWys2qXNfcM6ad2fR5YKW2snB+cToA5Rjv+Fpu0zu2k28+0+2QCnNUvnBVX07b7heWOCfaFzxEJHzilTGrmckxQOsiKBKDMJGA8/sGIGg7y81sIl1gIipUeHQtEJjdaXx5aIt38lHTXAmmuycDE+iD4rTw3Ev49ws/CGV8aLv31IumjdoF6tA21f01Bc+ysddKOmLgoUA4m2gBbG5qdE5QOsq5+VpscYu1JHVfnAcKHFn12izWyrUE+iODWYXD9zv7vufXSrxz43jpd+ocD320mBPxLK/wGATKLhozvaQKdH641PKqH1MIauabaP4W1e2wJNpmQfpGoSzIpabjLkGVrk1XvSwtZk6CnNeaAbmHvaZTLwySUqdbKSywI+czNDdycGIGkd/UNs+9/Z0l/WBom7gXphitziBGwW/y7PQ50f3qadIddH5LndrZFK4T2r4opdsnWVz5XFBhUd5XjD6ZeJigtZC0KjKTsbxKcYTKQzqQ6gpGW1rZP2yUgbUkuQGCDYNFuQtyMK4Lg+da2jFNiCEca+T/s+mz15ycHOXi+0J8nSf06WwsXoZOK+QZPLg+HSEc9V9A02kw6vbfUMgmKSw456cMBXcIF8950TUcJK9bg/m3SIrstcR1GUUAr97abQO9suontZL9LN+SBQ6wxvMVu0gAL/P9NlG46WzrZGri9rUG639YET9oKLNnhLzHX325yTHRA3NfuUNI0WnrIiQRlraXj7VcTINPmXR1Bvk0L/2OrLBSbw33ZAOHs5mtf1kvamYYEcUD2GO6w2cLPYts3jXXge4H0PgfA+ODFFDxGpj7sQJ3h5FEIlIUf8GpbpDZ59j8kKC5yIgEYbkG9wEHlfio3whp0tcA9bGvABPXyHFqKSGh7tYX2bVuDuBXj48DyrlsthJccJz1h4b/mFGmYn7HYycDoHPvbi9ICu39xAfZuvwu5kJjszzsmKD3kTII+HaSx9m17WFijrAHBajNX/EOrpdne0rk3VYFLNKK79LuTrc39fX8WRCBAx/X5V2Wb/0/OkcYPMBHbpA+aC4UZa6V7HKjHNm15P1ktGIvU1ZauWO5YgpohZxIwv2DkMdIHrGn3uYKjYgM6z+bZCtCev2Bj5c4s0LKJ9P5h0p1nmATNw5adfSYDHVy4O2x8D5o8Lfw7fJ8v2no8d770wdFhzMKk/9rASrtBv5tja3cw3grs9XP2dWwyoa+tQNJBVrLImQSgbydXbH9pkDUu5r46EAra9e/ZIv3d7sKa3ZUHskBHW5jLRkpPW7CvswY9YD+6wsK/tdLlqTAJ9tjN+bDv/+C54WLhYx345rJGWk2x04L/53nSA6ziGUMAlMNBH/uG36WHLVVtWKYE+eGIfFa0B6z08vvZruRFDmpdwVGmnmS9nSyw11kQPjQmHEKcLZihtXWftGmnggXvWDnTlwvSHPayUPW0W1bWNrQetQkW9bh3gV2cWVIHkzLqvdm12aT9oC3AL86Tuvt5C9Upl6DwyJsEYOYa6X+mSY9Z45PDMwq7LLmDrd2vPcEafpQFJ8fOIgSffP6p1V1o6WllYtWFZmWts0fs4l3/nOMQkzIYLhIB4qDtfsbJF0lnOlgv9cRkjR15uUMp0AJzxRDpaAs2vnuUXLIu8UsHbDVsMR5dbPcpx95kHpCONPoQ2Mj+UBcEYK4Ea519y9aPLN1xBEClbPf2oxHSiT0TAtQH1IgECCetMd8cbCGxYDI0IAo0m861a/Mb+9EPmwzFWkq1WGAFm0n/lP5rpuObPeFU0ziwxOzV1v5X2AVskwyRqBeoEQkA+fgvHi59vLeDVoLkGOeqi+80z3HET+dIf7VPnWtqw7oCsc8/XpI+MV1a5tiEjNVxwBqOcKxy7diwBzwJA+oHahQTpEB7/XMrpO9bUKZti48PAKMp29qCfNrW43K7DIO6VfY0lxiwaswSe9wW4Mu2Xk0cl3RKQwBW2z/Crtrt46VLhhW3lzpBYVEQEoD99pmftMD80D7zQmtM1gOLuzCtRhiCf+slfcoB80j7zozsLBWQp4hhH//Pwv/blVI7q/SWFuq49yEQfqOJ9OOT/U6j7QaZDAnqDwpGArDHvvMjDn6//by0bn96i8Dk9u22Cn3aSJ8fKp0zyC5ER6l1HXYq0frD7LgZq6Sf+D1Yc7ib34He7LhCwgq+6nO+azJ/9KTa7a9IUBgUlASAjqQHrEF/5CB4rb93T+NCcGN6Va14dW53u0h2I0bZOrAUbG3OwyXrNH0S/0T7L5XuXetgyQ/XjWdP49gzo+0oP+eX/NwfcxzAIMAE9Q8FJwHYYeHHItw6366RA8vu+MdphImpk2R9ICfP++wafchWAReJ3mNaWIrhX+Pzky6RNZr/uUV6yDHNn9f7gH1/hD+d9mc/BGCFnmsd11xuF4g1jBPUTxSFBIDZZQSVd8510LzLgmVBzjSADNdiB2TwuSd1la7oI43pEbpJTEZp7o2xQfn0EzDuiA43XJ6DfjYWJ59vzf/IGumprT7B1qCj3ZpmaYQfcB0sF8PJPzUy7ADslLhA9RpFIwHAzXjGgeVfbBHuLZc6+E4IWSYwSC5obmWzNTjPhJhQJg3pEk7zxEI0MRlIGY/GZvolxGBoAi/DtEqElUzZbAj/Xscrm22Vlm2XZlrzP4Dg01/h33T2dWihylQQxDFMKBrXWfrgcOmi42vXbStVYMmpM8qvqjSh9NioI3+ULIpKAsBaZ/M3Sn9bIP3VWne73Y2OFEqWpcLcgl2QgafELbLbMdYkGGz/u287xw/WwowfYtVI3CbcnEDbm4A7LPhrLPgrHaQ/7+1V5jd4PzXSxufS4pPNc1BCdHSzrsCFjlkusQt0Zr9wRG1jQ8qivuoyZkHHQy5P3ErKO1jgETL4HDLskWqymeuF1jLmdqC4mroMS215r6KTIIX1u6UHXwrzhD5nwWzjwsomQW5VoG0Oejs8j4En5wKpN0j9XR3ex+owpIzMddUZ8iy97d8PN/nea8G/0AQYYkvQmECxIvS4kcR71OWSCsd7tqovW7Es8L63rdyClRBTCotytrCTZqa/Y6dBdh+HdQhTXfaze8ucj9bez0SjuiZErZEAMP7mOVuDSUukZ+2Pr7Kmbm0BC5Y7zRPpHr4Glw1MPEajp7XYOLtiZw+29u9vl64R9QGg9UlssN2CTk6pKevs2tqqb6eTB4E3sKStLMQoNGQZ94dyp14oQzwBclUdnlzFQVvvy1ym5x9rq27L2rN9GPPVVQdjrZIgBYZMPLHMRFhhbeKgucLShmudKsC6AgURxBL+7GSzPdKVM66vNHGoNMBarLGAckDzb3Y9Pbta+rPraro1PwWDNW1lYc23rpA2WtYCF9cXONoW4QYrl0sHSQMd87W2kqlty1AnJAAIG1mkIcKctf5uMpAm5UjvRyFQyLUFnoU6ecv37GrzPMzCP+YY6YwBJkL3UMs1FpBJD80/abl052LXzbbQq+noSin06F0Ej3T4QQofW4cvD5Q+MtLuU6dwJl5tiUCdkSAFBJAWG8iwYL202v7mRvue+P10WFEQmNxCFggvzFvzieATL/SwBurnQJvOunHWTMNsrmviptVHEOQ+7zr4HY0Ydn2aWkAZMZttI0ZNgHXY6fsx8PDro20ZbH1pBawNq1DnJKiKjQ6Y59nnXOjt5a3SpgMOxFwxBMOQJZ/yCF6uUuBhEp9YGQSffgESBgx0sDbamn90z3CRvrqYr1CXQAIYL/XXF6Vb5oetadn06xQDWAbrQX3UVvirp4VWgValYqKkSJACUyvXuiQWOxhbYXO8foc3+6crXDlRKSCrInWY+mOjIi3rauFKbeXCJI1kd/uhdMD1tw96vDU+rRUtilzQpQoqf+1O6VczpT/YBTrKZZ9NX04KKeGJE6KqPMqWU9ThTscfpMr/xQTpdAfQNLUWCyVJgqrg4Xa9Ii01Gb7/pPSSyRGloTiPTpn+1uykkmdNMFIuEmhhVru0DoWflDHMUWagW2PT+NVBmS1zXPbjadIjjstonMimTFICw6kkGkC5oGSauvxxX9gftK5ZmtHsByzQr/i7vwbItthJaHaE6+3us6TzbBmKlbep5EmQAiNUr7k3nK8QpaiY0NLWQv77iaGGpzLoEyDAYk5y1G8aO2jr/+5kx2ObwvgnG+FEWHAlu1q5HGNlcpytaG8rFlLcs8IP5Y2SSvXSb7X13mDFtXaXtI7GD//NoEm0fTb3g0g7XX/3mggXDSkOEeoNCcg2cd190vQYEgSBlTXS9EulsceFBEgQj9UWyJuekqZsCP/OJJBICdp+oIV+nN2TU/uE7gpWNhvrsf+10KWd63hv6hppkV3dHd6H8GX6OXX7enMT4bxwQZVCJ1VuMCTgJcpdqLeOl646IdRKCaJBr+83TQByxtKZlU4IU83HwztLVwyVzrVbgjtZE1eSwZXPm3z3vqRgzQncnkxBOG5VK1ubv10YNmAUcvXPBqMvgzL0f/8gI7bNcIJovG5hunueLYC1cSYCoIHftHvzWSuV298nfWpMYVrP2tmVOq+/9HML9PfODuM0epTTaePmFvpttiQ3zbBLtTckZ6HQoJyGjjaTT9rMLrev+4q1S4J3Y9IK6X5rYBYujJNl5GuXy6+bBf5350g3nBE2VdLwUCjQ98BStlcM9z1MMMZlscpPOr+kg+t3ki3IXfPtXjGisUBoUCSgdYJJMQ8tdyU6AEvwTtAP80cL0BZbynQEIN3lSd1tMc6Xzh8UjgAtFmjAGNxF+sm50qdHuPr8YHFE4Jk7+b/v0ZNtMqQSstUUDYoEgB7OOwm8NodDqhOEYIjzfS9KC7emdzvI+Tquh/RrC+Uo+97FWNmnOogHWNv5xnFhyk4GLsY9I0NYjrQVuM1kZnhHunfJFg2OBEFmOBfSb13hG3eF+xo70KzLtkkPL3PREOXGYI81K0ta/WyCNKhrYYPPTIAIuEfXnyZdNSS9z9/Jz/V3W4JpVnYM9agpGhwJAAmyHtkoPWizua2eZbsrBrACj5oATDCKGwdEe/whuz2/tv8/uKxuhjUHcQID6UwE3LE4IhCYH+Hn/eNSaWcB6rdBkoBCaufPm00C8oey9nFjBYLEEJTHV8YLFbt3WKh+NkYae6yCWXp1BSwCS2zdcKpU1jL+mbuYpE/b5aXfgVltNUGDJAGgV/M1u0U/nytNflk60EjjA1yhmeukl2OGmwBags5wHPCBoeFUyGLCXAvq4mCa+uA5T+ktXUYPsesxigdBM62v8fjqcMZbTdBgSQDaWlss3Sf9cnaYEZu1BRoTEB7S2j9lQYlrcWH/a5aCLzogZcpjHFFqCqbGzt0k/WSy9K1HpO8/Lt09J+xFjgIB+eXDpf62CjGPrjY+527HBpt8DVy+fNGgSUB9khp+ngvp189L/2ersDnNgtsNDWTdWL1TmlMRjg2KAisNTewZat5iLXVFB93TK6QfPC3dukj6vUl5l/++3XXy2+ekVTENGP07Suf0l1rHWANmuemgtLC8Zi5RgyYBSBHhRQv/HfNdCdOkWXYPGK7d0IGWZ5DcpkPRGh7BwpP4twEOSO1/F2PyDOU8xQJ/83Tp71utsf13c9/4SBN0rZ/rQROCRG1RmpxnZlmwY1qF71IdwfP6dy9s8X0SEmRGW7/pJtf4XcvtHk21GbWL9KIrJdP8hPoMBHCBtWSTmHdE8Fq3lk61FShGaxD3f8YE+NkMf+5woOs6CFp2vCHgdG7usfC+sF6qiGnlGdRZGkxzrc+NsgY0407d7rjGhIo6ng0aFAmCsS5pSqI5he+KecTC/4t50i1TpN+5gqZaG220pSC5VkMCfjhrLAc96RHY5+MXdQsXaS/kkAjAGs8Q4JczbQkqCRBnaQhsyUQShZZHS8MdtLe3qxZVPSi3lQ76SafJ/Oh80GBGkYJmzRxouUBbunJJA5IOEGavP7s0kU5sKw21/3lMBweH7VzgNr9tK3PioGkKLB+1AiqVbBEff9RCZr85SshJbPCrM6X/GFvYmVsQ4NmVJsAsB+V2x8pchnEEoJFonIn4mw+4LmLS889y8PtNv8dSC3r116AJlV7u+y+Uzhvqend95ooGQwLWPP7JyRZsC/cDdnlICpUuIzbgxRm9yHrMr7uS2lkQ+jSVepoArLrJlEvMcE1HTdYVdlghTLYQvu13rA5qvdzv9ejFDj4dE8S5Q6w7wZgjRuaiGJhIg3aOAwSYagL8ygSYlIEAKCL6JL5+qvQZ111cy9Q6k/nGv0vP+XrV6546ZAj9L8ZJV48JZwzmioZDAh//k7XB6f3C9QW+94LNpCuPDNPZNPtRCrhDZJxjJHZWrhHnxF073bGqiDuv6v7q5/A3qL6v+nX8d5ARPAK4Sq9YqJ+9zO5G93AgW3Ustyv13MvSQgeeu0yoDlYMI3qaNEOk4yLyMDFyd6pdoFsdbz2eBQHe8vHrhkmfP80W2C5ZHFjs8b9sCf6xJuxnqH5JFnb/6mjpP8+wNWlTuTMHNCgS/P690hUuDAI+iMCQ2wc3WnO51NoWqfmvvoIGgeYWvKlXSsdaoKsrCtrv/2Rh/vmycBJMACTFRPjGYOkjJ0kDq6SjPEyA500Ax1zpCBAsbeXj1x5vV8wWgB7idMBa//dj0n0mJM9d/bqQ4DO+1k1nWenZtc0VUfJUb0EdERyRKXrCQFfWBBeMSfGaNR7uUmNoFs0WqL6mFkRcvihZnWWte7/dmkMWMNzKYLPr0tr+9/eXmCC2tMutkEDgApkAt2VBACbcv8fXwgL8exYEALikxCxcM05j0wMdN8QiExoUCaqWe3MX9IheLuhTHCOc7QCxv7TTlQMZmKpXP+xfcYFQBfFONYFFq6+2MC/DBaomIWTzbu+y++FS6a/zKucMmyx3mBSPlacnAGvVNbUwf9Za+9MOxln5NFtwzZjLBsBC5FunDYoE1cHLdXcghw9743hXms3lJ0yG3bYU5dYctI4EvqkLr9FxwhJFXBAkyq328pQHx6IMJ6cyLqu9D95h9+Sn0/xpC0CzcxlWJUZSyShIa9s1JsAnciQA9+R50gk5vd1x986EBk2CFLAKjI+/cLj0FZPhEVsGFtqb0C3MUMFMqnJbCKwEg8nwWdEsFDwCUZ+3OCAvzC2gfd6v+Q7QYkNTcQ+XDQ0F1cEuMk+8aSVy34aQAATg6QjQqpIAH3MsQarFXIC7xbwBSBl3D1qssmkAiUKDC4zfP8JBcIaRkIxlYVV92tE373IQ6G3pTrsA+xXkQV1pPzhITY10sNWLEqoGBMJbDwtn1OND8N1N7Mp8IEw+XL11aLEF+1dTpbvWmRC+Tr7NxPt9nza+z2dsja+2BWCifq4gO8bXHpWeMOGQ1uqPQmD8DZPrC6eGM9RyRaMkQVWg8Unsxaqb+3yN/f7OJG5WXSHIftNbVMGXOqjUcpP6tmXmsTV2dQ3KO5V7+9sF0vssoNXzfdLzPmO1dPts6d7N+REBArAk7zW+Pq1JZJXIByusoG58WHren9XrPnhPW4k77OpeMcpuWvNwfy5o9CSIAqlIEALcCUqnfpTQO8Ejk5rkApfZvn1hC0t1EBN952S7iGfYZYzoaUVBzDIR7rTP/9ccicCQDNJhfmao9OEx0f0K2eJp+n0m2UK7jqu/BnWEO/voJWGLYD4TgqLkqdGDtcgYb0OuG5oQ8Tfr24YPXtbKsVCbkNRRYJWgGVvss9udiDqFSe2n9Qt7c6/qIVX4pHRjs1JIEeCaAhAAvORnJFtdFP8gqqz9O/td8x0EmJCgAYNxTyeWSa/ECC7B7dPbwzkHxAhRYB4CRKBTKxsiHCaAXaAPFYAApIxfbBKQvzQKu3y/Ux1ndDIJonq9s0FCggaMoyzkI7u5km3NouQ2aE1xDPTMGgXLM8XhHUToGU+EIClyigCOAWpKAMCQjRU7QrcnyhLQcHFG15q5wAkJGjAQ8qEWkH64RBGaHqFq5/9+vyKMH9I1qUYR4RANB/5knFWF/XKSdOECFYoALBr41HI/m4ka1TQaENEEP8kWiqVh80VCggYMSNDTBDjTQhIXF+ASMb3xCROB2CAdAiL0la49xcJ+XJhTdJv37bEUjW0n/eeIwrhAKcxzMP4cswBN4AgOaI9JSIvTUFu7FgkJEsSBYQrnWIM3s5BE8sDS1cHbl1+UVm6LthhVERDBBPj8mdK3T5V+NFL68Wjpa+Okj4wtHAGIBf5vYbhkV1wnGGPBPnxsGBTXRJATEjRwID9jbAlOtlsU5+6Qte+N3eGCfduySESAUA7x9T5uof/cWdJ1E6SLj5e6xkyKyRXkGH1sqV0hxyox8XCYSa+lNNGWqWUNm8QTEjRw4EuTSuWSwdbiFvY4dLPFuNOC9w+yuh2s3JkFaEKOm76ZD7BE80nNMjccyBdnBWgVwiWDjIyGrQkSEjQSTLRLNNa+c1zHH8LW0ds1s+yHr5L2puYQ1CIgAAs1fmOatHVPfMdcMCS+uXT5EKlNHj3E1ZGQoBEAWWJNsSvtv3e06xDDg8Atav269IGpJsLKcDhJbYHxXKu2O7aYIs3eEq/defad/u+rg6RRtApVG+6RDxISNCKc299Bsl0I5CaKCOwjq1tLu0PvmyxNWmaBc2Ba7GEjNIXSK3zdk+EgOdLrx2G/yTKqowNiE7oQVgAkJGhEYMbdR0+URneOr3jkvZ2J0N5W4CoTgckyrDyZbzqTdAhGsh6y4L9s6/OYLYBjARLtxiGY+9BEusHvMMDvkG8PcXUkJGhkGFkmfWSM1LtltDUA7Cfg7Wqh+4ZJcM3j0uQVYYKrTJNbsgGdXMwPWFoh/cCu12WTpAO7bQHSuDbckoarzw+VLnKQX8gUMQkJGiHeZyH64HCpzJYhDggduYqYLDN9o3SBNfWNdleeXR22HuHDZ0sITqF5FmtCh9yyrdItDsAveEj62aKQbAxWTAfmJn+gj/SZkwrnBqWQDKVupGDNhl9Pl+5dYqG2Vo5piDkMhJjkvW/YHbnI1oTY4kQHpn3aSa1c3rgm76lWMUgWRMHnZ1Hvxdb8U9eFq8zwN61R2aw3zey2k3zPm8+TBnXxfTI9bI5ISNCIQZlChAcJgLMgAoAMDGNggT2GTfRtbf+8vXSsydDJLlZLkwQhZUAeqVpI3EWaRHJAlft+R5hIzFHOdl4CrtPIrnabJvrTpMt3hls6JCRo5NjtAPi3s6V7FksVtg5ZKOYACE2g6b2ZE8GW+g6QVQSW67ExR4OOu1xkGMKd0kv6zlnhQMBCW4AUsn3nBA0UTEf87OlWMCdL/azVEWT/ywjkEaHEnQkmIHlrZb+elCxsrb2h8Zt5Y3IO52Yrwwg/8cglA+0CnV9cAgDfKkFjB0lsP+WA86ZzpPF2OZhaEDfJppiAfAzL7sDifadK/+MY4Di7WsUkAEhIkCAArsvZ/aQfXSh9xYQgNyiTZLAMxQZ8C/I/WRrPc8B958XStWMdc9hKxaVYKSQSEiR4B8gJdP0Z0h0XSZ883gLi+Gr7G+F4nULzAWtzwNfdZ0E/sbv0cwe/v7wgXDSEwX61IP8BEhIkeAcQPCasjz1G+v650t8ukW4YJbVtK5VbaANCoLXzYIR/FkyMx8Js8XUONJXO7SPd7fv88VLpimGhK1Rs96c6ktahBGmBtiYD3Oa90pyN0pR10uSt4WSXIHiw9AQJcy24dOKm3BekCqF/1Z9k9AvMyFEmmIV8PAvymWSnW+Mz/IFpmfQz1IbrE4WEBAmyArEBicjo+KLHePUuaeXOcAENVspf732sGLPZG4uCdDYjunjrbr+eOc59bEkIcgd08j7/3cKCj8tDK1Adyf5hJCRIkDNwhRj7j5VgNUqy9aWGUXAMgcKlIdhGwzPc+WhvCDxboQa+FQol9jgJ6gMQcOIGsky3tsLp2CpcHKNHO6mntT1rDvC9zFtna/22doGYCA8ZSo0AICFBgoIAlwafHoKktmBfcLS0kZAgQaNHQoIEjR4JCRI0eiQkSNDoUX9IUNn0liBBoVFvSJAai56OCPl05SfID4wlYi4CPclkjX6pXFqwKVzN8oUNYQKtF71v2TZp/W4FSy6xzGopot50lu1ygX/hAWnKluimNzrLfjNRuuqEcPRhgsJj32thb3GwubwhAQv/HbJwM7QitcIPEpXqKKM/IbXQSZtmUqcWUoeWUkd/tvdWCv0G9YYEZET70sPSkyze5r/fRQJXyM3jwuVBKeAEhQFpTrbtd/nuC7X+Fn/f5bo4ZKFPpWGpKsdV6yUlWHyyBb3HJgUL+XVrJfVoI3Vv6++tw/FDdYV64w4xiZseRzphIuH9O0yEtyorJkHNwDCIjXuk2euseFZ4WyU9v1laZyIEyzuZHMwYY0O4U1tqaERqeAQbA+w47wgzAYux1ZZkUYU0ea30xHJp2uow/QqWpi7gR6sfYLBVW7s5pAaPhN9klbVVMZJENTawvO1cW9xJFv6n19iv3xkKPsKCQCPgscooDYjrcJO4BhvjjjbZssxw/MD6CM+ZDCwdFeQarUXwXvUC5MlkjdqmLsQoBw5yzLGWIqlTgvxAFmg08uSVofCvrMw8hxZH8As91BkiQQaEcJutwwwH1Y+bDBAwl8zYNUW9IQHoYhKwskoUWvtNNlqrbLU1wJQnyA00PMyz8D1hAuCq4LYEWr/Agh8FboHbBClI0fKkLQJJvtbtDgPtYqNekaCng6h2DqCiyoWMB3LARnMdrRUJsgeKY7o1/xT76NvsCgU+fZbCj1VGUBlaTRCNAmLDgvB31eHVmcAtId6/TMA5W0IX6eVt4bWKiXpFApYC6tzSXyIqKDDVLnDSeh+sg9z69RWbHfxOsdZ9wUEvCbPQyJnkPzWfACH3v6DBgtQttPiwRhpbma02zaEMoT4CwfZvUqTIRIhUUL3GlgD36J9bQ8tULNSbJlLAMj7fekK6d3mobar7qKTt3m+SzHmfNLp37Zjy+gwI8JQJsNLWEyHIFOyi8SEAbf8dmtk9rWzvZxJTS1voZkyc4Rre3rKwU0fEaATVJPPd5m273S46zd7j69Dil6mKIA7XP7+/dHy3sIm10KhXJAB3z5Vum+kKdMFWF3IqiCl+t50pXXlCOGk7QTRo+5+0Slq2PRTEdMJIuaLx6fTqaQ1PRgqmSJJ2kUk1CH+63yPIARFMgAq7Xvj9673R3wD7MikrJudjaS4eKA3qbJepwESodyRYYHfnu49LM3dZI1Xuq4otJsHYMukuMpd1r9yZ4B2g45G2/0V2M0CcDCIYaHSE7hgL/UALIC4pDRRYg3zANelp3mBXZ4UJSAvUflsLG4W0rU9YFTrVLh0sHetnKKSV5971ClTEwK5ScxcCGqo6ulkrveDKfX59WNgJ3gmEad4m6aVMBHDZ4v6ggU/uKZ03QDqtjy1Bu/wJALhfB19zpBXURF/zLF+zd9vwQFR9psA9N9t6PevgvdCr59Q7EjAG5QT7+71shqNipUBDuIBuWyKt3pa+YBsbEBxaz2ZvDMslHQFwf3pZ8044zls/WwK7QIXUvgAynHxsSLDhXUKLk66+6Ctaausx10H8wQL2B9U7EgASQx1vi0ClVNcI/Flma7DQmu7xZXaP7HsmCIFPPn2d/XMLUJzrQXlShsdZ45/jYPREW4EWVjzFAo+Bi8W9TrAbS+Abp+U5t4n/Y1knRqbSQlUI1EsS9HYFndI3tAZRXQJUMEv/fNvWYPZq+5x1NCallIDALHQ8tclKIU6jI3toYtYamGihJDFWPsMj8kFHB9lYnNE9QosQw4Og+ZQWp5m2ZnsL5O7WSxKAcS6wE2xCUQ9RmiNY/sfCf9M8af4Gk8W+cGMFxVNhf3q+3Yg4LQsIgmnfJzHvsXZ/akn+D4OFBc+0+zXMMV861wu3iMRfuHY0m9cU9ZYEZDMbP0ga1MrBXuW+qqCuu9sa4EPe+oK0yCa0NrrgSxF0UBEIs3JMnBtE2bDKzHgLYR+XbW1ZgOpoayLwDMfYGsWBd4DMC8pt5QvQMVpvSQBoXZjg+ADNECngLqzu9mcfsB/8GxPhJWvCxhYoIywMRlu8LV6zUyQcG2P/n9Y3XI66BP0PZzhgxjLEAZeJvgbSQNLiVRPUaxLQLX/u8dJpncLYIFK+K4nwh5XSzdPDEYp03jQWQHra4vccCjVoFLAUjMsaU6AV4gsBcpYO6xbvFiG4DMX+p8ld05aiek0CcKo1xsUmwkC7Ra/FaXmI4Mq9Z430zWekZ1YoaCGJO70hAZ95uV3COAvIbsbpjLUVYL5GjMzVOnDHTugeWoU4MMQbS8CC4DWx8PWeBLzABSbB++0atbNPy0CtSFQSYbL9yKufkv48Vyq3OW3I7hHvxjj9zftCoYoCrUZYgX4dQzKUElgth2ESLPoXBdy2vVZmDMOoSYBc70kAGMx16Wjp8j4usLj4ALgw6UN404Jx3Qzpq0/aKqyS9jm4aohkIB5gTjDp1ONcIfbTGkNQXIoY3CV9bMA7bkhIEKK/NdlVY02G3tZurth0Qk0gXebPB1bbKjwufXuyNMPBc4oMDYUQaHkmx8e9D02iCBgtbXUdDMeB8UJlbeLdNEIY5iwfrEFfUIMhARhpyf7YydIlx9gtykAENGAHk+FtC/7vlkgffUT64qOOG14M57kSbKUmhLChcdJcruTAs7JuAONt4gSIRhXG/hML1FWTaCYwyYbm0rgONFw4esL3VdZXPqh3o0izwbzN0v/Oku6zdm/qgsmmghH0170d6cLu5SCbYRkju4W+Mr5pMEHEaifIse9zqtYIl29ydFhhcW5HtuCyAfH83FVu8S4Ex9KcQK0yYf5PJnUwST7iuRii/N7+YXMkQpYJdDjianIthC9X4vBM/B4LhfY9ymXJZyas3e26fCk6GwVFwHJQVw6RRjiQzqd1q0GSANB09vvZ1vIrpOYupGwHf1EYgRD6kwrCdSInDmv9Mq4lqvJppehrsjDM9zS7Y03yqAhAezdpTugNZQRs1djmsCXik83PkKq54O/KfVX/JmsD0yV5n+pgF6dfOVwaYr87nTuE0LI80+Kt4fWamfCDOoW/yzbRGe+2xtdYVB5qbsYjDXCZ0QyaKecQ59+zyPGN7x0Wwjvxiq99ft+wpZB6yhUNlgSAcTL3LZRusTbcdyhcdT3WN0iDQKhS372RP6c6uCyZ1f77DAfoFiysQi5g+uACW7DnbL0Y7w/SPWrwHOHXKLkIwPE4ywQxWGnmY6Ns+exuxGl1iDhvY/hcOy2MnMb9OJ9lV8/sE477SQeCVtI0Pr7SAmu3JfVMDI8eaiKdPzB98Etg/zdbguVWDlXfOwWyZJzaKxyEl89SXTlWVf0CTX//for0y7OlUdY45S7B2JajNKDSqHQ2LArTAqtvzKOtcID28xdsvl1ZUdo3Hdb4N89b2LAAqXtx37it6vHU+dU3jsWBx8MFwsVLc1pgmRaanBAgeHdvfOKuMVKXPoh0PbbcZ7vjkmkmEXEWFif1fFiYl/37RVvCc+OAZW1mDc9vooAFxOrxTPnAj9Swgam92P7ibRdK3znRhWVNUWHNkQ8ZMgHtPx+hcaVSwdmCCtzk35FBL66iCw6/PwIZxDdp7knrEvOCq5/Cb9HQWNt0o3QhCK03bFH9EIGbZAWQbiI9pEtrWf0uxCv5Vmm6SzcYUGEDbXZZqf3hi6SP23evsHZhKmYhh1AgKG+7MgN3Jocaofuf4cFUZK2RwOBWgRUL/4wEGSjiysiPGwgvzx+HIDbhGj4n6j4UE+5MJi2ezqqBwPLmyYJGQQJAGbayVTjdPuxPzpOeuUS6bpi1nC0DZNhVaR3yLMcAQXRlcpFkNlOlVQXauKn9czRerUVovheCkykFChPpoya68CeviKVN1xDAO7XyNTgnykXkGmSrDixSGqQjCdcIAnu+5IFGQwKQKixSgp9xnPSDc+y6fFC6dYLJ4cAK61BuMmyxVt5rzUXTG1qQyksnKIBztvq3ZztYZIZULkMQEDKWPGU+L82WtQGCe0hPoqt0L0dmiR6tQ62fEmI+cGMIQvt0CPsZ4kDc0d2/7+vroPFTZOIDl5FMFUO7hkFyHDiP+6V5zOD3+VrRBt06lA0oYASBcenr7Zcv3SYtcMA3vcIEoUnOViLYEE5KKvVZFRS+Nfn4HtLNZ4WTyHMhAcC/nrtJmuoAkibBbH6eqeLQwnF5engNjl09KpxAw7lxWGWffWplbtIgCPa5HS3443tLo/zOmYZcUMZkl6B1iNSKrGNA+XTyNU49RjrZWzoSMNiRfgKaWKPemSbSM3yNs/uGViVXNHoSpEAhUFmpFdpfcbBHKpAKE4GNisD/jfKRqVAE6QQLRLc2ofbLBxCBwWD0WBNXcBu0W0o+Uy4Wn3wN/qzy/fDx8EMHfD1ab3iv1L6qQLNffrw0IoPl4rzdDmwZo0MrEdq7l12+Lq3CZtZswDMw2nODFQ2Te+hr6OWyYlhEpn4VVrn5y6JwMGAUIMFFA0wmW3My3uWKhAQxoFAoGSovNXyCnZUfIfhi6ULAcLOCJFRR0pYDuB9B5Lt6jCvvU/k1GpUH+ODZ91hg/7AwbL2JchXQ6mSTmNgvvSYGh8vCn1wKHz6d9YgC7xO8W+U1UBbZuDA0oz60JCR1dXBN3NaPmMzHm8yZ3iMK2VjdRgnqhgqiUNF2mHxSDRJcEwwGm00vn+zjnJoSAKCRg/tVXvfwxv0rN7Rd5ObfsfF7/sZXJ86IU3M8bzACM0K4qoNzEVqIztCEXAkA+AnlmbpGtj48zbBxaxagLEjDQz0EwXEeSEjQgIHAsSRSHAkQ5K129cgRWox+k0KAvKXEE1ihKPDcjOsiFsiHmCAhQQMGmraHfXcGBUbJOMfpnyAh75sxmrauQYzEeKU4jhJkd3dsQoyRLxISNGAEJLCA4CrESRECwGBDgtY4i1FXQPsv3RpagyjwuBCcNI64WPkiIUEDBn48fSIk00q18VcHPca0uiwxEUotAQHNqTTPxj0WJMEVIkN2viN3QUKCBg6C2cHM03VNR/EAN5ptfrmCZVrjyFLbYLUh+k3SrWgJaQe0D+MB3iFfJCRo4MAakMocbRkn4ASUtMXP3hBOMa1r8Jishs+8ijhOEhDTUgbBaQmrCRISNHCgIYkJ6BBD2OOEimMk6GIELJ12dQkCdQiZbmQpfRyDOobzj9N19GWDhASNAAg4GpOWorjglyCaFqKZFj5mkNFrXhdg/sK0NdJ2WyYIHAU6L9H+o7qHfSg1RUKCRgI6zUiwFTUiNAU0Kj741LXhTLB0mrgYoD/gmdXSGhMhruORR2cuOJOkGLpRUysAEhI0EiBUWAPy+KQDk1e2H5KmWBsvyBCYFgq08uACsYrmMn8i/3FWgHPLWkkn9iiMFQAJCRoRcCFO6RUOWkvXCkTiAGa5TTYRZq1TsNBJsVqNGCj4ouOQJ1eGBMAtiyMAwTBNoacfE8YCnFsIJAPoGhmobYLfSRa6uIF1KaB16UcY7ACUwJr8P2SXiHNVcgFNoKyZsLQiHLrOs+DaxF2a5ybFJgSYwJDpAlkBkJCgEYLsDzPXSzO80RKUjghYANrjiSmGdAqzRXelF9p/x81ViAMBLUPSWdN43S5pyXYHwvsQwvS+PRLK8AhyQZ0/QOpsS1YgIxAgIUEjBcI43e7OnM1hAJyOCAgIVoE4uSOzyWwRWMijc8uw+ZURobgpCHJqzjLkQehpyqSliTFKCH8wX8IBcPkBn+PjdOalE2ikEzeob4dwQW8WECw0EhI0YjC5ZeZauyN2jw5lIAJAUBBs3BJGqLY3Ibq0CFehZKolw7hTQg1pIBduDot20+TJhBzGAWFAAsJkup/v48sEUzPP6hcSoRhISNDIARHmbAjXMyOfJ/5+BtkMkNL0uCn8AIFOxQp8sDslxPyBt0OK9UzZLVLg+lxvoOORcZVLSBULCQkSBK7RIpNgvi0CCcSQiExauioQoECIqkuSr8FlcrhUcAkIQFKwIY4BTukddvIVEwkJEgTAfXl5W2gR1u4Jg+dsrUKhkNL+ne1ijegWTuInIC82EhIkeAcYSbq43ITYEXaaBc2k3p9ydQoNhA8J5PqtHFPg9gwrCxcQzDWfa75ISJDgXaBFh3H8yyrCleN3O7iFDKBQ1gGpQ/BSws/6yTS/Du4aBtq1iYQECWJBS87aXdLK7eG6Z7sdRNPig9sCDpMhDTEOC1el0AMEHy1P82o3uz59HPz2t+bvkiG7dbGQkCBBRhAflO8PrQIJenfaTSKYJgMErUMprQ5S0hSQopIZeDW0CjEcg8wQNKcydIM2fzKHt/PfdYmEBAlyQqrHl8nvTMShH4COMFIskriMji0kivQn9AXQn8CYJVLGMNWTVX86+pPhF5CjFJCQIEGNQDItxgHRK8zwiuokoPOMPEjNazAHuNhISJCg0aNULFKCBHWGhAQJGjmk/w+uuYHONGtwKgAAAABJRU5ErkJggg==;" vertex="1" parent="1">
          <mxGeometry x="789" y="100" width="40.77" height="45" as="geometry" />
        </mxCell>
        <mxCell id="SWwn75Fxxb8IVNRIEHbr-30" value="" style="endArrow=classic;html=1;rounded=0;entryX=0;entryY=0.5;entryDx=0;entryDy=0;" edge="1" parent="1">
          <mxGeometry width="50" height="50" relative="1" as="geometry">
            <mxPoint x="1110" y="32" as="sourcePoint" />
            <mxPoint x="980" y="32" as="targetPoint" />
          </mxGeometry>
        </mxCell>
        <mxCell id="SWwn75Fxxb8IVNRIEHbr-32" value="" style="endArrow=classic;html=1;rounded=0;" edge="1" parent="1">
          <mxGeometry width="50" height="50" relative="1" as="geometry">
            <mxPoint x="909" y="33" as="sourcePoint" />
            <mxPoint x="439" y="90" as="targetPoint" />
            <Array as="points">
              <mxPoint x="439" y="33" />
            </Array>
          </mxGeometry>
        </mxCell>
        <mxCell id="SWwn75Fxxb8IVNRIEHbr-34" value="" style="endArrow=classic;html=1;rounded=0;" edge="1" parent="1">
          <mxGeometry width="50" height="50" relative="1" as="geometry">
            <mxPoint x="440" y="170" as="sourcePoint" />
            <mxPoint x="440" y="400" as="targetPoint" />
          </mxGeometry>
        </mxCell>
        <mxCell id="SWwn75Fxxb8IVNRIEHbr-35" value="" style="endArrow=classic;html=1;rounded=0;" edge="1" parent="1">
          <mxGeometry width="50" height="50" relative="1" as="geometry">
            <mxPoint x="619.2" y="169" as="sourcePoint" />
            <mxPoint x="619.2" y="399" as="targetPoint" />
          </mxGeometry>
        </mxCell>
        <mxCell id="SWwn75Fxxb8IVNRIEHbr-36" value="" style="endArrow=classic;html=1;rounded=0;" edge="1" parent="1">
          <mxGeometry width="50" height="50" relative="1" as="geometry">
            <mxPoint x="809.27" y="169.5" as="sourcePoint" />
            <mxPoint x="809" y="260" as="targetPoint" />
          </mxGeometry>
        </mxCell>
        <mxCell id="SWwn75Fxxb8IVNRIEHbr-37" value="" style="endArrow=classic;html=1;rounded=0;" edge="1" parent="1">
          <mxGeometry width="50" height="50" relative="1" as="geometry">
            <mxPoint x="920" y="33" as="sourcePoint" />
            <mxPoint x="619" y="90" as="targetPoint" />
            <Array as="points">
              <mxPoint x="619" y="33" />
            </Array>
          </mxGeometry>
        </mxCell>
        <mxCell id="SWwn75Fxxb8IVNRIEHbr-38" value="" style="endArrow=classic;html=1;rounded=0;" edge="1" parent="1">
          <mxGeometry width="50" height="50" relative="1" as="geometry">
            <mxPoint x="920" y="33" as="sourcePoint" />
            <mxPoint x="809" y="90" as="targetPoint" />
            <Array as="points">
              <mxPoint x="809" y="33" />
            </Array>
          </mxGeometry>
        </mxCell>
      </root>
    </mxGraphModel>
  </diagram>
</mxfile>
